M48
; DRILL file {KiCad 8.0.2} date 2024-05-04T16:44:44-0400
; FORMAT={-:-/ absolute / metric / decimal}
; #@! TF.CreationDate,2024-05-04T16:44:44-04:00
; #@! TF.GenerationSoftware,Kicad,Pcbnew,8.0.2
; #@! TF.FileFunction,Plated,1,2,PTH
FMAT,2
METRIC
; #@! TA.AperFunction,Plated,PTH,ViaDrill
T1C0.300
; #@! TA.AperFunction,Plated,PTH,ComponentDrill
T2C0.800
; #@! TA.AperFunction,Plated,PTH,ComponentDrill
T3C0.900
; #@! TA.AperFunction,Plated,PTH,ComponentDrill
T4C1.000
; #@! TA.AperFunction,Plated,PTH,ComponentDrill
T5C4.000
%
G90
G05
T1
X74.8Y-117.9
X77.3Y-120.4
X84.8Y-117.9
X84.8Y-120.4
X84.8Y-122.9
X89.8Y-122.9
X89.8Y-102.9
X98.018Y-37.386
X98.018Y-171.736
X106.857Y-169.969
X115.696Y-157.594
X127.3Y-120.4
X127.3Y-122.9
T2
X64.99Y-91.4
X72.61Y-91.4
X89.606Y-172.706
X90.862Y-37.471
X94.994Y-178.094
X96.25Y-32.083
X100.49Y-150.4
X104.8Y-79.09
X104.8Y-86.71
X107.99Y-39.9
X108.11Y-150.4
X115.61Y-39.9
X131.18Y-92.4
X138.8Y-92.4
T3
X77.535Y-91.4
X80.075Y-91.4
X102.26Y-179.9
X102.8Y-39.86
X102.8Y-42.4
X103.8Y-140.86
X103.8Y-143.4
X104.8Y-90.36
X104.8Y-92.9
X104.8Y-179.9
X124.26Y-92.4
X126.8Y-92.4
T4
X85.24Y-134.1
X85.27Y-74.7
X85.27Y-77.24
X85.27Y-79.78
X85.27Y-82.32
X85.27Y-84.86
X85.27Y-99.74
X85.27Y-102.28
X85.27Y-104.82
X85.27Y-107.36
X85.27Y-109.9
X87.78Y-134.1
X89.6Y-115.0
X89.6Y-127.9
X90.32Y-134.1
X92.14Y-115.0
X92.14Y-127.9
X92.86Y-134.1
X94.68Y-115.0
X94.68Y-127.9
X95.4Y-134.1
X97.22Y-115.0
X97.22Y-127.9
X98.14Y-48.9
X98.14Y-160.4
X99.76Y-115.0
X99.76Y-127.9
X100.68Y-48.9
X100.68Y-160.4
X101.005Y-185.878
X101.554Y-26.779
X102.3Y-115.0
X102.3Y-127.9
X103.22Y-48.9
X103.22Y-160.4
X103.545Y-185.878
X104.094Y-26.779
X104.84Y-115.0
X104.84Y-127.9
X105.76Y-48.9
X105.76Y-160.4
X106.085Y-185.878
X107.38Y-115.0
X107.38Y-127.9
X108.3Y-48.9
X108.3Y-160.4
X108.625Y-185.878
X109.92Y-115.0
X109.92Y-127.9
X111.12Y-134.1
X112.46Y-115.0
X112.46Y-127.9
X113.66Y-134.1
X115.0Y-115.0
X115.0Y-127.9
X116.2Y-134.1
X117.54Y-115.0
X117.54Y-127.9
X118.74Y-134.1
X121.28Y-134.1
X121.3Y-99.78
X121.3Y-102.32
X121.3Y-104.86
X121.3Y-107.4
X121.3Y-109.94
X121.3Y-74.36
X121.3Y-76.9
X121.3Y-79.44
X121.3Y-81.98
X121.3Y-84.52
X160.0Y-97.42
X160.0Y-99.96
X160.0Y-102.5
X160.0Y-105.04
X160.0Y-107.58
X160.0Y-110.12
T5
X55.0Y-37.5
X152.5Y-155.0
M30
