%TF.GenerationSoftware,KiCad,Pcbnew,8.0.2*%
%TF.CreationDate,2024-05-04T16:44:43-04:00*%
%TF.ProjectId,RGBsensorBoard,52474273-656e-4736-9f72-426f6172642e,rev?*%
%TF.SameCoordinates,Original*%
%TF.FileFunction,Drillmap*%
%TF.FilePolarity,Positive*%
%FSLAX45Y45*%
G04 Gerber Fmt 4.5, Leading zero omitted, Abs format (unit mm)*
G04 Created by KiCad (PCBNEW 8.0.2) date 2024-05-04 16:44:43*
%MOMM*%
%LPD*%
G01*
G04 APERTURE LIST*
%ADD10C,0.050000*%
%ADD11C,0.200000*%
%ADD12C,0.100000*%
%ADD13C,0.400000*%
G04 APERTURE END LIST*
D10*
X4177478Y-2477844D02*
X16777478Y-2477844D01*
X16777478Y-19027844D01*
X4177478Y-19027844D01*
X4177478Y-2477844D01*
D11*
D12*
X7465000Y-11775000D02*
X7495000Y-11805000D01*
X7495000Y-11775000D02*
X7465000Y-11805000D01*
X7715000Y-12025000D02*
X7745000Y-12055000D01*
X7745000Y-12025000D02*
X7715000Y-12055000D01*
X8465000Y-11775000D02*
X8495000Y-11805000D01*
X8495000Y-11775000D02*
X8465000Y-11805000D01*
X8465000Y-12025000D02*
X8495000Y-12055000D01*
X8495000Y-12025000D02*
X8465000Y-12055000D01*
X8465000Y-12275000D02*
X8495000Y-12305000D01*
X8495000Y-12275000D02*
X8465000Y-12305000D01*
X8965000Y-12275000D02*
X8995000Y-12305000D01*
X8995000Y-12275000D02*
X8965000Y-12305000D01*
X8965000Y-10275000D02*
X8995000Y-10305000D01*
X8995000Y-10275000D02*
X8965000Y-10305000D01*
X9786818Y-3723602D02*
X9816818Y-3753602D01*
X9816818Y-3723602D02*
X9786818Y-3753602D01*
X9786818Y-17158631D02*
X9816818Y-17188631D01*
X9816818Y-17158631D02*
X9786818Y-17188631D01*
X10670701Y-16981854D02*
X10700701Y-17011854D01*
X10700701Y-16981854D02*
X10670701Y-17011854D01*
X11554585Y-15744417D02*
X11584585Y-15774417D01*
X11584585Y-15744417D02*
X11554585Y-15774417D01*
X12715000Y-12025000D02*
X12745000Y-12055000D01*
X12745000Y-12025000D02*
X12715000Y-12055000D01*
X12715000Y-12275000D02*
X12745000Y-12305000D01*
X12745000Y-12275000D02*
X12715000Y-12305000D01*
X6539000Y-9140000D02*
G75*
G02*
X6459000Y-9140000I-40000J0D01*
G01*
X6459000Y-9140000D02*
G75*
G02*
X6539000Y-9140000I40000J0D01*
G01*
X7301000Y-9140000D02*
G75*
G02*
X7221000Y-9140000I-40000J0D01*
G01*
X7221000Y-9140000D02*
G75*
G02*
X7301000Y-9140000I40000J0D01*
G01*
X9000592Y-17270592D02*
G75*
G02*
X8920592Y-17270592I-40000J0D01*
G01*
X8920592Y-17270592D02*
G75*
G02*
X9000592Y-17270592I40000J0D01*
G01*
X9126226Y-3747087D02*
G75*
G02*
X9046226Y-3747087I-40000J0D01*
G01*
X9046226Y-3747087D02*
G75*
G02*
X9126226Y-3747087I40000J0D01*
G01*
X9539408Y-17809408D02*
G75*
G02*
X9459408Y-17809408I-40000J0D01*
G01*
X9459408Y-17809408D02*
G75*
G02*
X9539408Y-17809408I40000J0D01*
G01*
X9665041Y-3208272D02*
G75*
G02*
X9585041Y-3208272I-40000J0D01*
G01*
X9585041Y-3208272D02*
G75*
G02*
X9665041Y-3208272I40000J0D01*
G01*
X10089000Y-15040000D02*
G75*
G02*
X10009000Y-15040000I-40000J0D01*
G01*
X10009000Y-15040000D02*
G75*
G02*
X10089000Y-15040000I40000J0D01*
G01*
X10520000Y-7909000D02*
G75*
G02*
X10440000Y-7909000I-40000J0D01*
G01*
X10440000Y-7909000D02*
G75*
G02*
X10520000Y-7909000I40000J0D01*
G01*
X10520000Y-8671000D02*
G75*
G02*
X10440000Y-8671000I-40000J0D01*
G01*
X10440000Y-8671000D02*
G75*
G02*
X10520000Y-8671000I40000J0D01*
G01*
X10839000Y-3990000D02*
G75*
G02*
X10759000Y-3990000I-40000J0D01*
G01*
X10759000Y-3990000D02*
G75*
G02*
X10839000Y-3990000I40000J0D01*
G01*
X10851000Y-15040000D02*
G75*
G02*
X10771000Y-15040000I-40000J0D01*
G01*
X10771000Y-15040000D02*
G75*
G02*
X10851000Y-15040000I40000J0D01*
G01*
X11601000Y-3990000D02*
G75*
G02*
X11521000Y-3990000I-40000J0D01*
G01*
X11521000Y-3990000D02*
G75*
G02*
X11601000Y-3990000I40000J0D01*
G01*
X13158000Y-9240000D02*
G75*
G02*
X13078000Y-9240000I-40000J0D01*
G01*
X13078000Y-9240000D02*
G75*
G02*
X13158000Y-9240000I40000J0D01*
G01*
X13920000Y-9240000D02*
G75*
G02*
X13840000Y-9240000I-40000J0D01*
G01*
X13840000Y-9240000D02*
G75*
G02*
X13920000Y-9240000I40000J0D01*
G01*
X7753500Y-9095000D02*
X7753500Y-9185000D01*
X7708500Y-9140000D02*
X7798500Y-9140000D01*
X8007500Y-9095000D02*
X8007500Y-9185000D01*
X7962500Y-9140000D02*
X8052500Y-9140000D01*
X10226000Y-17945000D02*
X10226000Y-18035000D01*
X10181000Y-17990000D02*
X10271000Y-17990000D01*
X10280000Y-3941000D02*
X10280000Y-4031000D01*
X10235000Y-3986000D02*
X10325000Y-3986000D01*
X10280000Y-4195000D02*
X10280000Y-4285000D01*
X10235000Y-4240000D02*
X10325000Y-4240000D01*
X10380000Y-14041000D02*
X10380000Y-14131000D01*
X10335000Y-14086000D02*
X10425000Y-14086000D01*
X10380000Y-14295000D02*
X10380000Y-14385000D01*
X10335000Y-14340000D02*
X10425000Y-14340000D01*
X10480000Y-8991000D02*
X10480000Y-9081000D01*
X10435000Y-9036000D02*
X10525000Y-9036000D01*
X10480000Y-9245000D02*
X10480000Y-9335000D01*
X10435000Y-9290000D02*
X10525000Y-9290000D01*
X10480000Y-17945000D02*
X10480000Y-18035000D01*
X10435000Y-17990000D02*
X10525000Y-17990000D01*
X12426000Y-9195000D02*
X12426000Y-9285000D01*
X12381000Y-9240000D02*
X12471000Y-9240000D01*
X12680000Y-9195000D02*
X12680000Y-9285000D01*
X12635000Y-9240000D02*
X12725000Y-9240000D01*
X8559356Y-13445356D02*
X8559356Y-13374644D01*
X8488644Y-13374644D01*
X8488644Y-13445356D01*
X8559356Y-13445356D01*
X8562356Y-7505356D02*
X8562356Y-7434644D01*
X8491644Y-7434644D01*
X8491644Y-7505356D01*
X8562356Y-7505356D01*
X8562356Y-7759356D02*
X8562356Y-7688644D01*
X8491644Y-7688644D01*
X8491644Y-7759356D01*
X8562356Y-7759356D01*
X8562356Y-8013356D02*
X8562356Y-7942644D01*
X8491644Y-7942644D01*
X8491644Y-8013356D01*
X8562356Y-8013356D01*
X8562356Y-8267356D02*
X8562356Y-8196644D01*
X8491644Y-8196644D01*
X8491644Y-8267356D01*
X8562356Y-8267356D01*
X8562356Y-8521356D02*
X8562356Y-8450644D01*
X8491644Y-8450644D01*
X8491644Y-8521356D01*
X8562356Y-8521356D01*
X8562356Y-10009356D02*
X8562356Y-9938644D01*
X8491644Y-9938644D01*
X8491644Y-10009356D01*
X8562356Y-10009356D01*
X8562356Y-10263356D02*
X8562356Y-10192644D01*
X8491644Y-10192644D01*
X8491644Y-10263356D01*
X8562356Y-10263356D01*
X8562356Y-10517356D02*
X8562356Y-10446644D01*
X8491644Y-10446644D01*
X8491644Y-10517356D01*
X8562356Y-10517356D01*
X8562356Y-10771356D02*
X8562356Y-10700644D01*
X8491644Y-10700644D01*
X8491644Y-10771356D01*
X8562356Y-10771356D01*
X8562356Y-11025356D02*
X8562356Y-10954644D01*
X8491644Y-10954644D01*
X8491644Y-11025356D01*
X8562356Y-11025356D01*
X8813356Y-13445356D02*
X8813356Y-13374644D01*
X8742644Y-13374644D01*
X8742644Y-13445356D01*
X8813356Y-13445356D01*
X8995356Y-11535356D02*
X8995356Y-11464644D01*
X8924644Y-11464644D01*
X8924644Y-11535356D01*
X8995356Y-11535356D01*
X8995356Y-12825356D02*
X8995356Y-12754644D01*
X8924644Y-12754644D01*
X8924644Y-12825356D01*
X8995356Y-12825356D01*
X9067356Y-13445356D02*
X9067356Y-13374644D01*
X8996644Y-13374644D01*
X8996644Y-13445356D01*
X9067356Y-13445356D01*
X9249356Y-11535356D02*
X9249356Y-11464644D01*
X9178644Y-11464644D01*
X9178644Y-11535356D01*
X9249356Y-11535356D01*
X9249356Y-12825356D02*
X9249356Y-12754644D01*
X9178644Y-12754644D01*
X9178644Y-12825356D01*
X9249356Y-12825356D01*
X9321356Y-13445356D02*
X9321356Y-13374644D01*
X9250644Y-13374644D01*
X9250644Y-13445356D01*
X9321356Y-13445356D01*
X9503356Y-11535356D02*
X9503356Y-11464644D01*
X9432644Y-11464644D01*
X9432644Y-11535356D01*
X9503356Y-11535356D01*
X9503356Y-12825356D02*
X9503356Y-12754644D01*
X9432644Y-12754644D01*
X9432644Y-12825356D01*
X9503356Y-12825356D01*
X9575356Y-13445356D02*
X9575356Y-13374644D01*
X9504644Y-13374644D01*
X9504644Y-13445356D01*
X9575356Y-13445356D01*
X9757356Y-11535356D02*
X9757356Y-11464644D01*
X9686644Y-11464644D01*
X9686644Y-11535356D01*
X9757356Y-11535356D01*
X9757356Y-12825356D02*
X9757356Y-12754644D01*
X9686644Y-12754644D01*
X9686644Y-12825356D01*
X9757356Y-12825356D01*
X9849356Y-4925356D02*
X9849356Y-4854644D01*
X9778644Y-4854644D01*
X9778644Y-4925356D01*
X9849356Y-4925356D01*
X9849356Y-16075356D02*
X9849356Y-16004644D01*
X9778644Y-16004644D01*
X9778644Y-16075356D01*
X9849356Y-16075356D01*
X10011356Y-11535356D02*
X10011356Y-11464644D01*
X9940644Y-11464644D01*
X9940644Y-11535356D01*
X10011356Y-11535356D01*
X10011356Y-12825356D02*
X10011356Y-12754644D01*
X9940644Y-12754644D01*
X9940644Y-12825356D01*
X10011356Y-12825356D01*
X10103356Y-4925356D02*
X10103356Y-4854644D01*
X10032644Y-4854644D01*
X10032644Y-4925356D01*
X10103356Y-4925356D01*
X10103356Y-16075356D02*
X10103356Y-16004644D01*
X10032644Y-16004644D01*
X10032644Y-16075356D01*
X10103356Y-16075356D01*
X10135834Y-18623200D02*
X10135834Y-18552489D01*
X10065122Y-18552489D01*
X10065122Y-18623200D01*
X10135834Y-18623200D01*
X10190727Y-2713298D02*
X10190727Y-2642586D01*
X10120015Y-2642586D01*
X10120015Y-2713298D01*
X10190727Y-2713298D01*
X10265356Y-11535356D02*
X10265356Y-11464644D01*
X10194644Y-11464644D01*
X10194644Y-11535356D01*
X10265356Y-11535356D01*
X10265356Y-12825356D02*
X10265356Y-12754644D01*
X10194644Y-12754644D01*
X10194644Y-12825356D01*
X10265356Y-12825356D01*
X10357356Y-4925356D02*
X10357356Y-4854644D01*
X10286644Y-4854644D01*
X10286644Y-4925356D01*
X10357356Y-4925356D01*
X10357356Y-16075356D02*
X10357356Y-16004644D01*
X10286644Y-16004644D01*
X10286644Y-16075356D01*
X10357356Y-16075356D01*
X10389834Y-18623200D02*
X10389834Y-18552489D01*
X10319122Y-18552489D01*
X10319122Y-18623200D01*
X10389834Y-18623200D01*
X10444727Y-2713298D02*
X10444727Y-2642586D01*
X10374015Y-2642586D01*
X10374015Y-2713298D01*
X10444727Y-2713298D01*
X10519356Y-11535356D02*
X10519356Y-11464644D01*
X10448644Y-11464644D01*
X10448644Y-11535356D01*
X10519356Y-11535356D01*
X10519356Y-12825356D02*
X10519356Y-12754644D01*
X10448644Y-12754644D01*
X10448644Y-12825356D01*
X10519356Y-12825356D01*
X10611356Y-4925356D02*
X10611356Y-4854644D01*
X10540644Y-4854644D01*
X10540644Y-4925356D01*
X10611356Y-4925356D01*
X10611356Y-16075356D02*
X10611356Y-16004644D01*
X10540644Y-16004644D01*
X10540644Y-16075356D01*
X10611356Y-16075356D01*
X10643834Y-18623200D02*
X10643834Y-18552489D01*
X10573122Y-18552489D01*
X10573122Y-18623200D01*
X10643834Y-18623200D01*
X10773356Y-11535356D02*
X10773356Y-11464644D01*
X10702644Y-11464644D01*
X10702644Y-11535356D01*
X10773356Y-11535356D01*
X10773356Y-12825356D02*
X10773356Y-12754644D01*
X10702645Y-12754644D01*
X10702645Y-12825356D01*
X10773356Y-12825356D01*
X10865356Y-4925356D02*
X10865356Y-4854644D01*
X10794644Y-4854644D01*
X10794644Y-4925356D01*
X10865356Y-4925356D01*
X10865356Y-16075356D02*
X10865356Y-16004644D01*
X10794644Y-16004644D01*
X10794644Y-16075356D01*
X10865356Y-16075356D01*
X10897834Y-18623200D02*
X10897834Y-18552489D01*
X10827122Y-18552489D01*
X10827122Y-18623200D01*
X10897834Y-18623200D01*
X11027356Y-11535356D02*
X11027356Y-11464644D01*
X10956644Y-11464644D01*
X10956644Y-11535356D01*
X11027356Y-11535356D01*
X11027356Y-12825356D02*
X11027356Y-12754644D01*
X10956644Y-12754644D01*
X10956644Y-12825356D01*
X11027356Y-12825356D01*
X11147356Y-13445356D02*
X11147356Y-13374644D01*
X11076644Y-13374644D01*
X11076644Y-13445356D01*
X11147356Y-13445356D01*
X11281356Y-11535356D02*
X11281356Y-11464644D01*
X11210644Y-11464644D01*
X11210644Y-11535356D01*
X11281356Y-11535356D01*
X11281356Y-12825356D02*
X11281356Y-12754644D01*
X11210644Y-12754644D01*
X11210644Y-12825356D01*
X11281356Y-12825356D01*
X11401356Y-13445356D02*
X11401356Y-13374644D01*
X11330644Y-13374644D01*
X11330644Y-13445356D01*
X11401356Y-13445356D01*
X11535356Y-11535356D02*
X11535356Y-11464644D01*
X11464644Y-11464644D01*
X11464644Y-11535356D01*
X11535356Y-11535356D01*
X11535356Y-12825356D02*
X11535356Y-12754644D01*
X11464644Y-12754644D01*
X11464644Y-12825356D01*
X11535356Y-12825356D01*
X11655356Y-13445356D02*
X11655356Y-13374644D01*
X11584644Y-13374644D01*
X11584644Y-13445356D01*
X11655356Y-13445356D01*
X11789356Y-11535356D02*
X11789356Y-11464644D01*
X11718644Y-11464644D01*
X11718644Y-11535356D01*
X11789356Y-11535356D01*
X11789356Y-12825356D02*
X11789356Y-12754644D01*
X11718644Y-12754644D01*
X11718644Y-12825356D01*
X11789356Y-12825356D01*
X11909356Y-13445356D02*
X11909356Y-13374644D01*
X11838644Y-13374644D01*
X11838644Y-13445356D01*
X11909356Y-13445356D01*
X12163356Y-13445356D02*
X12163356Y-13374644D01*
X12092644Y-13374644D01*
X12092644Y-13445356D01*
X12163356Y-13445356D01*
X12165356Y-10013356D02*
X12165356Y-9942644D01*
X12094644Y-9942644D01*
X12094644Y-10013356D01*
X12165356Y-10013356D01*
X12165356Y-10267356D02*
X12165356Y-10196644D01*
X12094644Y-10196644D01*
X12094644Y-10267356D01*
X12165356Y-10267356D01*
X12165356Y-10521356D02*
X12165356Y-10450644D01*
X12094644Y-10450644D01*
X12094644Y-10521356D01*
X12165356Y-10521356D01*
X12165356Y-10775356D02*
X12165356Y-10704644D01*
X12094644Y-10704644D01*
X12094644Y-10775356D01*
X12165356Y-10775356D01*
X12165356Y-11029356D02*
X12165356Y-10958644D01*
X12094644Y-10958644D01*
X12094644Y-11029356D01*
X12165356Y-11029356D01*
X12165356Y-7471356D02*
X12165356Y-7400644D01*
X12094644Y-7400644D01*
X12094644Y-7471356D01*
X12165356Y-7471356D01*
X12165356Y-7725356D02*
X12165356Y-7654644D01*
X12094644Y-7654644D01*
X12094644Y-7725356D01*
X12165356Y-7725356D01*
X12165356Y-7979355D02*
X12165356Y-7908644D01*
X12094644Y-7908644D01*
X12094644Y-7979355D01*
X12165356Y-7979355D01*
X12165356Y-8233356D02*
X12165356Y-8162644D01*
X12094644Y-8162644D01*
X12094644Y-8233356D01*
X12165356Y-8233356D01*
X12165356Y-8487356D02*
X12165356Y-8416644D01*
X12094644Y-8416644D01*
X12094644Y-8487356D01*
X12165356Y-8487356D01*
X16035356Y-9777356D02*
X16035356Y-9706644D01*
X15964644Y-9706644D01*
X15964644Y-9777356D01*
X16035356Y-9777356D01*
X16035356Y-10031356D02*
X16035356Y-9960644D01*
X15964644Y-9960644D01*
X15964644Y-10031356D01*
X16035356Y-10031356D01*
X16035356Y-10285356D02*
X16035356Y-10214644D01*
X15964644Y-10214644D01*
X15964644Y-10285356D01*
X16035356Y-10285356D01*
X16035356Y-10539356D02*
X16035356Y-10468644D01*
X15964644Y-10468644D01*
X15964644Y-10539356D01*
X16035356Y-10539356D01*
X16035356Y-10793356D02*
X16035356Y-10722644D01*
X15964644Y-10722644D01*
X15964644Y-10793356D01*
X16035356Y-10793356D01*
X16035356Y-11047356D02*
X16035356Y-10976644D01*
X15964644Y-10976644D01*
X15964644Y-11047356D01*
X16035356Y-11047356D01*
D13*
X5500000Y-3950000D02*
X5700000Y-3750000D01*
X5500000Y-3550000D01*
X5300000Y-3750000D01*
X5500000Y-3950000D01*
X15250000Y-15700000D02*
X15450000Y-15500000D01*
X15250000Y-15300000D01*
X15050000Y-15500000D01*
X15250000Y-15700000D01*
D11*
X4435755Y-19341828D02*
X4435755Y-19141828D01*
X4435755Y-19141828D02*
X4483374Y-19141828D01*
X4483374Y-19141828D02*
X4511945Y-19151352D01*
X4511945Y-19151352D02*
X4530993Y-19170400D01*
X4530993Y-19170400D02*
X4540517Y-19189447D01*
X4540517Y-19189447D02*
X4550040Y-19227542D01*
X4550040Y-19227542D02*
X4550040Y-19256114D01*
X4550040Y-19256114D02*
X4540517Y-19294209D01*
X4540517Y-19294209D02*
X4530993Y-19313257D01*
X4530993Y-19313257D02*
X4511945Y-19332304D01*
X4511945Y-19332304D02*
X4483374Y-19341828D01*
X4483374Y-19341828D02*
X4435755Y-19341828D01*
X4635755Y-19341828D02*
X4635755Y-19208495D01*
X4635755Y-19246590D02*
X4645278Y-19227542D01*
X4645278Y-19227542D02*
X4654802Y-19218019D01*
X4654802Y-19218019D02*
X4673850Y-19208495D01*
X4673850Y-19208495D02*
X4692898Y-19208495D01*
X4759564Y-19341828D02*
X4759564Y-19208495D01*
X4759564Y-19141828D02*
X4750040Y-19151352D01*
X4750040Y-19151352D02*
X4759564Y-19160876D01*
X4759564Y-19160876D02*
X4769088Y-19151352D01*
X4769088Y-19151352D02*
X4759564Y-19141828D01*
X4759564Y-19141828D02*
X4759564Y-19160876D01*
X4883374Y-19341828D02*
X4864326Y-19332304D01*
X4864326Y-19332304D02*
X4854802Y-19313257D01*
X4854802Y-19313257D02*
X4854802Y-19141828D01*
X4988136Y-19341828D02*
X4969088Y-19332304D01*
X4969088Y-19332304D02*
X4959564Y-19313257D01*
X4959564Y-19313257D02*
X4959564Y-19141828D01*
X5216707Y-19341828D02*
X5216707Y-19141828D01*
X5216707Y-19141828D02*
X5283374Y-19284685D01*
X5283374Y-19284685D02*
X5350040Y-19141828D01*
X5350040Y-19141828D02*
X5350040Y-19341828D01*
X5530993Y-19341828D02*
X5530993Y-19237066D01*
X5530993Y-19237066D02*
X5521469Y-19218019D01*
X5521469Y-19218019D02*
X5502421Y-19208495D01*
X5502421Y-19208495D02*
X5464326Y-19208495D01*
X5464326Y-19208495D02*
X5445278Y-19218019D01*
X5530993Y-19332304D02*
X5511945Y-19341828D01*
X5511945Y-19341828D02*
X5464326Y-19341828D01*
X5464326Y-19341828D02*
X5445278Y-19332304D01*
X5445278Y-19332304D02*
X5435755Y-19313257D01*
X5435755Y-19313257D02*
X5435755Y-19294209D01*
X5435755Y-19294209D02*
X5445278Y-19275162D01*
X5445278Y-19275162D02*
X5464326Y-19265638D01*
X5464326Y-19265638D02*
X5511945Y-19265638D01*
X5511945Y-19265638D02*
X5530993Y-19256114D01*
X5626231Y-19208495D02*
X5626231Y-19408495D01*
X5626231Y-19218019D02*
X5645278Y-19208495D01*
X5645278Y-19208495D02*
X5683374Y-19208495D01*
X5683374Y-19208495D02*
X5702421Y-19218019D01*
X5702421Y-19218019D02*
X5711945Y-19227542D01*
X5711945Y-19227542D02*
X5721469Y-19246590D01*
X5721469Y-19246590D02*
X5721469Y-19303733D01*
X5721469Y-19303733D02*
X5711945Y-19322781D01*
X5711945Y-19322781D02*
X5702421Y-19332304D01*
X5702421Y-19332304D02*
X5683374Y-19341828D01*
X5683374Y-19341828D02*
X5645278Y-19341828D01*
X5645278Y-19341828D02*
X5626231Y-19332304D01*
X5807183Y-19322781D02*
X5816707Y-19332304D01*
X5816707Y-19332304D02*
X5807183Y-19341828D01*
X5807183Y-19341828D02*
X5797659Y-19332304D01*
X5797659Y-19332304D02*
X5807183Y-19322781D01*
X5807183Y-19322781D02*
X5807183Y-19341828D01*
X5807183Y-19218019D02*
X5816707Y-19227542D01*
X5816707Y-19227542D02*
X5807183Y-19237066D01*
X5807183Y-19237066D02*
X5797659Y-19227542D01*
X5797659Y-19227542D02*
X5807183Y-19218019D01*
X5807183Y-19218019D02*
X5807183Y-19237066D01*
D12*
X4144978Y-19655344D02*
X4174978Y-19685344D01*
X4174978Y-19655344D02*
X4144978Y-19685344D01*
D11*
X4473850Y-19561828D02*
X4492898Y-19561828D01*
X4492898Y-19561828D02*
X4511945Y-19571352D01*
X4511945Y-19571352D02*
X4521469Y-19580876D01*
X4521469Y-19580876D02*
X4530993Y-19599923D01*
X4530993Y-19599923D02*
X4540517Y-19638019D01*
X4540517Y-19638019D02*
X4540517Y-19685638D01*
X4540517Y-19685638D02*
X4530993Y-19723733D01*
X4530993Y-19723733D02*
X4521469Y-19742781D01*
X4521469Y-19742781D02*
X4511945Y-19752304D01*
X4511945Y-19752304D02*
X4492898Y-19761828D01*
X4492898Y-19761828D02*
X4473850Y-19761828D01*
X4473850Y-19761828D02*
X4454802Y-19752304D01*
X4454802Y-19752304D02*
X4445278Y-19742781D01*
X4445278Y-19742781D02*
X4435755Y-19723733D01*
X4435755Y-19723733D02*
X4426231Y-19685638D01*
X4426231Y-19685638D02*
X4426231Y-19638019D01*
X4426231Y-19638019D02*
X4435755Y-19599923D01*
X4435755Y-19599923D02*
X4445278Y-19580876D01*
X4445278Y-19580876D02*
X4454802Y-19571352D01*
X4454802Y-19571352D02*
X4473850Y-19561828D01*
X4626231Y-19742781D02*
X4635755Y-19752304D01*
X4635755Y-19752304D02*
X4626231Y-19761828D01*
X4626231Y-19761828D02*
X4616707Y-19752304D01*
X4616707Y-19752304D02*
X4626231Y-19742781D01*
X4626231Y-19742781D02*
X4626231Y-19761828D01*
X4702421Y-19561828D02*
X4826231Y-19561828D01*
X4826231Y-19561828D02*
X4759564Y-19638019D01*
X4759564Y-19638019D02*
X4788136Y-19638019D01*
X4788136Y-19638019D02*
X4807183Y-19647542D01*
X4807183Y-19647542D02*
X4816707Y-19657066D01*
X4816707Y-19657066D02*
X4826231Y-19676114D01*
X4826231Y-19676114D02*
X4826231Y-19723733D01*
X4826231Y-19723733D02*
X4816707Y-19742781D01*
X4816707Y-19742781D02*
X4807183Y-19752304D01*
X4807183Y-19752304D02*
X4788136Y-19761828D01*
X4788136Y-19761828D02*
X4730993Y-19761828D01*
X4730993Y-19761828D02*
X4711945Y-19752304D01*
X4711945Y-19752304D02*
X4702421Y-19742781D01*
X4950040Y-19561828D02*
X4969088Y-19561828D01*
X4969088Y-19561828D02*
X4988136Y-19571352D01*
X4988136Y-19571352D02*
X4997659Y-19580876D01*
X4997659Y-19580876D02*
X5007183Y-19599923D01*
X5007183Y-19599923D02*
X5016707Y-19638019D01*
X5016707Y-19638019D02*
X5016707Y-19685638D01*
X5016707Y-19685638D02*
X5007183Y-19723733D01*
X5007183Y-19723733D02*
X4997659Y-19742781D01*
X4997659Y-19742781D02*
X4988136Y-19752304D01*
X4988136Y-19752304D02*
X4969088Y-19761828D01*
X4969088Y-19761828D02*
X4950040Y-19761828D01*
X4950040Y-19761828D02*
X4930993Y-19752304D01*
X4930993Y-19752304D02*
X4921469Y-19742781D01*
X4921469Y-19742781D02*
X4911945Y-19723733D01*
X4911945Y-19723733D02*
X4902421Y-19685638D01*
X4902421Y-19685638D02*
X4902421Y-19638019D01*
X4902421Y-19638019D02*
X4911945Y-19599923D01*
X4911945Y-19599923D02*
X4921469Y-19580876D01*
X4921469Y-19580876D02*
X4930993Y-19571352D01*
X4930993Y-19571352D02*
X4950040Y-19561828D01*
X5140517Y-19561828D02*
X5159564Y-19561828D01*
X5159564Y-19561828D02*
X5178612Y-19571352D01*
X5178612Y-19571352D02*
X5188136Y-19580876D01*
X5188136Y-19580876D02*
X5197659Y-19599923D01*
X5197659Y-19599923D02*
X5207183Y-19638019D01*
X5207183Y-19638019D02*
X5207183Y-19685638D01*
X5207183Y-19685638D02*
X5197659Y-19723733D01*
X5197659Y-19723733D02*
X5188136Y-19742781D01*
X5188136Y-19742781D02*
X5178612Y-19752304D01*
X5178612Y-19752304D02*
X5159564Y-19761828D01*
X5159564Y-19761828D02*
X5140517Y-19761828D01*
X5140517Y-19761828D02*
X5121469Y-19752304D01*
X5121469Y-19752304D02*
X5111945Y-19742781D01*
X5111945Y-19742781D02*
X5102421Y-19723733D01*
X5102421Y-19723733D02*
X5092898Y-19685638D01*
X5092898Y-19685638D02*
X5092898Y-19638019D01*
X5092898Y-19638019D02*
X5102421Y-19599923D01*
X5102421Y-19599923D02*
X5111945Y-19580876D01*
X5111945Y-19580876D02*
X5121469Y-19571352D01*
X5121469Y-19571352D02*
X5140517Y-19561828D01*
X5292898Y-19761828D02*
X5292898Y-19628495D01*
X5292898Y-19647542D02*
X5302421Y-19638019D01*
X5302421Y-19638019D02*
X5321469Y-19628495D01*
X5321469Y-19628495D02*
X5350040Y-19628495D01*
X5350040Y-19628495D02*
X5369088Y-19638019D01*
X5369088Y-19638019D02*
X5378612Y-19657066D01*
X5378612Y-19657066D02*
X5378612Y-19761828D01*
X5378612Y-19657066D02*
X5388136Y-19638019D01*
X5388136Y-19638019D02*
X5407183Y-19628495D01*
X5407183Y-19628495D02*
X5435755Y-19628495D01*
X5435755Y-19628495D02*
X5454802Y-19638019D01*
X5454802Y-19638019D02*
X5464326Y-19657066D01*
X5464326Y-19657066D02*
X5464326Y-19761828D01*
X5559564Y-19761828D02*
X5559564Y-19628495D01*
X5559564Y-19647542D02*
X5569088Y-19638019D01*
X5569088Y-19638019D02*
X5588136Y-19628495D01*
X5588136Y-19628495D02*
X5616707Y-19628495D01*
X5616707Y-19628495D02*
X5635755Y-19638019D01*
X5635755Y-19638019D02*
X5645278Y-19657066D01*
X5645278Y-19657066D02*
X5645278Y-19761828D01*
X5645278Y-19657066D02*
X5654802Y-19638019D01*
X5654802Y-19638019D02*
X5673850Y-19628495D01*
X5673850Y-19628495D02*
X5702421Y-19628495D01*
X5702421Y-19628495D02*
X5721469Y-19638019D01*
X5721469Y-19638019D02*
X5730993Y-19657066D01*
X5730993Y-19657066D02*
X5730993Y-19761828D01*
X6121469Y-19552304D02*
X5950040Y-19809447D01*
X6378612Y-19561828D02*
X6397660Y-19561828D01*
X6397660Y-19561828D02*
X6416707Y-19571352D01*
X6416707Y-19571352D02*
X6426231Y-19580876D01*
X6426231Y-19580876D02*
X6435755Y-19599923D01*
X6435755Y-19599923D02*
X6445279Y-19638019D01*
X6445279Y-19638019D02*
X6445279Y-19685638D01*
X6445279Y-19685638D02*
X6435755Y-19723733D01*
X6435755Y-19723733D02*
X6426231Y-19742781D01*
X6426231Y-19742781D02*
X6416707Y-19752304D01*
X6416707Y-19752304D02*
X6397660Y-19761828D01*
X6397660Y-19761828D02*
X6378612Y-19761828D01*
X6378612Y-19761828D02*
X6359564Y-19752304D01*
X6359564Y-19752304D02*
X6350040Y-19742781D01*
X6350040Y-19742781D02*
X6340517Y-19723733D01*
X6340517Y-19723733D02*
X6330993Y-19685638D01*
X6330993Y-19685638D02*
X6330993Y-19638019D01*
X6330993Y-19638019D02*
X6340517Y-19599923D01*
X6340517Y-19599923D02*
X6350040Y-19580876D01*
X6350040Y-19580876D02*
X6359564Y-19571352D01*
X6359564Y-19571352D02*
X6378612Y-19561828D01*
X6530993Y-19742781D02*
X6540517Y-19752304D01*
X6540517Y-19752304D02*
X6530993Y-19761828D01*
X6530993Y-19761828D02*
X6521469Y-19752304D01*
X6521469Y-19752304D02*
X6530993Y-19742781D01*
X6530993Y-19742781D02*
X6530993Y-19761828D01*
X6664326Y-19561828D02*
X6683374Y-19561828D01*
X6683374Y-19561828D02*
X6702421Y-19571352D01*
X6702421Y-19571352D02*
X6711945Y-19580876D01*
X6711945Y-19580876D02*
X6721469Y-19599923D01*
X6721469Y-19599923D02*
X6730993Y-19638019D01*
X6730993Y-19638019D02*
X6730993Y-19685638D01*
X6730993Y-19685638D02*
X6721469Y-19723733D01*
X6721469Y-19723733D02*
X6711945Y-19742781D01*
X6711945Y-19742781D02*
X6702421Y-19752304D01*
X6702421Y-19752304D02*
X6683374Y-19761828D01*
X6683374Y-19761828D02*
X6664326Y-19761828D01*
X6664326Y-19761828D02*
X6645279Y-19752304D01*
X6645279Y-19752304D02*
X6635755Y-19742781D01*
X6635755Y-19742781D02*
X6626231Y-19723733D01*
X6626231Y-19723733D02*
X6616707Y-19685638D01*
X6616707Y-19685638D02*
X6616707Y-19638019D01*
X6616707Y-19638019D02*
X6626231Y-19599923D01*
X6626231Y-19599923D02*
X6635755Y-19580876D01*
X6635755Y-19580876D02*
X6645279Y-19571352D01*
X6645279Y-19571352D02*
X6664326Y-19561828D01*
X6921469Y-19761828D02*
X6807183Y-19761828D01*
X6864326Y-19761828D02*
X6864326Y-19561828D01*
X6864326Y-19561828D02*
X6845279Y-19590400D01*
X6845279Y-19590400D02*
X6826231Y-19609447D01*
X6826231Y-19609447D02*
X6807183Y-19618971D01*
X7111945Y-19761828D02*
X6997660Y-19761828D01*
X7054802Y-19761828D02*
X7054802Y-19561828D01*
X7054802Y-19561828D02*
X7035755Y-19590400D01*
X7035755Y-19590400D02*
X7016707Y-19609447D01*
X7016707Y-19609447D02*
X6997660Y-19618971D01*
X7226231Y-19647542D02*
X7207183Y-19638019D01*
X7207183Y-19638019D02*
X7197660Y-19628495D01*
X7197660Y-19628495D02*
X7188136Y-19609447D01*
X7188136Y-19609447D02*
X7188136Y-19599923D01*
X7188136Y-19599923D02*
X7197660Y-19580876D01*
X7197660Y-19580876D02*
X7207183Y-19571352D01*
X7207183Y-19571352D02*
X7226231Y-19561828D01*
X7226231Y-19561828D02*
X7264326Y-19561828D01*
X7264326Y-19561828D02*
X7283374Y-19571352D01*
X7283374Y-19571352D02*
X7292898Y-19580876D01*
X7292898Y-19580876D02*
X7302421Y-19599923D01*
X7302421Y-19599923D02*
X7302421Y-19609447D01*
X7302421Y-19609447D02*
X7292898Y-19628495D01*
X7292898Y-19628495D02*
X7283374Y-19638019D01*
X7283374Y-19638019D02*
X7264326Y-19647542D01*
X7264326Y-19647542D02*
X7226231Y-19647542D01*
X7226231Y-19647542D02*
X7207183Y-19657066D01*
X7207183Y-19657066D02*
X7197660Y-19666590D01*
X7197660Y-19666590D02*
X7188136Y-19685638D01*
X7188136Y-19685638D02*
X7188136Y-19723733D01*
X7188136Y-19723733D02*
X7197660Y-19742781D01*
X7197660Y-19742781D02*
X7207183Y-19752304D01*
X7207183Y-19752304D02*
X7226231Y-19761828D01*
X7226231Y-19761828D02*
X7264326Y-19761828D01*
X7264326Y-19761828D02*
X7283374Y-19752304D01*
X7283374Y-19752304D02*
X7292898Y-19742781D01*
X7292898Y-19742781D02*
X7302421Y-19723733D01*
X7302421Y-19723733D02*
X7302421Y-19685638D01*
X7302421Y-19685638D02*
X7292898Y-19666590D01*
X7292898Y-19666590D02*
X7283374Y-19657066D01*
X7283374Y-19657066D02*
X7264326Y-19647542D01*
X7378612Y-19561828D02*
X7378612Y-19599923D01*
X7454802Y-19561828D02*
X7454802Y-19599923D01*
X7750041Y-19838019D02*
X7740517Y-19828495D01*
X7740517Y-19828495D02*
X7721469Y-19799923D01*
X7721469Y-19799923D02*
X7711945Y-19780876D01*
X7711945Y-19780876D02*
X7702422Y-19752304D01*
X7702422Y-19752304D02*
X7692898Y-19704685D01*
X7692898Y-19704685D02*
X7692898Y-19666590D01*
X7692898Y-19666590D02*
X7702422Y-19618971D01*
X7702422Y-19618971D02*
X7711945Y-19590400D01*
X7711945Y-19590400D02*
X7721469Y-19571352D01*
X7721469Y-19571352D02*
X7740517Y-19542781D01*
X7740517Y-19542781D02*
X7750041Y-19533257D01*
X7930993Y-19761828D02*
X7816707Y-19761828D01*
X7873850Y-19761828D02*
X7873850Y-19561828D01*
X7873850Y-19561828D02*
X7854802Y-19590400D01*
X7854802Y-19590400D02*
X7835755Y-19609447D01*
X7835755Y-19609447D02*
X7816707Y-19618971D01*
X7997660Y-19561828D02*
X8121469Y-19561828D01*
X8121469Y-19561828D02*
X8054802Y-19638019D01*
X8054802Y-19638019D02*
X8083374Y-19638019D01*
X8083374Y-19638019D02*
X8102422Y-19647542D01*
X8102422Y-19647542D02*
X8111945Y-19657066D01*
X8111945Y-19657066D02*
X8121469Y-19676114D01*
X8121469Y-19676114D02*
X8121469Y-19723733D01*
X8121469Y-19723733D02*
X8111945Y-19742781D01*
X8111945Y-19742781D02*
X8102422Y-19752304D01*
X8102422Y-19752304D02*
X8083374Y-19761828D01*
X8083374Y-19761828D02*
X8026231Y-19761828D01*
X8026231Y-19761828D02*
X8007183Y-19752304D01*
X8007183Y-19752304D02*
X7997660Y-19742781D01*
X8359564Y-19761828D02*
X8359564Y-19561828D01*
X8445279Y-19761828D02*
X8445279Y-19657066D01*
X8445279Y-19657066D02*
X8435755Y-19638019D01*
X8435755Y-19638019D02*
X8416707Y-19628495D01*
X8416707Y-19628495D02*
X8388136Y-19628495D01*
X8388136Y-19628495D02*
X8369088Y-19638019D01*
X8369088Y-19638019D02*
X8359564Y-19647542D01*
X8569088Y-19761828D02*
X8550041Y-19752304D01*
X8550041Y-19752304D02*
X8540517Y-19742781D01*
X8540517Y-19742781D02*
X8530993Y-19723733D01*
X8530993Y-19723733D02*
X8530993Y-19666590D01*
X8530993Y-19666590D02*
X8540517Y-19647542D01*
X8540517Y-19647542D02*
X8550041Y-19638019D01*
X8550041Y-19638019D02*
X8569088Y-19628495D01*
X8569088Y-19628495D02*
X8597660Y-19628495D01*
X8597660Y-19628495D02*
X8616707Y-19638019D01*
X8616707Y-19638019D02*
X8626231Y-19647542D01*
X8626231Y-19647542D02*
X8635755Y-19666590D01*
X8635755Y-19666590D02*
X8635755Y-19723733D01*
X8635755Y-19723733D02*
X8626231Y-19742781D01*
X8626231Y-19742781D02*
X8616707Y-19752304D01*
X8616707Y-19752304D02*
X8597660Y-19761828D01*
X8597660Y-19761828D02*
X8569088Y-19761828D01*
X8750041Y-19761828D02*
X8730993Y-19752304D01*
X8730993Y-19752304D02*
X8721469Y-19733257D01*
X8721469Y-19733257D02*
X8721469Y-19561828D01*
X8902422Y-19752304D02*
X8883374Y-19761828D01*
X8883374Y-19761828D02*
X8845279Y-19761828D01*
X8845279Y-19761828D02*
X8826231Y-19752304D01*
X8826231Y-19752304D02*
X8816707Y-19733257D01*
X8816707Y-19733257D02*
X8816707Y-19657066D01*
X8816707Y-19657066D02*
X8826231Y-19638019D01*
X8826231Y-19638019D02*
X8845279Y-19628495D01*
X8845279Y-19628495D02*
X8883374Y-19628495D01*
X8883374Y-19628495D02*
X8902422Y-19638019D01*
X8902422Y-19638019D02*
X8911946Y-19657066D01*
X8911946Y-19657066D02*
X8911946Y-19676114D01*
X8911946Y-19676114D02*
X8816707Y-19695162D01*
X8988136Y-19752304D02*
X9007184Y-19761828D01*
X9007184Y-19761828D02*
X9045279Y-19761828D01*
X9045279Y-19761828D02*
X9064327Y-19752304D01*
X9064327Y-19752304D02*
X9073850Y-19733257D01*
X9073850Y-19733257D02*
X9073850Y-19723733D01*
X9073850Y-19723733D02*
X9064327Y-19704685D01*
X9064327Y-19704685D02*
X9045279Y-19695162D01*
X9045279Y-19695162D02*
X9016707Y-19695162D01*
X9016707Y-19695162D02*
X8997660Y-19685638D01*
X8997660Y-19685638D02*
X8988136Y-19666590D01*
X8988136Y-19666590D02*
X8988136Y-19657066D01*
X8988136Y-19657066D02*
X8997660Y-19638019D01*
X8997660Y-19638019D02*
X9016707Y-19628495D01*
X9016707Y-19628495D02*
X9045279Y-19628495D01*
X9045279Y-19628495D02*
X9064327Y-19638019D01*
X9140517Y-19838019D02*
X9150041Y-19828495D01*
X9150041Y-19828495D02*
X9169088Y-19799923D01*
X9169088Y-19799923D02*
X9178612Y-19780876D01*
X9178612Y-19780876D02*
X9188136Y-19752304D01*
X9188136Y-19752304D02*
X9197660Y-19704685D01*
X9197660Y-19704685D02*
X9197660Y-19666590D01*
X9197660Y-19666590D02*
X9188136Y-19618971D01*
X9188136Y-19618971D02*
X9178612Y-19590400D01*
X9178612Y-19590400D02*
X9169088Y-19571352D01*
X9169088Y-19571352D02*
X9150041Y-19542781D01*
X9150041Y-19542781D02*
X9140517Y-19533257D01*
D12*
X4174978Y-19934344D02*
G75*
G02*
X4094978Y-19934344I-40000J0D01*
G01*
X4094978Y-19934344D02*
G75*
G02*
X4174978Y-19934344I40000J0D01*
G01*
D11*
X4473850Y-19825828D02*
X4492898Y-19825828D01*
X4492898Y-19825828D02*
X4511945Y-19835352D01*
X4511945Y-19835352D02*
X4521469Y-19844876D01*
X4521469Y-19844876D02*
X4530993Y-19863923D01*
X4530993Y-19863923D02*
X4540517Y-19902019D01*
X4540517Y-19902019D02*
X4540517Y-19949638D01*
X4540517Y-19949638D02*
X4530993Y-19987733D01*
X4530993Y-19987733D02*
X4521469Y-20006781D01*
X4521469Y-20006781D02*
X4511945Y-20016304D01*
X4511945Y-20016304D02*
X4492898Y-20025828D01*
X4492898Y-20025828D02*
X4473850Y-20025828D01*
X4473850Y-20025828D02*
X4454802Y-20016304D01*
X4454802Y-20016304D02*
X4445278Y-20006781D01*
X4445278Y-20006781D02*
X4435755Y-19987733D01*
X4435755Y-19987733D02*
X4426231Y-19949638D01*
X4426231Y-19949638D02*
X4426231Y-19902019D01*
X4426231Y-19902019D02*
X4435755Y-19863923D01*
X4435755Y-19863923D02*
X4445278Y-19844876D01*
X4445278Y-19844876D02*
X4454802Y-19835352D01*
X4454802Y-19835352D02*
X4473850Y-19825828D01*
X4626231Y-20006781D02*
X4635755Y-20016304D01*
X4635755Y-20016304D02*
X4626231Y-20025828D01*
X4626231Y-20025828D02*
X4616707Y-20016304D01*
X4616707Y-20016304D02*
X4626231Y-20006781D01*
X4626231Y-20006781D02*
X4626231Y-20025828D01*
X4750040Y-19911542D02*
X4730993Y-19902019D01*
X4730993Y-19902019D02*
X4721469Y-19892495D01*
X4721469Y-19892495D02*
X4711945Y-19873447D01*
X4711945Y-19873447D02*
X4711945Y-19863923D01*
X4711945Y-19863923D02*
X4721469Y-19844876D01*
X4721469Y-19844876D02*
X4730993Y-19835352D01*
X4730993Y-19835352D02*
X4750040Y-19825828D01*
X4750040Y-19825828D02*
X4788136Y-19825828D01*
X4788136Y-19825828D02*
X4807183Y-19835352D01*
X4807183Y-19835352D02*
X4816707Y-19844876D01*
X4816707Y-19844876D02*
X4826231Y-19863923D01*
X4826231Y-19863923D02*
X4826231Y-19873447D01*
X4826231Y-19873447D02*
X4816707Y-19892495D01*
X4816707Y-19892495D02*
X4807183Y-19902019D01*
X4807183Y-19902019D02*
X4788136Y-19911542D01*
X4788136Y-19911542D02*
X4750040Y-19911542D01*
X4750040Y-19911542D02*
X4730993Y-19921066D01*
X4730993Y-19921066D02*
X4721469Y-19930590D01*
X4721469Y-19930590D02*
X4711945Y-19949638D01*
X4711945Y-19949638D02*
X4711945Y-19987733D01*
X4711945Y-19987733D02*
X4721469Y-20006781D01*
X4721469Y-20006781D02*
X4730993Y-20016304D01*
X4730993Y-20016304D02*
X4750040Y-20025828D01*
X4750040Y-20025828D02*
X4788136Y-20025828D01*
X4788136Y-20025828D02*
X4807183Y-20016304D01*
X4807183Y-20016304D02*
X4816707Y-20006781D01*
X4816707Y-20006781D02*
X4826231Y-19987733D01*
X4826231Y-19987733D02*
X4826231Y-19949638D01*
X4826231Y-19949638D02*
X4816707Y-19930590D01*
X4816707Y-19930590D02*
X4807183Y-19921066D01*
X4807183Y-19921066D02*
X4788136Y-19911542D01*
X4950040Y-19825828D02*
X4969088Y-19825828D01*
X4969088Y-19825828D02*
X4988136Y-19835352D01*
X4988136Y-19835352D02*
X4997659Y-19844876D01*
X4997659Y-19844876D02*
X5007183Y-19863923D01*
X5007183Y-19863923D02*
X5016707Y-19902019D01*
X5016707Y-19902019D02*
X5016707Y-19949638D01*
X5016707Y-19949638D02*
X5007183Y-19987733D01*
X5007183Y-19987733D02*
X4997659Y-20006781D01*
X4997659Y-20006781D02*
X4988136Y-20016304D01*
X4988136Y-20016304D02*
X4969088Y-20025828D01*
X4969088Y-20025828D02*
X4950040Y-20025828D01*
X4950040Y-20025828D02*
X4930993Y-20016304D01*
X4930993Y-20016304D02*
X4921469Y-20006781D01*
X4921469Y-20006781D02*
X4911945Y-19987733D01*
X4911945Y-19987733D02*
X4902421Y-19949638D01*
X4902421Y-19949638D02*
X4902421Y-19902019D01*
X4902421Y-19902019D02*
X4911945Y-19863923D01*
X4911945Y-19863923D02*
X4921469Y-19844876D01*
X4921469Y-19844876D02*
X4930993Y-19835352D01*
X4930993Y-19835352D02*
X4950040Y-19825828D01*
X5140517Y-19825828D02*
X5159564Y-19825828D01*
X5159564Y-19825828D02*
X5178612Y-19835352D01*
X5178612Y-19835352D02*
X5188136Y-19844876D01*
X5188136Y-19844876D02*
X5197659Y-19863923D01*
X5197659Y-19863923D02*
X5207183Y-19902019D01*
X5207183Y-19902019D02*
X5207183Y-19949638D01*
X5207183Y-19949638D02*
X5197659Y-19987733D01*
X5197659Y-19987733D02*
X5188136Y-20006781D01*
X5188136Y-20006781D02*
X5178612Y-20016304D01*
X5178612Y-20016304D02*
X5159564Y-20025828D01*
X5159564Y-20025828D02*
X5140517Y-20025828D01*
X5140517Y-20025828D02*
X5121469Y-20016304D01*
X5121469Y-20016304D02*
X5111945Y-20006781D01*
X5111945Y-20006781D02*
X5102421Y-19987733D01*
X5102421Y-19987733D02*
X5092898Y-19949638D01*
X5092898Y-19949638D02*
X5092898Y-19902019D01*
X5092898Y-19902019D02*
X5102421Y-19863923D01*
X5102421Y-19863923D02*
X5111945Y-19844876D01*
X5111945Y-19844876D02*
X5121469Y-19835352D01*
X5121469Y-19835352D02*
X5140517Y-19825828D01*
X5292898Y-20025828D02*
X5292898Y-19892495D01*
X5292898Y-19911542D02*
X5302421Y-19902019D01*
X5302421Y-19902019D02*
X5321469Y-19892495D01*
X5321469Y-19892495D02*
X5350040Y-19892495D01*
X5350040Y-19892495D02*
X5369088Y-19902019D01*
X5369088Y-19902019D02*
X5378612Y-19921066D01*
X5378612Y-19921066D02*
X5378612Y-20025828D01*
X5378612Y-19921066D02*
X5388136Y-19902019D01*
X5388136Y-19902019D02*
X5407183Y-19892495D01*
X5407183Y-19892495D02*
X5435755Y-19892495D01*
X5435755Y-19892495D02*
X5454802Y-19902019D01*
X5454802Y-19902019D02*
X5464326Y-19921066D01*
X5464326Y-19921066D02*
X5464326Y-20025828D01*
X5559564Y-20025828D02*
X5559564Y-19892495D01*
X5559564Y-19911542D02*
X5569088Y-19902019D01*
X5569088Y-19902019D02*
X5588136Y-19892495D01*
X5588136Y-19892495D02*
X5616707Y-19892495D01*
X5616707Y-19892495D02*
X5635755Y-19902019D01*
X5635755Y-19902019D02*
X5645278Y-19921066D01*
X5645278Y-19921066D02*
X5645278Y-20025828D01*
X5645278Y-19921066D02*
X5654802Y-19902019D01*
X5654802Y-19902019D02*
X5673850Y-19892495D01*
X5673850Y-19892495D02*
X5702421Y-19892495D01*
X5702421Y-19892495D02*
X5721469Y-19902019D01*
X5721469Y-19902019D02*
X5730993Y-19921066D01*
X5730993Y-19921066D02*
X5730993Y-20025828D01*
X6121469Y-19816304D02*
X5950040Y-20073447D01*
X6378612Y-19825828D02*
X6397660Y-19825828D01*
X6397660Y-19825828D02*
X6416707Y-19835352D01*
X6416707Y-19835352D02*
X6426231Y-19844876D01*
X6426231Y-19844876D02*
X6435755Y-19863923D01*
X6435755Y-19863923D02*
X6445279Y-19902019D01*
X6445279Y-19902019D02*
X6445279Y-19949638D01*
X6445279Y-19949638D02*
X6435755Y-19987733D01*
X6435755Y-19987733D02*
X6426231Y-20006781D01*
X6426231Y-20006781D02*
X6416707Y-20016304D01*
X6416707Y-20016304D02*
X6397660Y-20025828D01*
X6397660Y-20025828D02*
X6378612Y-20025828D01*
X6378612Y-20025828D02*
X6359564Y-20016304D01*
X6359564Y-20016304D02*
X6350040Y-20006781D01*
X6350040Y-20006781D02*
X6340517Y-19987733D01*
X6340517Y-19987733D02*
X6330993Y-19949638D01*
X6330993Y-19949638D02*
X6330993Y-19902019D01*
X6330993Y-19902019D02*
X6340517Y-19863923D01*
X6340517Y-19863923D02*
X6350040Y-19844876D01*
X6350040Y-19844876D02*
X6359564Y-19835352D01*
X6359564Y-19835352D02*
X6378612Y-19825828D01*
X6530993Y-20006781D02*
X6540517Y-20016304D01*
X6540517Y-20016304D02*
X6530993Y-20025828D01*
X6530993Y-20025828D02*
X6521469Y-20016304D01*
X6521469Y-20016304D02*
X6530993Y-20006781D01*
X6530993Y-20006781D02*
X6530993Y-20025828D01*
X6664326Y-19825828D02*
X6683374Y-19825828D01*
X6683374Y-19825828D02*
X6702421Y-19835352D01*
X6702421Y-19835352D02*
X6711945Y-19844876D01*
X6711945Y-19844876D02*
X6721469Y-19863923D01*
X6721469Y-19863923D02*
X6730993Y-19902019D01*
X6730993Y-19902019D02*
X6730993Y-19949638D01*
X6730993Y-19949638D02*
X6721469Y-19987733D01*
X6721469Y-19987733D02*
X6711945Y-20006781D01*
X6711945Y-20006781D02*
X6702421Y-20016304D01*
X6702421Y-20016304D02*
X6683374Y-20025828D01*
X6683374Y-20025828D02*
X6664326Y-20025828D01*
X6664326Y-20025828D02*
X6645279Y-20016304D01*
X6645279Y-20016304D02*
X6635755Y-20006781D01*
X6635755Y-20006781D02*
X6626231Y-19987733D01*
X6626231Y-19987733D02*
X6616707Y-19949638D01*
X6616707Y-19949638D02*
X6616707Y-19902019D01*
X6616707Y-19902019D02*
X6626231Y-19863923D01*
X6626231Y-19863923D02*
X6635755Y-19844876D01*
X6635755Y-19844876D02*
X6645279Y-19835352D01*
X6645279Y-19835352D02*
X6664326Y-19825828D01*
X6797660Y-19825828D02*
X6921469Y-19825828D01*
X6921469Y-19825828D02*
X6854802Y-19902019D01*
X6854802Y-19902019D02*
X6883374Y-19902019D01*
X6883374Y-19902019D02*
X6902421Y-19911542D01*
X6902421Y-19911542D02*
X6911945Y-19921066D01*
X6911945Y-19921066D02*
X6921469Y-19940114D01*
X6921469Y-19940114D02*
X6921469Y-19987733D01*
X6921469Y-19987733D02*
X6911945Y-20006781D01*
X6911945Y-20006781D02*
X6902421Y-20016304D01*
X6902421Y-20016304D02*
X6883374Y-20025828D01*
X6883374Y-20025828D02*
X6826231Y-20025828D01*
X6826231Y-20025828D02*
X6807183Y-20016304D01*
X6807183Y-20016304D02*
X6797660Y-20006781D01*
X7111945Y-20025828D02*
X6997660Y-20025828D01*
X7054802Y-20025828D02*
X7054802Y-19825828D01*
X7054802Y-19825828D02*
X7035755Y-19854400D01*
X7035755Y-19854400D02*
X7016707Y-19873447D01*
X7016707Y-19873447D02*
X6997660Y-19882971D01*
X7292898Y-19825828D02*
X7197660Y-19825828D01*
X7197660Y-19825828D02*
X7188136Y-19921066D01*
X7188136Y-19921066D02*
X7197660Y-19911542D01*
X7197660Y-19911542D02*
X7216707Y-19902019D01*
X7216707Y-19902019D02*
X7264326Y-19902019D01*
X7264326Y-19902019D02*
X7283374Y-19911542D01*
X7283374Y-19911542D02*
X7292898Y-19921066D01*
X7292898Y-19921066D02*
X7302421Y-19940114D01*
X7302421Y-19940114D02*
X7302421Y-19987733D01*
X7302421Y-19987733D02*
X7292898Y-20006781D01*
X7292898Y-20006781D02*
X7283374Y-20016304D01*
X7283374Y-20016304D02*
X7264326Y-20025828D01*
X7264326Y-20025828D02*
X7216707Y-20025828D01*
X7216707Y-20025828D02*
X7197660Y-20016304D01*
X7197660Y-20016304D02*
X7188136Y-20006781D01*
X7378612Y-19825828D02*
X7378612Y-19863923D01*
X7454802Y-19825828D02*
X7454802Y-19863923D01*
X7750041Y-20102019D02*
X7740517Y-20092495D01*
X7740517Y-20092495D02*
X7721469Y-20063923D01*
X7721469Y-20063923D02*
X7711945Y-20044876D01*
X7711945Y-20044876D02*
X7702422Y-20016304D01*
X7702422Y-20016304D02*
X7692898Y-19968685D01*
X7692898Y-19968685D02*
X7692898Y-19930590D01*
X7692898Y-19930590D02*
X7702422Y-19882971D01*
X7702422Y-19882971D02*
X7711945Y-19854400D01*
X7711945Y-19854400D02*
X7721469Y-19835352D01*
X7721469Y-19835352D02*
X7740517Y-19806781D01*
X7740517Y-19806781D02*
X7750041Y-19797257D01*
X7930993Y-20025828D02*
X7816707Y-20025828D01*
X7873850Y-20025828D02*
X7873850Y-19825828D01*
X7873850Y-19825828D02*
X7854802Y-19854400D01*
X7854802Y-19854400D02*
X7835755Y-19873447D01*
X7835755Y-19873447D02*
X7816707Y-19882971D01*
X8102422Y-19892495D02*
X8102422Y-20025828D01*
X8054802Y-19816304D02*
X8007183Y-19959162D01*
X8007183Y-19959162D02*
X8130993Y-19959162D01*
X8359564Y-20025828D02*
X8359564Y-19825828D01*
X8445279Y-20025828D02*
X8445279Y-19921066D01*
X8445279Y-19921066D02*
X8435755Y-19902019D01*
X8435755Y-19902019D02*
X8416707Y-19892495D01*
X8416707Y-19892495D02*
X8388136Y-19892495D01*
X8388136Y-19892495D02*
X8369088Y-19902019D01*
X8369088Y-19902019D02*
X8359564Y-19911542D01*
X8569088Y-20025828D02*
X8550041Y-20016304D01*
X8550041Y-20016304D02*
X8540517Y-20006781D01*
X8540517Y-20006781D02*
X8530993Y-19987733D01*
X8530993Y-19987733D02*
X8530993Y-19930590D01*
X8530993Y-19930590D02*
X8540517Y-19911542D01*
X8540517Y-19911542D02*
X8550041Y-19902019D01*
X8550041Y-19902019D02*
X8569088Y-19892495D01*
X8569088Y-19892495D02*
X8597660Y-19892495D01*
X8597660Y-19892495D02*
X8616707Y-19902019D01*
X8616707Y-19902019D02*
X8626231Y-19911542D01*
X8626231Y-19911542D02*
X8635755Y-19930590D01*
X8635755Y-19930590D02*
X8635755Y-19987733D01*
X8635755Y-19987733D02*
X8626231Y-20006781D01*
X8626231Y-20006781D02*
X8616707Y-20016304D01*
X8616707Y-20016304D02*
X8597660Y-20025828D01*
X8597660Y-20025828D02*
X8569088Y-20025828D01*
X8750041Y-20025828D02*
X8730993Y-20016304D01*
X8730993Y-20016304D02*
X8721469Y-19997257D01*
X8721469Y-19997257D02*
X8721469Y-19825828D01*
X8902422Y-20016304D02*
X8883374Y-20025828D01*
X8883374Y-20025828D02*
X8845279Y-20025828D01*
X8845279Y-20025828D02*
X8826231Y-20016304D01*
X8826231Y-20016304D02*
X8816707Y-19997257D01*
X8816707Y-19997257D02*
X8816707Y-19921066D01*
X8816707Y-19921066D02*
X8826231Y-19902019D01*
X8826231Y-19902019D02*
X8845279Y-19892495D01*
X8845279Y-19892495D02*
X8883374Y-19892495D01*
X8883374Y-19892495D02*
X8902422Y-19902019D01*
X8902422Y-19902019D02*
X8911946Y-19921066D01*
X8911946Y-19921066D02*
X8911946Y-19940114D01*
X8911946Y-19940114D02*
X8816707Y-19959162D01*
X8988136Y-20016304D02*
X9007184Y-20025828D01*
X9007184Y-20025828D02*
X9045279Y-20025828D01*
X9045279Y-20025828D02*
X9064327Y-20016304D01*
X9064327Y-20016304D02*
X9073850Y-19997257D01*
X9073850Y-19997257D02*
X9073850Y-19987733D01*
X9073850Y-19987733D02*
X9064327Y-19968685D01*
X9064327Y-19968685D02*
X9045279Y-19959162D01*
X9045279Y-19959162D02*
X9016707Y-19959162D01*
X9016707Y-19959162D02*
X8997660Y-19949638D01*
X8997660Y-19949638D02*
X8988136Y-19930590D01*
X8988136Y-19930590D02*
X8988136Y-19921066D01*
X8988136Y-19921066D02*
X8997660Y-19902019D01*
X8997660Y-19902019D02*
X9016707Y-19892495D01*
X9016707Y-19892495D02*
X9045279Y-19892495D01*
X9045279Y-19892495D02*
X9064327Y-19902019D01*
X9140517Y-20102019D02*
X9150041Y-20092495D01*
X9150041Y-20092495D02*
X9169088Y-20063923D01*
X9169088Y-20063923D02*
X9178612Y-20044876D01*
X9178612Y-20044876D02*
X9188136Y-20016304D01*
X9188136Y-20016304D02*
X9197660Y-19968685D01*
X9197660Y-19968685D02*
X9197660Y-19930590D01*
X9197660Y-19930590D02*
X9188136Y-19882971D01*
X9188136Y-19882971D02*
X9178612Y-19854400D01*
X9178612Y-19854400D02*
X9169088Y-19835352D01*
X9169088Y-19835352D02*
X9150041Y-19806781D01*
X9150041Y-19806781D02*
X9140517Y-19797257D01*
D12*
X4129978Y-20153344D02*
X4129978Y-20243344D01*
X4084978Y-20198344D02*
X4174978Y-20198344D01*
D11*
X4473850Y-20089828D02*
X4492898Y-20089828D01*
X4492898Y-20089828D02*
X4511945Y-20099352D01*
X4511945Y-20099352D02*
X4521469Y-20108876D01*
X4521469Y-20108876D02*
X4530993Y-20127923D01*
X4530993Y-20127923D02*
X4540517Y-20166019D01*
X4540517Y-20166019D02*
X4540517Y-20213638D01*
X4540517Y-20213638D02*
X4530993Y-20251733D01*
X4530993Y-20251733D02*
X4521469Y-20270781D01*
X4521469Y-20270781D02*
X4511945Y-20280304D01*
X4511945Y-20280304D02*
X4492898Y-20289828D01*
X4492898Y-20289828D02*
X4473850Y-20289828D01*
X4473850Y-20289828D02*
X4454802Y-20280304D01*
X4454802Y-20280304D02*
X4445278Y-20270781D01*
X4445278Y-20270781D02*
X4435755Y-20251733D01*
X4435755Y-20251733D02*
X4426231Y-20213638D01*
X4426231Y-20213638D02*
X4426231Y-20166019D01*
X4426231Y-20166019D02*
X4435755Y-20127923D01*
X4435755Y-20127923D02*
X4445278Y-20108876D01*
X4445278Y-20108876D02*
X4454802Y-20099352D01*
X4454802Y-20099352D02*
X4473850Y-20089828D01*
X4626231Y-20270781D02*
X4635755Y-20280304D01*
X4635755Y-20280304D02*
X4626231Y-20289828D01*
X4626231Y-20289828D02*
X4616707Y-20280304D01*
X4616707Y-20280304D02*
X4626231Y-20270781D01*
X4626231Y-20270781D02*
X4626231Y-20289828D01*
X4730993Y-20289828D02*
X4769088Y-20289828D01*
X4769088Y-20289828D02*
X4788136Y-20280304D01*
X4788136Y-20280304D02*
X4797659Y-20270781D01*
X4797659Y-20270781D02*
X4816707Y-20242209D01*
X4816707Y-20242209D02*
X4826231Y-20204114D01*
X4826231Y-20204114D02*
X4826231Y-20127923D01*
X4826231Y-20127923D02*
X4816707Y-20108876D01*
X4816707Y-20108876D02*
X4807183Y-20099352D01*
X4807183Y-20099352D02*
X4788136Y-20089828D01*
X4788136Y-20089828D02*
X4750040Y-20089828D01*
X4750040Y-20089828D02*
X4730993Y-20099352D01*
X4730993Y-20099352D02*
X4721469Y-20108876D01*
X4721469Y-20108876D02*
X4711945Y-20127923D01*
X4711945Y-20127923D02*
X4711945Y-20175542D01*
X4711945Y-20175542D02*
X4721469Y-20194590D01*
X4721469Y-20194590D02*
X4730993Y-20204114D01*
X4730993Y-20204114D02*
X4750040Y-20213638D01*
X4750040Y-20213638D02*
X4788136Y-20213638D01*
X4788136Y-20213638D02*
X4807183Y-20204114D01*
X4807183Y-20204114D02*
X4816707Y-20194590D01*
X4816707Y-20194590D02*
X4826231Y-20175542D01*
X4950040Y-20089828D02*
X4969088Y-20089828D01*
X4969088Y-20089828D02*
X4988136Y-20099352D01*
X4988136Y-20099352D02*
X4997659Y-20108876D01*
X4997659Y-20108876D02*
X5007183Y-20127923D01*
X5007183Y-20127923D02*
X5016707Y-20166019D01*
X5016707Y-20166019D02*
X5016707Y-20213638D01*
X5016707Y-20213638D02*
X5007183Y-20251733D01*
X5007183Y-20251733D02*
X4997659Y-20270781D01*
X4997659Y-20270781D02*
X4988136Y-20280304D01*
X4988136Y-20280304D02*
X4969088Y-20289828D01*
X4969088Y-20289828D02*
X4950040Y-20289828D01*
X4950040Y-20289828D02*
X4930993Y-20280304D01*
X4930993Y-20280304D02*
X4921469Y-20270781D01*
X4921469Y-20270781D02*
X4911945Y-20251733D01*
X4911945Y-20251733D02*
X4902421Y-20213638D01*
X4902421Y-20213638D02*
X4902421Y-20166019D01*
X4902421Y-20166019D02*
X4911945Y-20127923D01*
X4911945Y-20127923D02*
X4921469Y-20108876D01*
X4921469Y-20108876D02*
X4930993Y-20099352D01*
X4930993Y-20099352D02*
X4950040Y-20089828D01*
X5140517Y-20089828D02*
X5159564Y-20089828D01*
X5159564Y-20089828D02*
X5178612Y-20099352D01*
X5178612Y-20099352D02*
X5188136Y-20108876D01*
X5188136Y-20108876D02*
X5197659Y-20127923D01*
X5197659Y-20127923D02*
X5207183Y-20166019D01*
X5207183Y-20166019D02*
X5207183Y-20213638D01*
X5207183Y-20213638D02*
X5197659Y-20251733D01*
X5197659Y-20251733D02*
X5188136Y-20270781D01*
X5188136Y-20270781D02*
X5178612Y-20280304D01*
X5178612Y-20280304D02*
X5159564Y-20289828D01*
X5159564Y-20289828D02*
X5140517Y-20289828D01*
X5140517Y-20289828D02*
X5121469Y-20280304D01*
X5121469Y-20280304D02*
X5111945Y-20270781D01*
X5111945Y-20270781D02*
X5102421Y-20251733D01*
X5102421Y-20251733D02*
X5092898Y-20213638D01*
X5092898Y-20213638D02*
X5092898Y-20166019D01*
X5092898Y-20166019D02*
X5102421Y-20127923D01*
X5102421Y-20127923D02*
X5111945Y-20108876D01*
X5111945Y-20108876D02*
X5121469Y-20099352D01*
X5121469Y-20099352D02*
X5140517Y-20089828D01*
X5292898Y-20289828D02*
X5292898Y-20156495D01*
X5292898Y-20175542D02*
X5302421Y-20166019D01*
X5302421Y-20166019D02*
X5321469Y-20156495D01*
X5321469Y-20156495D02*
X5350040Y-20156495D01*
X5350040Y-20156495D02*
X5369088Y-20166019D01*
X5369088Y-20166019D02*
X5378612Y-20185066D01*
X5378612Y-20185066D02*
X5378612Y-20289828D01*
X5378612Y-20185066D02*
X5388136Y-20166019D01*
X5388136Y-20166019D02*
X5407183Y-20156495D01*
X5407183Y-20156495D02*
X5435755Y-20156495D01*
X5435755Y-20156495D02*
X5454802Y-20166019D01*
X5454802Y-20166019D02*
X5464326Y-20185066D01*
X5464326Y-20185066D02*
X5464326Y-20289828D01*
X5559564Y-20289828D02*
X5559564Y-20156495D01*
X5559564Y-20175542D02*
X5569088Y-20166019D01*
X5569088Y-20166019D02*
X5588136Y-20156495D01*
X5588136Y-20156495D02*
X5616707Y-20156495D01*
X5616707Y-20156495D02*
X5635755Y-20166019D01*
X5635755Y-20166019D02*
X5645278Y-20185066D01*
X5645278Y-20185066D02*
X5645278Y-20289828D01*
X5645278Y-20185066D02*
X5654802Y-20166019D01*
X5654802Y-20166019D02*
X5673850Y-20156495D01*
X5673850Y-20156495D02*
X5702421Y-20156495D01*
X5702421Y-20156495D02*
X5721469Y-20166019D01*
X5721469Y-20166019D02*
X5730993Y-20185066D01*
X5730993Y-20185066D02*
X5730993Y-20289828D01*
X6121469Y-20080304D02*
X5950040Y-20337447D01*
X6378612Y-20089828D02*
X6397660Y-20089828D01*
X6397660Y-20089828D02*
X6416707Y-20099352D01*
X6416707Y-20099352D02*
X6426231Y-20108876D01*
X6426231Y-20108876D02*
X6435755Y-20127923D01*
X6435755Y-20127923D02*
X6445279Y-20166019D01*
X6445279Y-20166019D02*
X6445279Y-20213638D01*
X6445279Y-20213638D02*
X6435755Y-20251733D01*
X6435755Y-20251733D02*
X6426231Y-20270781D01*
X6426231Y-20270781D02*
X6416707Y-20280304D01*
X6416707Y-20280304D02*
X6397660Y-20289828D01*
X6397660Y-20289828D02*
X6378612Y-20289828D01*
X6378612Y-20289828D02*
X6359564Y-20280304D01*
X6359564Y-20280304D02*
X6350040Y-20270781D01*
X6350040Y-20270781D02*
X6340517Y-20251733D01*
X6340517Y-20251733D02*
X6330993Y-20213638D01*
X6330993Y-20213638D02*
X6330993Y-20166019D01*
X6330993Y-20166019D02*
X6340517Y-20127923D01*
X6340517Y-20127923D02*
X6350040Y-20108876D01*
X6350040Y-20108876D02*
X6359564Y-20099352D01*
X6359564Y-20099352D02*
X6378612Y-20089828D01*
X6530993Y-20270781D02*
X6540517Y-20280304D01*
X6540517Y-20280304D02*
X6530993Y-20289828D01*
X6530993Y-20289828D02*
X6521469Y-20280304D01*
X6521469Y-20280304D02*
X6530993Y-20270781D01*
X6530993Y-20270781D02*
X6530993Y-20289828D01*
X6664326Y-20089828D02*
X6683374Y-20089828D01*
X6683374Y-20089828D02*
X6702421Y-20099352D01*
X6702421Y-20099352D02*
X6711945Y-20108876D01*
X6711945Y-20108876D02*
X6721469Y-20127923D01*
X6721469Y-20127923D02*
X6730993Y-20166019D01*
X6730993Y-20166019D02*
X6730993Y-20213638D01*
X6730993Y-20213638D02*
X6721469Y-20251733D01*
X6721469Y-20251733D02*
X6711945Y-20270781D01*
X6711945Y-20270781D02*
X6702421Y-20280304D01*
X6702421Y-20280304D02*
X6683374Y-20289828D01*
X6683374Y-20289828D02*
X6664326Y-20289828D01*
X6664326Y-20289828D02*
X6645279Y-20280304D01*
X6645279Y-20280304D02*
X6635755Y-20270781D01*
X6635755Y-20270781D02*
X6626231Y-20251733D01*
X6626231Y-20251733D02*
X6616707Y-20213638D01*
X6616707Y-20213638D02*
X6616707Y-20166019D01*
X6616707Y-20166019D02*
X6626231Y-20127923D01*
X6626231Y-20127923D02*
X6635755Y-20108876D01*
X6635755Y-20108876D02*
X6645279Y-20099352D01*
X6645279Y-20099352D02*
X6664326Y-20089828D01*
X6797660Y-20089828D02*
X6921469Y-20089828D01*
X6921469Y-20089828D02*
X6854802Y-20166019D01*
X6854802Y-20166019D02*
X6883374Y-20166019D01*
X6883374Y-20166019D02*
X6902421Y-20175542D01*
X6902421Y-20175542D02*
X6911945Y-20185066D01*
X6911945Y-20185066D02*
X6921469Y-20204114D01*
X6921469Y-20204114D02*
X6921469Y-20251733D01*
X6921469Y-20251733D02*
X6911945Y-20270781D01*
X6911945Y-20270781D02*
X6902421Y-20280304D01*
X6902421Y-20280304D02*
X6883374Y-20289828D01*
X6883374Y-20289828D02*
X6826231Y-20289828D01*
X6826231Y-20289828D02*
X6807183Y-20280304D01*
X6807183Y-20280304D02*
X6797660Y-20270781D01*
X7102421Y-20089828D02*
X7007183Y-20089828D01*
X7007183Y-20089828D02*
X6997660Y-20185066D01*
X6997660Y-20185066D02*
X7007183Y-20175542D01*
X7007183Y-20175542D02*
X7026231Y-20166019D01*
X7026231Y-20166019D02*
X7073850Y-20166019D01*
X7073850Y-20166019D02*
X7092898Y-20175542D01*
X7092898Y-20175542D02*
X7102421Y-20185066D01*
X7102421Y-20185066D02*
X7111945Y-20204114D01*
X7111945Y-20204114D02*
X7111945Y-20251733D01*
X7111945Y-20251733D02*
X7102421Y-20270781D01*
X7102421Y-20270781D02*
X7092898Y-20280304D01*
X7092898Y-20280304D02*
X7073850Y-20289828D01*
X7073850Y-20289828D02*
X7026231Y-20289828D01*
X7026231Y-20289828D02*
X7007183Y-20280304D01*
X7007183Y-20280304D02*
X6997660Y-20270781D01*
X7283374Y-20156495D02*
X7283374Y-20289828D01*
X7235755Y-20080304D02*
X7188136Y-20223162D01*
X7188136Y-20223162D02*
X7311945Y-20223162D01*
X7378612Y-20089828D02*
X7378612Y-20127923D01*
X7454802Y-20089828D02*
X7454802Y-20127923D01*
X7750041Y-20366019D02*
X7740517Y-20356495D01*
X7740517Y-20356495D02*
X7721469Y-20327923D01*
X7721469Y-20327923D02*
X7711945Y-20308876D01*
X7711945Y-20308876D02*
X7702422Y-20280304D01*
X7702422Y-20280304D02*
X7692898Y-20232685D01*
X7692898Y-20232685D02*
X7692898Y-20194590D01*
X7692898Y-20194590D02*
X7702422Y-20146971D01*
X7702422Y-20146971D02*
X7711945Y-20118400D01*
X7711945Y-20118400D02*
X7721469Y-20099352D01*
X7721469Y-20099352D02*
X7740517Y-20070781D01*
X7740517Y-20070781D02*
X7750041Y-20061257D01*
X7930993Y-20289828D02*
X7816707Y-20289828D01*
X7873850Y-20289828D02*
X7873850Y-20089828D01*
X7873850Y-20089828D02*
X7854802Y-20118400D01*
X7854802Y-20118400D02*
X7835755Y-20137447D01*
X7835755Y-20137447D02*
X7816707Y-20146971D01*
X8007183Y-20108876D02*
X8016707Y-20099352D01*
X8016707Y-20099352D02*
X8035755Y-20089828D01*
X8035755Y-20089828D02*
X8083374Y-20089828D01*
X8083374Y-20089828D02*
X8102422Y-20099352D01*
X8102422Y-20099352D02*
X8111945Y-20108876D01*
X8111945Y-20108876D02*
X8121469Y-20127923D01*
X8121469Y-20127923D02*
X8121469Y-20146971D01*
X8121469Y-20146971D02*
X8111945Y-20175542D01*
X8111945Y-20175542D02*
X7997660Y-20289828D01*
X7997660Y-20289828D02*
X8121469Y-20289828D01*
X8359564Y-20289828D02*
X8359564Y-20089828D01*
X8445279Y-20289828D02*
X8445279Y-20185066D01*
X8445279Y-20185066D02*
X8435755Y-20166019D01*
X8435755Y-20166019D02*
X8416707Y-20156495D01*
X8416707Y-20156495D02*
X8388136Y-20156495D01*
X8388136Y-20156495D02*
X8369088Y-20166019D01*
X8369088Y-20166019D02*
X8359564Y-20175542D01*
X8569088Y-20289828D02*
X8550041Y-20280304D01*
X8550041Y-20280304D02*
X8540517Y-20270781D01*
X8540517Y-20270781D02*
X8530993Y-20251733D01*
X8530993Y-20251733D02*
X8530993Y-20194590D01*
X8530993Y-20194590D02*
X8540517Y-20175542D01*
X8540517Y-20175542D02*
X8550041Y-20166019D01*
X8550041Y-20166019D02*
X8569088Y-20156495D01*
X8569088Y-20156495D02*
X8597660Y-20156495D01*
X8597660Y-20156495D02*
X8616707Y-20166019D01*
X8616707Y-20166019D02*
X8626231Y-20175542D01*
X8626231Y-20175542D02*
X8635755Y-20194590D01*
X8635755Y-20194590D02*
X8635755Y-20251733D01*
X8635755Y-20251733D02*
X8626231Y-20270781D01*
X8626231Y-20270781D02*
X8616707Y-20280304D01*
X8616707Y-20280304D02*
X8597660Y-20289828D01*
X8597660Y-20289828D02*
X8569088Y-20289828D01*
X8750041Y-20289828D02*
X8730993Y-20280304D01*
X8730993Y-20280304D02*
X8721469Y-20261257D01*
X8721469Y-20261257D02*
X8721469Y-20089828D01*
X8902422Y-20280304D02*
X8883374Y-20289828D01*
X8883374Y-20289828D02*
X8845279Y-20289828D01*
X8845279Y-20289828D02*
X8826231Y-20280304D01*
X8826231Y-20280304D02*
X8816707Y-20261257D01*
X8816707Y-20261257D02*
X8816707Y-20185066D01*
X8816707Y-20185066D02*
X8826231Y-20166019D01*
X8826231Y-20166019D02*
X8845279Y-20156495D01*
X8845279Y-20156495D02*
X8883374Y-20156495D01*
X8883374Y-20156495D02*
X8902422Y-20166019D01*
X8902422Y-20166019D02*
X8911946Y-20185066D01*
X8911946Y-20185066D02*
X8911946Y-20204114D01*
X8911946Y-20204114D02*
X8816707Y-20223162D01*
X8988136Y-20280304D02*
X9007184Y-20289828D01*
X9007184Y-20289828D02*
X9045279Y-20289828D01*
X9045279Y-20289828D02*
X9064327Y-20280304D01*
X9064327Y-20280304D02*
X9073850Y-20261257D01*
X9073850Y-20261257D02*
X9073850Y-20251733D01*
X9073850Y-20251733D02*
X9064327Y-20232685D01*
X9064327Y-20232685D02*
X9045279Y-20223162D01*
X9045279Y-20223162D02*
X9016707Y-20223162D01*
X9016707Y-20223162D02*
X8997660Y-20213638D01*
X8997660Y-20213638D02*
X8988136Y-20194590D01*
X8988136Y-20194590D02*
X8988136Y-20185066D01*
X8988136Y-20185066D02*
X8997660Y-20166019D01*
X8997660Y-20166019D02*
X9016707Y-20156495D01*
X9016707Y-20156495D02*
X9045279Y-20156495D01*
X9045279Y-20156495D02*
X9064327Y-20166019D01*
X9140517Y-20366019D02*
X9150041Y-20356495D01*
X9150041Y-20356495D02*
X9169088Y-20327923D01*
X9169088Y-20327923D02*
X9178612Y-20308876D01*
X9178612Y-20308876D02*
X9188136Y-20280304D01*
X9188136Y-20280304D02*
X9197660Y-20232685D01*
X9197660Y-20232685D02*
X9197660Y-20194590D01*
X9197660Y-20194590D02*
X9188136Y-20146971D01*
X9188136Y-20146971D02*
X9178612Y-20118400D01*
X9178612Y-20118400D02*
X9169088Y-20099352D01*
X9169088Y-20099352D02*
X9150041Y-20070781D01*
X9150041Y-20070781D02*
X9140517Y-20061257D01*
D12*
X4160333Y-20497700D02*
X4160333Y-20426989D01*
X4089622Y-20426989D01*
X4089622Y-20497700D01*
X4160333Y-20497700D01*
D11*
X4540517Y-20553828D02*
X4426231Y-20553828D01*
X4483374Y-20553828D02*
X4483374Y-20353828D01*
X4483374Y-20353828D02*
X4464326Y-20382400D01*
X4464326Y-20382400D02*
X4445278Y-20401447D01*
X4445278Y-20401447D02*
X4426231Y-20410971D01*
X4626231Y-20534781D02*
X4635755Y-20544304D01*
X4635755Y-20544304D02*
X4626231Y-20553828D01*
X4626231Y-20553828D02*
X4616707Y-20544304D01*
X4616707Y-20544304D02*
X4626231Y-20534781D01*
X4626231Y-20534781D02*
X4626231Y-20553828D01*
X4759564Y-20353828D02*
X4778612Y-20353828D01*
X4778612Y-20353828D02*
X4797659Y-20363352D01*
X4797659Y-20363352D02*
X4807183Y-20372876D01*
X4807183Y-20372876D02*
X4816707Y-20391923D01*
X4816707Y-20391923D02*
X4826231Y-20430019D01*
X4826231Y-20430019D02*
X4826231Y-20477638D01*
X4826231Y-20477638D02*
X4816707Y-20515733D01*
X4816707Y-20515733D02*
X4807183Y-20534781D01*
X4807183Y-20534781D02*
X4797659Y-20544304D01*
X4797659Y-20544304D02*
X4778612Y-20553828D01*
X4778612Y-20553828D02*
X4759564Y-20553828D01*
X4759564Y-20553828D02*
X4740517Y-20544304D01*
X4740517Y-20544304D02*
X4730993Y-20534781D01*
X4730993Y-20534781D02*
X4721469Y-20515733D01*
X4721469Y-20515733D02*
X4711945Y-20477638D01*
X4711945Y-20477638D02*
X4711945Y-20430019D01*
X4711945Y-20430019D02*
X4721469Y-20391923D01*
X4721469Y-20391923D02*
X4730993Y-20372876D01*
X4730993Y-20372876D02*
X4740517Y-20363352D01*
X4740517Y-20363352D02*
X4759564Y-20353828D01*
X4950040Y-20353828D02*
X4969088Y-20353828D01*
X4969088Y-20353828D02*
X4988136Y-20363352D01*
X4988136Y-20363352D02*
X4997659Y-20372876D01*
X4997659Y-20372876D02*
X5007183Y-20391923D01*
X5007183Y-20391923D02*
X5016707Y-20430019D01*
X5016707Y-20430019D02*
X5016707Y-20477638D01*
X5016707Y-20477638D02*
X5007183Y-20515733D01*
X5007183Y-20515733D02*
X4997659Y-20534781D01*
X4997659Y-20534781D02*
X4988136Y-20544304D01*
X4988136Y-20544304D02*
X4969088Y-20553828D01*
X4969088Y-20553828D02*
X4950040Y-20553828D01*
X4950040Y-20553828D02*
X4930993Y-20544304D01*
X4930993Y-20544304D02*
X4921469Y-20534781D01*
X4921469Y-20534781D02*
X4911945Y-20515733D01*
X4911945Y-20515733D02*
X4902421Y-20477638D01*
X4902421Y-20477638D02*
X4902421Y-20430019D01*
X4902421Y-20430019D02*
X4911945Y-20391923D01*
X4911945Y-20391923D02*
X4921469Y-20372876D01*
X4921469Y-20372876D02*
X4930993Y-20363352D01*
X4930993Y-20363352D02*
X4950040Y-20353828D01*
X5140517Y-20353828D02*
X5159564Y-20353828D01*
X5159564Y-20353828D02*
X5178612Y-20363352D01*
X5178612Y-20363352D02*
X5188136Y-20372876D01*
X5188136Y-20372876D02*
X5197659Y-20391923D01*
X5197659Y-20391923D02*
X5207183Y-20430019D01*
X5207183Y-20430019D02*
X5207183Y-20477638D01*
X5207183Y-20477638D02*
X5197659Y-20515733D01*
X5197659Y-20515733D02*
X5188136Y-20534781D01*
X5188136Y-20534781D02*
X5178612Y-20544304D01*
X5178612Y-20544304D02*
X5159564Y-20553828D01*
X5159564Y-20553828D02*
X5140517Y-20553828D01*
X5140517Y-20553828D02*
X5121469Y-20544304D01*
X5121469Y-20544304D02*
X5111945Y-20534781D01*
X5111945Y-20534781D02*
X5102421Y-20515733D01*
X5102421Y-20515733D02*
X5092898Y-20477638D01*
X5092898Y-20477638D02*
X5092898Y-20430019D01*
X5092898Y-20430019D02*
X5102421Y-20391923D01*
X5102421Y-20391923D02*
X5111945Y-20372876D01*
X5111945Y-20372876D02*
X5121469Y-20363352D01*
X5121469Y-20363352D02*
X5140517Y-20353828D01*
X5292898Y-20553828D02*
X5292898Y-20420495D01*
X5292898Y-20439542D02*
X5302421Y-20430019D01*
X5302421Y-20430019D02*
X5321469Y-20420495D01*
X5321469Y-20420495D02*
X5350040Y-20420495D01*
X5350040Y-20420495D02*
X5369088Y-20430019D01*
X5369088Y-20430019D02*
X5378612Y-20449066D01*
X5378612Y-20449066D02*
X5378612Y-20553828D01*
X5378612Y-20449066D02*
X5388136Y-20430019D01*
X5388136Y-20430019D02*
X5407183Y-20420495D01*
X5407183Y-20420495D02*
X5435755Y-20420495D01*
X5435755Y-20420495D02*
X5454802Y-20430019D01*
X5454802Y-20430019D02*
X5464326Y-20449066D01*
X5464326Y-20449066D02*
X5464326Y-20553828D01*
X5559564Y-20553828D02*
X5559564Y-20420495D01*
X5559564Y-20439542D02*
X5569088Y-20430019D01*
X5569088Y-20430019D02*
X5588136Y-20420495D01*
X5588136Y-20420495D02*
X5616707Y-20420495D01*
X5616707Y-20420495D02*
X5635755Y-20430019D01*
X5635755Y-20430019D02*
X5645278Y-20449066D01*
X5645278Y-20449066D02*
X5645278Y-20553828D01*
X5645278Y-20449066D02*
X5654802Y-20430019D01*
X5654802Y-20430019D02*
X5673850Y-20420495D01*
X5673850Y-20420495D02*
X5702421Y-20420495D01*
X5702421Y-20420495D02*
X5721469Y-20430019D01*
X5721469Y-20430019D02*
X5730993Y-20449066D01*
X5730993Y-20449066D02*
X5730993Y-20553828D01*
X6121469Y-20344304D02*
X5950040Y-20601447D01*
X6378612Y-20353828D02*
X6397660Y-20353828D01*
X6397660Y-20353828D02*
X6416707Y-20363352D01*
X6416707Y-20363352D02*
X6426231Y-20372876D01*
X6426231Y-20372876D02*
X6435755Y-20391923D01*
X6435755Y-20391923D02*
X6445279Y-20430019D01*
X6445279Y-20430019D02*
X6445279Y-20477638D01*
X6445279Y-20477638D02*
X6435755Y-20515733D01*
X6435755Y-20515733D02*
X6426231Y-20534781D01*
X6426231Y-20534781D02*
X6416707Y-20544304D01*
X6416707Y-20544304D02*
X6397660Y-20553828D01*
X6397660Y-20553828D02*
X6378612Y-20553828D01*
X6378612Y-20553828D02*
X6359564Y-20544304D01*
X6359564Y-20544304D02*
X6350040Y-20534781D01*
X6350040Y-20534781D02*
X6340517Y-20515733D01*
X6340517Y-20515733D02*
X6330993Y-20477638D01*
X6330993Y-20477638D02*
X6330993Y-20430019D01*
X6330993Y-20430019D02*
X6340517Y-20391923D01*
X6340517Y-20391923D02*
X6350040Y-20372876D01*
X6350040Y-20372876D02*
X6359564Y-20363352D01*
X6359564Y-20363352D02*
X6378612Y-20353828D01*
X6530993Y-20534781D02*
X6540517Y-20544304D01*
X6540517Y-20544304D02*
X6530993Y-20553828D01*
X6530993Y-20553828D02*
X6521469Y-20544304D01*
X6521469Y-20544304D02*
X6530993Y-20534781D01*
X6530993Y-20534781D02*
X6530993Y-20553828D01*
X6664326Y-20353828D02*
X6683374Y-20353828D01*
X6683374Y-20353828D02*
X6702421Y-20363352D01*
X6702421Y-20363352D02*
X6711945Y-20372876D01*
X6711945Y-20372876D02*
X6721469Y-20391923D01*
X6721469Y-20391923D02*
X6730993Y-20430019D01*
X6730993Y-20430019D02*
X6730993Y-20477638D01*
X6730993Y-20477638D02*
X6721469Y-20515733D01*
X6721469Y-20515733D02*
X6711945Y-20534781D01*
X6711945Y-20534781D02*
X6702421Y-20544304D01*
X6702421Y-20544304D02*
X6683374Y-20553828D01*
X6683374Y-20553828D02*
X6664326Y-20553828D01*
X6664326Y-20553828D02*
X6645279Y-20544304D01*
X6645279Y-20544304D02*
X6635755Y-20534781D01*
X6635755Y-20534781D02*
X6626231Y-20515733D01*
X6626231Y-20515733D02*
X6616707Y-20477638D01*
X6616707Y-20477638D02*
X6616707Y-20430019D01*
X6616707Y-20430019D02*
X6626231Y-20391923D01*
X6626231Y-20391923D02*
X6635755Y-20372876D01*
X6635755Y-20372876D02*
X6645279Y-20363352D01*
X6645279Y-20363352D02*
X6664326Y-20353828D01*
X6797660Y-20353828D02*
X6921469Y-20353828D01*
X6921469Y-20353828D02*
X6854802Y-20430019D01*
X6854802Y-20430019D02*
X6883374Y-20430019D01*
X6883374Y-20430019D02*
X6902421Y-20439542D01*
X6902421Y-20439542D02*
X6911945Y-20449066D01*
X6911945Y-20449066D02*
X6921469Y-20468114D01*
X6921469Y-20468114D02*
X6921469Y-20515733D01*
X6921469Y-20515733D02*
X6911945Y-20534781D01*
X6911945Y-20534781D02*
X6902421Y-20544304D01*
X6902421Y-20544304D02*
X6883374Y-20553828D01*
X6883374Y-20553828D02*
X6826231Y-20553828D01*
X6826231Y-20553828D02*
X6807183Y-20544304D01*
X6807183Y-20544304D02*
X6797660Y-20534781D01*
X7016707Y-20553828D02*
X7054802Y-20553828D01*
X7054802Y-20553828D02*
X7073850Y-20544304D01*
X7073850Y-20544304D02*
X7083374Y-20534781D01*
X7083374Y-20534781D02*
X7102421Y-20506209D01*
X7102421Y-20506209D02*
X7111945Y-20468114D01*
X7111945Y-20468114D02*
X7111945Y-20391923D01*
X7111945Y-20391923D02*
X7102421Y-20372876D01*
X7102421Y-20372876D02*
X7092898Y-20363352D01*
X7092898Y-20363352D02*
X7073850Y-20353828D01*
X7073850Y-20353828D02*
X7035755Y-20353828D01*
X7035755Y-20353828D02*
X7016707Y-20363352D01*
X7016707Y-20363352D02*
X7007183Y-20372876D01*
X7007183Y-20372876D02*
X6997660Y-20391923D01*
X6997660Y-20391923D02*
X6997660Y-20439542D01*
X6997660Y-20439542D02*
X7007183Y-20458590D01*
X7007183Y-20458590D02*
X7016707Y-20468114D01*
X7016707Y-20468114D02*
X7035755Y-20477638D01*
X7035755Y-20477638D02*
X7073850Y-20477638D01*
X7073850Y-20477638D02*
X7092898Y-20468114D01*
X7092898Y-20468114D02*
X7102421Y-20458590D01*
X7102421Y-20458590D02*
X7111945Y-20439542D01*
X7283374Y-20420495D02*
X7283374Y-20553828D01*
X7235755Y-20344304D02*
X7188136Y-20487162D01*
X7188136Y-20487162D02*
X7311945Y-20487162D01*
X7378612Y-20353828D02*
X7378612Y-20391923D01*
X7454802Y-20353828D02*
X7454802Y-20391923D01*
X7750041Y-20630019D02*
X7740517Y-20620495D01*
X7740517Y-20620495D02*
X7721469Y-20591923D01*
X7721469Y-20591923D02*
X7711945Y-20572876D01*
X7711945Y-20572876D02*
X7702422Y-20544304D01*
X7702422Y-20544304D02*
X7692898Y-20496685D01*
X7692898Y-20496685D02*
X7692898Y-20458590D01*
X7692898Y-20458590D02*
X7702422Y-20410971D01*
X7702422Y-20410971D02*
X7711945Y-20382400D01*
X7711945Y-20382400D02*
X7721469Y-20363352D01*
X7721469Y-20363352D02*
X7740517Y-20334781D01*
X7740517Y-20334781D02*
X7750041Y-20325257D01*
X7807183Y-20353828D02*
X7940517Y-20353828D01*
X7940517Y-20353828D02*
X7854802Y-20553828D01*
X8102422Y-20353828D02*
X8064326Y-20353828D01*
X8064326Y-20353828D02*
X8045279Y-20363352D01*
X8045279Y-20363352D02*
X8035755Y-20372876D01*
X8035755Y-20372876D02*
X8016707Y-20401447D01*
X8016707Y-20401447D02*
X8007183Y-20439542D01*
X8007183Y-20439542D02*
X8007183Y-20515733D01*
X8007183Y-20515733D02*
X8016707Y-20534781D01*
X8016707Y-20534781D02*
X8026231Y-20544304D01*
X8026231Y-20544304D02*
X8045279Y-20553828D01*
X8045279Y-20553828D02*
X8083374Y-20553828D01*
X8083374Y-20553828D02*
X8102422Y-20544304D01*
X8102422Y-20544304D02*
X8111945Y-20534781D01*
X8111945Y-20534781D02*
X8121469Y-20515733D01*
X8121469Y-20515733D02*
X8121469Y-20468114D01*
X8121469Y-20468114D02*
X8111945Y-20449066D01*
X8111945Y-20449066D02*
X8102422Y-20439542D01*
X8102422Y-20439542D02*
X8083374Y-20430019D01*
X8083374Y-20430019D02*
X8045279Y-20430019D01*
X8045279Y-20430019D02*
X8026231Y-20439542D01*
X8026231Y-20439542D02*
X8016707Y-20449066D01*
X8016707Y-20449066D02*
X8007183Y-20468114D01*
X8359564Y-20553828D02*
X8359564Y-20353828D01*
X8445279Y-20553828D02*
X8445279Y-20449066D01*
X8445279Y-20449066D02*
X8435755Y-20430019D01*
X8435755Y-20430019D02*
X8416707Y-20420495D01*
X8416707Y-20420495D02*
X8388136Y-20420495D01*
X8388136Y-20420495D02*
X8369088Y-20430019D01*
X8369088Y-20430019D02*
X8359564Y-20439542D01*
X8569088Y-20553828D02*
X8550041Y-20544304D01*
X8550041Y-20544304D02*
X8540517Y-20534781D01*
X8540517Y-20534781D02*
X8530993Y-20515733D01*
X8530993Y-20515733D02*
X8530993Y-20458590D01*
X8530993Y-20458590D02*
X8540517Y-20439542D01*
X8540517Y-20439542D02*
X8550041Y-20430019D01*
X8550041Y-20430019D02*
X8569088Y-20420495D01*
X8569088Y-20420495D02*
X8597660Y-20420495D01*
X8597660Y-20420495D02*
X8616707Y-20430019D01*
X8616707Y-20430019D02*
X8626231Y-20439542D01*
X8626231Y-20439542D02*
X8635755Y-20458590D01*
X8635755Y-20458590D02*
X8635755Y-20515733D01*
X8635755Y-20515733D02*
X8626231Y-20534781D01*
X8626231Y-20534781D02*
X8616707Y-20544304D01*
X8616707Y-20544304D02*
X8597660Y-20553828D01*
X8597660Y-20553828D02*
X8569088Y-20553828D01*
X8750041Y-20553828D02*
X8730993Y-20544304D01*
X8730993Y-20544304D02*
X8721469Y-20525257D01*
X8721469Y-20525257D02*
X8721469Y-20353828D01*
X8902422Y-20544304D02*
X8883374Y-20553828D01*
X8883374Y-20553828D02*
X8845279Y-20553828D01*
X8845279Y-20553828D02*
X8826231Y-20544304D01*
X8826231Y-20544304D02*
X8816707Y-20525257D01*
X8816707Y-20525257D02*
X8816707Y-20449066D01*
X8816707Y-20449066D02*
X8826231Y-20430019D01*
X8826231Y-20430019D02*
X8845279Y-20420495D01*
X8845279Y-20420495D02*
X8883374Y-20420495D01*
X8883374Y-20420495D02*
X8902422Y-20430019D01*
X8902422Y-20430019D02*
X8911946Y-20449066D01*
X8911946Y-20449066D02*
X8911946Y-20468114D01*
X8911946Y-20468114D02*
X8816707Y-20487162D01*
X8988136Y-20544304D02*
X9007184Y-20553828D01*
X9007184Y-20553828D02*
X9045279Y-20553828D01*
X9045279Y-20553828D02*
X9064327Y-20544304D01*
X9064327Y-20544304D02*
X9073850Y-20525257D01*
X9073850Y-20525257D02*
X9073850Y-20515733D01*
X9073850Y-20515733D02*
X9064327Y-20496685D01*
X9064327Y-20496685D02*
X9045279Y-20487162D01*
X9045279Y-20487162D02*
X9016707Y-20487162D01*
X9016707Y-20487162D02*
X8997660Y-20477638D01*
X8997660Y-20477638D02*
X8988136Y-20458590D01*
X8988136Y-20458590D02*
X8988136Y-20449066D01*
X8988136Y-20449066D02*
X8997660Y-20430019D01*
X8997660Y-20430019D02*
X9016707Y-20420495D01*
X9016707Y-20420495D02*
X9045279Y-20420495D01*
X9045279Y-20420495D02*
X9064327Y-20430019D01*
X9140517Y-20630019D02*
X9150041Y-20620495D01*
X9150041Y-20620495D02*
X9169088Y-20591923D01*
X9169088Y-20591923D02*
X9178612Y-20572876D01*
X9178612Y-20572876D02*
X9188136Y-20544304D01*
X9188136Y-20544304D02*
X9197660Y-20496685D01*
X9197660Y-20496685D02*
X9197660Y-20458590D01*
X9197660Y-20458590D02*
X9188136Y-20410971D01*
X9188136Y-20410971D02*
X9178612Y-20382400D01*
X9178612Y-20382400D02*
X9169088Y-20363352D01*
X9169088Y-20363352D02*
X9150041Y-20334781D01*
X9150041Y-20334781D02*
X9140517Y-20325257D01*
X4074978Y-20826344D02*
X4174978Y-20726344D01*
X4074978Y-20626344D01*
X3974978Y-20726344D01*
X4074978Y-20826344D01*
X4521469Y-20684495D02*
X4521469Y-20817828D01*
X4473850Y-20608304D02*
X4426231Y-20751162D01*
X4426231Y-20751162D02*
X4550040Y-20751162D01*
X4626231Y-20798781D02*
X4635755Y-20808304D01*
X4635755Y-20808304D02*
X4626231Y-20817828D01*
X4626231Y-20817828D02*
X4616707Y-20808304D01*
X4616707Y-20808304D02*
X4626231Y-20798781D01*
X4626231Y-20798781D02*
X4626231Y-20817828D01*
X4759564Y-20617828D02*
X4778612Y-20617828D01*
X4778612Y-20617828D02*
X4797659Y-20627352D01*
X4797659Y-20627352D02*
X4807183Y-20636876D01*
X4807183Y-20636876D02*
X4816707Y-20655923D01*
X4816707Y-20655923D02*
X4826231Y-20694019D01*
X4826231Y-20694019D02*
X4826231Y-20741638D01*
X4826231Y-20741638D02*
X4816707Y-20779733D01*
X4816707Y-20779733D02*
X4807183Y-20798781D01*
X4807183Y-20798781D02*
X4797659Y-20808304D01*
X4797659Y-20808304D02*
X4778612Y-20817828D01*
X4778612Y-20817828D02*
X4759564Y-20817828D01*
X4759564Y-20817828D02*
X4740517Y-20808304D01*
X4740517Y-20808304D02*
X4730993Y-20798781D01*
X4730993Y-20798781D02*
X4721469Y-20779733D01*
X4721469Y-20779733D02*
X4711945Y-20741638D01*
X4711945Y-20741638D02*
X4711945Y-20694019D01*
X4711945Y-20694019D02*
X4721469Y-20655923D01*
X4721469Y-20655923D02*
X4730993Y-20636876D01*
X4730993Y-20636876D02*
X4740517Y-20627352D01*
X4740517Y-20627352D02*
X4759564Y-20617828D01*
X4950040Y-20617828D02*
X4969088Y-20617828D01*
X4969088Y-20617828D02*
X4988136Y-20627352D01*
X4988136Y-20627352D02*
X4997659Y-20636876D01*
X4997659Y-20636876D02*
X5007183Y-20655923D01*
X5007183Y-20655923D02*
X5016707Y-20694019D01*
X5016707Y-20694019D02*
X5016707Y-20741638D01*
X5016707Y-20741638D02*
X5007183Y-20779733D01*
X5007183Y-20779733D02*
X4997659Y-20798781D01*
X4997659Y-20798781D02*
X4988136Y-20808304D01*
X4988136Y-20808304D02*
X4969088Y-20817828D01*
X4969088Y-20817828D02*
X4950040Y-20817828D01*
X4950040Y-20817828D02*
X4930993Y-20808304D01*
X4930993Y-20808304D02*
X4921469Y-20798781D01*
X4921469Y-20798781D02*
X4911945Y-20779733D01*
X4911945Y-20779733D02*
X4902421Y-20741638D01*
X4902421Y-20741638D02*
X4902421Y-20694019D01*
X4902421Y-20694019D02*
X4911945Y-20655923D01*
X4911945Y-20655923D02*
X4921469Y-20636876D01*
X4921469Y-20636876D02*
X4930993Y-20627352D01*
X4930993Y-20627352D02*
X4950040Y-20617828D01*
X5140517Y-20617828D02*
X5159564Y-20617828D01*
X5159564Y-20617828D02*
X5178612Y-20627352D01*
X5178612Y-20627352D02*
X5188136Y-20636876D01*
X5188136Y-20636876D02*
X5197659Y-20655923D01*
X5197659Y-20655923D02*
X5207183Y-20694019D01*
X5207183Y-20694019D02*
X5207183Y-20741638D01*
X5207183Y-20741638D02*
X5197659Y-20779733D01*
X5197659Y-20779733D02*
X5188136Y-20798781D01*
X5188136Y-20798781D02*
X5178612Y-20808304D01*
X5178612Y-20808304D02*
X5159564Y-20817828D01*
X5159564Y-20817828D02*
X5140517Y-20817828D01*
X5140517Y-20817828D02*
X5121469Y-20808304D01*
X5121469Y-20808304D02*
X5111945Y-20798781D01*
X5111945Y-20798781D02*
X5102421Y-20779733D01*
X5102421Y-20779733D02*
X5092898Y-20741638D01*
X5092898Y-20741638D02*
X5092898Y-20694019D01*
X5092898Y-20694019D02*
X5102421Y-20655923D01*
X5102421Y-20655923D02*
X5111945Y-20636876D01*
X5111945Y-20636876D02*
X5121469Y-20627352D01*
X5121469Y-20627352D02*
X5140517Y-20617828D01*
X5292898Y-20817828D02*
X5292898Y-20684495D01*
X5292898Y-20703542D02*
X5302421Y-20694019D01*
X5302421Y-20694019D02*
X5321469Y-20684495D01*
X5321469Y-20684495D02*
X5350040Y-20684495D01*
X5350040Y-20684495D02*
X5369088Y-20694019D01*
X5369088Y-20694019D02*
X5378612Y-20713066D01*
X5378612Y-20713066D02*
X5378612Y-20817828D01*
X5378612Y-20713066D02*
X5388136Y-20694019D01*
X5388136Y-20694019D02*
X5407183Y-20684495D01*
X5407183Y-20684495D02*
X5435755Y-20684495D01*
X5435755Y-20684495D02*
X5454802Y-20694019D01*
X5454802Y-20694019D02*
X5464326Y-20713066D01*
X5464326Y-20713066D02*
X5464326Y-20817828D01*
X5559564Y-20817828D02*
X5559564Y-20684495D01*
X5559564Y-20703542D02*
X5569088Y-20694019D01*
X5569088Y-20694019D02*
X5588136Y-20684495D01*
X5588136Y-20684495D02*
X5616707Y-20684495D01*
X5616707Y-20684495D02*
X5635755Y-20694019D01*
X5635755Y-20694019D02*
X5645278Y-20713066D01*
X5645278Y-20713066D02*
X5645278Y-20817828D01*
X5645278Y-20713066D02*
X5654802Y-20694019D01*
X5654802Y-20694019D02*
X5673850Y-20684495D01*
X5673850Y-20684495D02*
X5702421Y-20684495D01*
X5702421Y-20684495D02*
X5721469Y-20694019D01*
X5721469Y-20694019D02*
X5730993Y-20713066D01*
X5730993Y-20713066D02*
X5730993Y-20817828D01*
X6121469Y-20608304D02*
X5950040Y-20865447D01*
X6378612Y-20617828D02*
X6397660Y-20617828D01*
X6397660Y-20617828D02*
X6416707Y-20627352D01*
X6416707Y-20627352D02*
X6426231Y-20636876D01*
X6426231Y-20636876D02*
X6435755Y-20655923D01*
X6435755Y-20655923D02*
X6445279Y-20694019D01*
X6445279Y-20694019D02*
X6445279Y-20741638D01*
X6445279Y-20741638D02*
X6435755Y-20779733D01*
X6435755Y-20779733D02*
X6426231Y-20798781D01*
X6426231Y-20798781D02*
X6416707Y-20808304D01*
X6416707Y-20808304D02*
X6397660Y-20817828D01*
X6397660Y-20817828D02*
X6378612Y-20817828D01*
X6378612Y-20817828D02*
X6359564Y-20808304D01*
X6359564Y-20808304D02*
X6350040Y-20798781D01*
X6350040Y-20798781D02*
X6340517Y-20779733D01*
X6340517Y-20779733D02*
X6330993Y-20741638D01*
X6330993Y-20741638D02*
X6330993Y-20694019D01*
X6330993Y-20694019D02*
X6340517Y-20655923D01*
X6340517Y-20655923D02*
X6350040Y-20636876D01*
X6350040Y-20636876D02*
X6359564Y-20627352D01*
X6359564Y-20627352D02*
X6378612Y-20617828D01*
X6530993Y-20798781D02*
X6540517Y-20808304D01*
X6540517Y-20808304D02*
X6530993Y-20817828D01*
X6530993Y-20817828D02*
X6521469Y-20808304D01*
X6521469Y-20808304D02*
X6530993Y-20798781D01*
X6530993Y-20798781D02*
X6530993Y-20817828D01*
X6730993Y-20817828D02*
X6616707Y-20817828D01*
X6673850Y-20817828D02*
X6673850Y-20617828D01*
X6673850Y-20617828D02*
X6654802Y-20646400D01*
X6654802Y-20646400D02*
X6635755Y-20665447D01*
X6635755Y-20665447D02*
X6616707Y-20674971D01*
X6911945Y-20617828D02*
X6816707Y-20617828D01*
X6816707Y-20617828D02*
X6807183Y-20713066D01*
X6807183Y-20713066D02*
X6816707Y-20703542D01*
X6816707Y-20703542D02*
X6835755Y-20694019D01*
X6835755Y-20694019D02*
X6883374Y-20694019D01*
X6883374Y-20694019D02*
X6902421Y-20703542D01*
X6902421Y-20703542D02*
X6911945Y-20713066D01*
X6911945Y-20713066D02*
X6921469Y-20732114D01*
X6921469Y-20732114D02*
X6921469Y-20779733D01*
X6921469Y-20779733D02*
X6911945Y-20798781D01*
X6911945Y-20798781D02*
X6902421Y-20808304D01*
X6902421Y-20808304D02*
X6883374Y-20817828D01*
X6883374Y-20817828D02*
X6835755Y-20817828D01*
X6835755Y-20817828D02*
X6816707Y-20808304D01*
X6816707Y-20808304D02*
X6807183Y-20798781D01*
X6988136Y-20617828D02*
X7121469Y-20617828D01*
X7121469Y-20617828D02*
X7035755Y-20817828D01*
X7292898Y-20617828D02*
X7197660Y-20617828D01*
X7197660Y-20617828D02*
X7188136Y-20713066D01*
X7188136Y-20713066D02*
X7197660Y-20703542D01*
X7197660Y-20703542D02*
X7216707Y-20694019D01*
X7216707Y-20694019D02*
X7264326Y-20694019D01*
X7264326Y-20694019D02*
X7283374Y-20703542D01*
X7283374Y-20703542D02*
X7292898Y-20713066D01*
X7292898Y-20713066D02*
X7302421Y-20732114D01*
X7302421Y-20732114D02*
X7302421Y-20779733D01*
X7302421Y-20779733D02*
X7292898Y-20798781D01*
X7292898Y-20798781D02*
X7283374Y-20808304D01*
X7283374Y-20808304D02*
X7264326Y-20817828D01*
X7264326Y-20817828D02*
X7216707Y-20817828D01*
X7216707Y-20817828D02*
X7197660Y-20808304D01*
X7197660Y-20808304D02*
X7188136Y-20798781D01*
X7378612Y-20617828D02*
X7378612Y-20655923D01*
X7454802Y-20617828D02*
X7454802Y-20655923D01*
X7750041Y-20894019D02*
X7740517Y-20884495D01*
X7740517Y-20884495D02*
X7721469Y-20855923D01*
X7721469Y-20855923D02*
X7711945Y-20836876D01*
X7711945Y-20836876D02*
X7702422Y-20808304D01*
X7702422Y-20808304D02*
X7692898Y-20760685D01*
X7692898Y-20760685D02*
X7692898Y-20722590D01*
X7692898Y-20722590D02*
X7702422Y-20674971D01*
X7702422Y-20674971D02*
X7711945Y-20646400D01*
X7711945Y-20646400D02*
X7721469Y-20627352D01*
X7721469Y-20627352D02*
X7740517Y-20598781D01*
X7740517Y-20598781D02*
X7750041Y-20589257D01*
X7816707Y-20636876D02*
X7826231Y-20627352D01*
X7826231Y-20627352D02*
X7845279Y-20617828D01*
X7845279Y-20617828D02*
X7892898Y-20617828D01*
X7892898Y-20617828D02*
X7911945Y-20627352D01*
X7911945Y-20627352D02*
X7921469Y-20636876D01*
X7921469Y-20636876D02*
X7930993Y-20655923D01*
X7930993Y-20655923D02*
X7930993Y-20674971D01*
X7930993Y-20674971D02*
X7921469Y-20703542D01*
X7921469Y-20703542D02*
X7807183Y-20817828D01*
X7807183Y-20817828D02*
X7930993Y-20817828D01*
X8169088Y-20817828D02*
X8169088Y-20617828D01*
X8254803Y-20817828D02*
X8254803Y-20713066D01*
X8254803Y-20713066D02*
X8245279Y-20694019D01*
X8245279Y-20694019D02*
X8226231Y-20684495D01*
X8226231Y-20684495D02*
X8197660Y-20684495D01*
X8197660Y-20684495D02*
X8178612Y-20694019D01*
X8178612Y-20694019D02*
X8169088Y-20703542D01*
X8378612Y-20817828D02*
X8359564Y-20808304D01*
X8359564Y-20808304D02*
X8350041Y-20798781D01*
X8350041Y-20798781D02*
X8340517Y-20779733D01*
X8340517Y-20779733D02*
X8340517Y-20722590D01*
X8340517Y-20722590D02*
X8350041Y-20703542D01*
X8350041Y-20703542D02*
X8359564Y-20694019D01*
X8359564Y-20694019D02*
X8378612Y-20684495D01*
X8378612Y-20684495D02*
X8407184Y-20684495D01*
X8407184Y-20684495D02*
X8426231Y-20694019D01*
X8426231Y-20694019D02*
X8435755Y-20703542D01*
X8435755Y-20703542D02*
X8445279Y-20722590D01*
X8445279Y-20722590D02*
X8445279Y-20779733D01*
X8445279Y-20779733D02*
X8435755Y-20798781D01*
X8435755Y-20798781D02*
X8426231Y-20808304D01*
X8426231Y-20808304D02*
X8407184Y-20817828D01*
X8407184Y-20817828D02*
X8378612Y-20817828D01*
X8559565Y-20817828D02*
X8540517Y-20808304D01*
X8540517Y-20808304D02*
X8530993Y-20789257D01*
X8530993Y-20789257D02*
X8530993Y-20617828D01*
X8711946Y-20808304D02*
X8692898Y-20817828D01*
X8692898Y-20817828D02*
X8654803Y-20817828D01*
X8654803Y-20817828D02*
X8635755Y-20808304D01*
X8635755Y-20808304D02*
X8626231Y-20789257D01*
X8626231Y-20789257D02*
X8626231Y-20713066D01*
X8626231Y-20713066D02*
X8635755Y-20694019D01*
X8635755Y-20694019D02*
X8654803Y-20684495D01*
X8654803Y-20684495D02*
X8692898Y-20684495D01*
X8692898Y-20684495D02*
X8711946Y-20694019D01*
X8711946Y-20694019D02*
X8721469Y-20713066D01*
X8721469Y-20713066D02*
X8721469Y-20732114D01*
X8721469Y-20732114D02*
X8626231Y-20751162D01*
X8797660Y-20808304D02*
X8816707Y-20817828D01*
X8816707Y-20817828D02*
X8854803Y-20817828D01*
X8854803Y-20817828D02*
X8873850Y-20808304D01*
X8873850Y-20808304D02*
X8883374Y-20789257D01*
X8883374Y-20789257D02*
X8883374Y-20779733D01*
X8883374Y-20779733D02*
X8873850Y-20760685D01*
X8873850Y-20760685D02*
X8854803Y-20751162D01*
X8854803Y-20751162D02*
X8826231Y-20751162D01*
X8826231Y-20751162D02*
X8807184Y-20741638D01*
X8807184Y-20741638D02*
X8797660Y-20722590D01*
X8797660Y-20722590D02*
X8797660Y-20713066D01*
X8797660Y-20713066D02*
X8807184Y-20694019D01*
X8807184Y-20694019D02*
X8826231Y-20684495D01*
X8826231Y-20684495D02*
X8854803Y-20684495D01*
X8854803Y-20684495D02*
X8873850Y-20694019D01*
X8950041Y-20894019D02*
X8959565Y-20884495D01*
X8959565Y-20884495D02*
X8978612Y-20855923D01*
X8978612Y-20855923D02*
X8988136Y-20836876D01*
X8988136Y-20836876D02*
X8997660Y-20808304D01*
X8997660Y-20808304D02*
X9007184Y-20760685D01*
X9007184Y-20760685D02*
X9007184Y-20722590D01*
X9007184Y-20722590D02*
X8997660Y-20674971D01*
X8997660Y-20674971D02*
X8988136Y-20646400D01*
X8988136Y-20646400D02*
X8978612Y-20627352D01*
X8978612Y-20627352D02*
X8959565Y-20598781D01*
X8959565Y-20598781D02*
X8950041Y-20589257D01*
M02*
