%TF.GenerationSoftware,KiCad,Pcbnew,8.0.2*%
%TF.CreationDate,2024-05-04T16:44:52-04:00*%
%TF.ProjectId,RGBsensorBoard,52474273-656e-4736-9f72-426f6172642e,rev?*%
%TF.SameCoordinates,Original*%
%TF.FileFunction,Soldermask,Top*%
%TF.FilePolarity,Negative*%
%FSLAX46Y46*%
G04 Gerber Fmt 4.6, Leading zero omitted, Abs format (unit mm)*
G04 Created by KiCad (PCBNEW 8.0.2) date 2024-05-04 16:44:52*
%MOMM*%
%LPD*%
G01*
G04 APERTURE LIST*
G04 Aperture macros list*
%AMHorizOval*
0 Thick line with rounded ends*
0 $1 width*
0 $2 $3 position (X,Y) of the first rounded end (center of the circle)*
0 $4 $5 position (X,Y) of the second rounded end (center of the circle)*
0 Add line between two ends*
20,1,$1,$2,$3,$4,$5,0*
0 Add two circle primitives to create the rounded ends*
1,1,$1,$2,$3*
1,1,$1,$4,$5*%
G04 Aperture macros list end*
%ADD10R,1.800000X1.800000*%
%ADD11C,1.800000*%
%ADD12R,1.700000X1.700000*%
%ADD13O,1.700000X1.700000*%
%ADD14C,1.600000*%
%ADD15O,1.600000X1.600000*%
%ADD16C,8.000000*%
%ADD17C,4.400000*%
%ADD18HorizOval,1.600000X0.000000X0.000000X0.000000X0.000000X0*%
%ADD19HorizOval,1.600000X0.000000X0.000000X0.000000X0.000000X0*%
G04 APERTURE END LIST*
D10*
%TO.C,D5*%
X104800001Y-179900000D03*
D11*
X102260001Y-179900000D03*
%TD*%
D12*
%TO.C,J1*%
X121300001Y-74359999D03*
D13*
X121300001Y-76899999D03*
X121300001Y-79439998D03*
X121300001Y-81979999D03*
X121300001Y-84519999D03*
%TD*%
D14*
%TO.C,R6*%
X104800001Y-86710000D03*
D15*
X104800001Y-79090000D03*
%TD*%
D12*
%TO.C,J5*%
X95400000Y-134099999D03*
D13*
X92860000Y-134099999D03*
X90320001Y-134099999D03*
X87780000Y-134099999D03*
X85240000Y-134099999D03*
%TD*%
D12*
%TO.C,J9*%
X89600000Y-114999999D03*
D13*
X92140000Y-114999999D03*
X94679999Y-114999999D03*
X97220000Y-114999999D03*
X99760000Y-114999999D03*
X102300000Y-114999999D03*
X104840000Y-114999999D03*
X107380001Y-114999999D03*
X109920000Y-114999999D03*
X112460000Y-114999999D03*
X115000000Y-114999999D03*
X117539999Y-114999999D03*
%TD*%
D16*
%TO.C,hole*%
X152500000Y-155000000D03*
D17*
X152500000Y-155000000D03*
%TD*%
D10*
%TO.C,D6*%
X104800001Y-92900000D03*
D11*
X104800001Y-90360000D03*
%TD*%
D14*
%TO.C,R2*%
X107990001Y-39900000D03*
D15*
X115610001Y-39900000D03*
%TD*%
D12*
%TO.C,J10*%
X89600001Y-127899999D03*
D13*
X92140001Y-127899999D03*
X94680000Y-127899999D03*
X97220001Y-127899999D03*
X99760001Y-127899999D03*
X102300001Y-127899999D03*
X104840001Y-127899999D03*
X107380002Y-127899999D03*
X109920001Y-127899999D03*
X112460001Y-127899999D03*
X115000001Y-127899999D03*
X117540000Y-127899999D03*
%TD*%
D14*
%TO.C,R1*%
X100490000Y-150399999D03*
D15*
X108110000Y-150399999D03*
%TD*%
D12*
%TO.C,J4*%
X121300000Y-99779999D03*
D13*
X121300000Y-102319999D03*
X121300000Y-104859998D03*
X121300000Y-107399999D03*
X121300000Y-109939999D03*
%TD*%
D10*
%TO.C,D3*%
X124260000Y-92399999D03*
D11*
X126800000Y-92399999D03*
%TD*%
D14*
%TO.C,R3*%
X131180000Y-92399999D03*
D15*
X138800000Y-92399999D03*
%TD*%
D14*
%TO.C,R4*%
X64990001Y-91400000D03*
D15*
X72610001Y-91400000D03*
%TD*%
D12*
%TO.C,J2*%
X85270001Y-84860000D03*
D13*
X85270001Y-82320000D03*
X85270001Y-79780001D03*
X85270001Y-77240000D03*
X85270001Y-74700000D03*
%TD*%
D14*
%TO.C,R5*%
X94994078Y-178094077D03*
D18*
X89605924Y-172705923D03*
%TD*%
D10*
%TO.C,D2*%
X80075000Y-91399999D03*
D11*
X77535000Y-91399999D03*
%TD*%
D10*
%TO.C,D1*%
X103800000Y-140859999D03*
D11*
X103800000Y-143399999D03*
%TD*%
D12*
%TO.C,J3*%
X85270001Y-109900000D03*
D13*
X85270001Y-107360000D03*
X85270001Y-104820001D03*
X85270001Y-102280000D03*
X85270001Y-99740000D03*
%TD*%
D12*
%TO.C,J6*%
X121280000Y-134100000D03*
D13*
X118740000Y-134100000D03*
X116200001Y-134100000D03*
X113660000Y-134100000D03*
X111120000Y-134100000D03*
%TD*%
D12*
%TO.C,J7*%
X108300000Y-48899999D03*
D13*
X105760000Y-48899999D03*
X103220001Y-48899999D03*
X100680000Y-48899999D03*
X98140000Y-48899999D03*
%TD*%
D10*
%TO.C,D4*%
X102800001Y-42400000D03*
D11*
X102800001Y-39860000D03*
%TD*%
D12*
%TO.C,J8*%
X108300000Y-160399999D03*
D13*
X105760000Y-160399999D03*
X103220001Y-160399999D03*
X100680000Y-160399999D03*
X98140000Y-160399999D03*
%TD*%
D17*
%TO.C,hole2*%
X55000000Y-37500000D03*
D16*
X55000000Y-37500000D03*
%TD*%
D12*
%TO.C,C3*%
X108624779Y-185878444D03*
D13*
X106084779Y-185878444D03*
X103544780Y-185878444D03*
X101004779Y-185878444D03*
%TD*%
D14*
%TO.C,R6*%
X90862256Y-37470873D03*
D19*
X96250410Y-32082719D03*
%TD*%
D12*
%TO.C,C1*%
X101553711Y-26779418D03*
D13*
X104093711Y-26779418D03*
%TD*%
%TO.C,J11*%
X160000000Y-110120001D03*
X160000000Y-107580001D03*
X160000000Y-105040001D03*
X160000000Y-102500000D03*
X160000000Y-99960001D03*
D12*
X160000000Y-97420001D03*
%TD*%
M02*
