%TF.GenerationSoftware,KiCad,Pcbnew,8.0.2*%
%TF.CreationDate,2024-05-04T16:44:52-04:00*%
%TF.ProjectId,RGBsensorBoard,52474273-656e-4736-9f72-426f6172642e,rev?*%
%TF.SameCoordinates,Original*%
%TF.FileFunction,Copper,L1,Top*%
%TF.FilePolarity,Positive*%
%FSLAX46Y46*%
G04 Gerber Fmt 4.6, Leading zero omitted, Abs format (unit mm)*
G04 Created by KiCad (PCBNEW 8.0.2) date 2024-05-04 16:44:52*
%MOMM*%
%LPD*%
G01*
G04 APERTURE LIST*
G04 Aperture macros list*
%AMHorizOval*
0 Thick line with rounded ends*
0 $1 width*
0 $2 $3 position (X,Y) of the first rounded end (center of the circle)*
0 $4 $5 position (X,Y) of the second rounded end (center of the circle)*
0 Add line between two ends*
20,1,$1,$2,$3,$4,$5,0*
0 Add two circle primitives to create the rounded ends*
1,1,$1,$2,$3*
1,1,$1,$4,$5*%
G04 Aperture macros list end*
%TA.AperFunction,ComponentPad*%
%ADD10R,1.800000X1.800000*%
%TD*%
%TA.AperFunction,ComponentPad*%
%ADD11C,1.800000*%
%TD*%
%TA.AperFunction,ComponentPad*%
%ADD12R,1.700000X1.700000*%
%TD*%
%TA.AperFunction,ComponentPad*%
%ADD13O,1.700000X1.700000*%
%TD*%
%TA.AperFunction,ComponentPad*%
%ADD14C,1.600000*%
%TD*%
%TA.AperFunction,ComponentPad*%
%ADD15O,1.600000X1.600000*%
%TD*%
%TA.AperFunction,ConnectorPad*%
%ADD16C,8.000000*%
%TD*%
%TA.AperFunction,ComponentPad*%
%ADD17C,4.400000*%
%TD*%
%TA.AperFunction,ComponentPad*%
%ADD18HorizOval,1.600000X0.000000X0.000000X0.000000X0.000000X0*%
%TD*%
%TA.AperFunction,ComponentPad*%
%ADD19HorizOval,1.600000X0.000000X0.000000X0.000000X0.000000X0*%
%TD*%
%TA.AperFunction,ViaPad*%
%ADD20C,0.600000*%
%TD*%
%TA.AperFunction,Conductor*%
%ADD21C,0.200000*%
%TD*%
G04 APERTURE END LIST*
D10*
%TO.P,D5,1,K*%
%TO.N,/GND*%
X104800001Y-179900000D03*
D11*
%TO.P,D5,2,A*%
%TO.N,/VIN 5V*%
X102260001Y-179900000D03*
%TD*%
D12*
%TO.P,J1,1,Pin_1*%
%TO.N,/GND*%
X121300001Y-74359999D03*
D13*
%TO.P,J1,2,Pin_2*%
%TO.N,3.3*%
X121300001Y-76899999D03*
%TO.P,J1,3,Pin_3*%
%TO.N,/SD5*%
X121300001Y-79439998D03*
%TO.P,J1,4,Pin_4*%
%TO.N,/SC5*%
X121300001Y-81979999D03*
%TO.P,J1,5,Pin_5*%
%TO.N,unconnected-(J1-Pin_5-Pad5)*%
X121300001Y-84519999D03*
%TD*%
D14*
%TO.P,R6,1*%
%TO.N,/VIN 5V*%
X104800001Y-86710000D03*
D15*
%TO.P,R6,2*%
X104800001Y-79090000D03*
%TD*%
D12*
%TO.P,J5,1,Pin_1*%
%TO.N,/GND*%
X95400000Y-134099999D03*
D13*
%TO.P,J5,2,Pin_2*%
%TO.N,3.3*%
X92860000Y-134099999D03*
%TO.P,J5,3,Pin_3*%
%TO.N,/SD0*%
X90320001Y-134099999D03*
%TO.P,J5,4,Pin_4*%
%TO.N,/SC0*%
X87780000Y-134099999D03*
%TO.P,J5,5,Pin_5*%
%TO.N,unconnected-(J5-Pin_5-Pad5)*%
X85240000Y-134099999D03*
%TD*%
D12*
%TO.P,J9,1,Pin_1*%
%TO.N,/SC7*%
X89600000Y-114999999D03*
D13*
%TO.P,J9,2,Pin_2*%
%TO.N,/SD7*%
X92140000Y-114999999D03*
%TO.P,J9,3,Pin_3*%
%TO.N,/SC6*%
X94679999Y-114999999D03*
%TO.P,J9,4,Pin_4*%
%TO.N,/SD6*%
X97220000Y-114999999D03*
%TO.P,J9,5,Pin_5*%
%TO.N,/SC5*%
X99760000Y-114999999D03*
%TO.P,J9,6,Pin_6*%
%TO.N,/SD5*%
X102300000Y-114999999D03*
%TO.P,J9,7,Pin_7*%
%TO.N,/SC4*%
X104840000Y-114999999D03*
%TO.P,J9,8,Pin_8*%
%TO.N,/SD4*%
X107380001Y-114999999D03*
%TO.P,J9,9,Pin_9*%
%TO.N,/SC3*%
X109920000Y-114999999D03*
%TO.P,J9,10,Pin_10*%
%TO.N,/SD3*%
X112460000Y-114999999D03*
%TO.P,J9,11,Pin_11*%
%TO.N,/SC2*%
X115000000Y-114999999D03*
%TO.P,J9,12,Pin_12*%
%TO.N,/SD2*%
X117539999Y-114999999D03*
%TD*%
D16*
%TO.P,hole,1*%
%TO.N,N/C*%
X152500000Y-155000000D03*
D17*
X152500000Y-155000000D03*
%TD*%
D10*
%TO.P,D6,1,K*%
%TO.N,/GND*%
X104800001Y-92900000D03*
D11*
%TO.P,D6,2,A*%
%TO.N,/VIN 5V*%
X104800001Y-90360000D03*
%TD*%
D14*
%TO.P,R2,1*%
%TO.N,/VIN 5V*%
X107990001Y-39900000D03*
D15*
%TO.P,R2,2*%
X115610001Y-39900000D03*
%TD*%
D12*
%TO.P,J10,1,Pin_1*%
%TO.N,/VIN 5V*%
X89600001Y-127899999D03*
D13*
%TO.P,J10,2,Pin_2*%
%TO.N,/GND*%
X92140001Y-127899999D03*
%TO.P,J10,3,Pin_3*%
%TO.N,/SDA*%
X94680000Y-127899999D03*
%TO.P,J10,4,Pin_4*%
%TO.N,/SCL*%
X97220001Y-127899999D03*
%TO.P,J10,5,Pin_5*%
%TO.N,/RST*%
X99760001Y-127899999D03*
%TO.P,J10,6,Pin_6*%
%TO.N,/A0*%
X102300001Y-127899999D03*
%TO.P,J10,7,Pin_7*%
%TO.N,/A1*%
X104840001Y-127899999D03*
%TO.P,J10,8,Pin_8*%
%TO.N,/A2*%
X107380002Y-127899999D03*
%TO.P,J10,9,Pin_9*%
%TO.N,/SD0*%
X109920001Y-127899999D03*
%TO.P,J10,10,Pin_10*%
%TO.N,/SC0*%
X112460001Y-127899999D03*
%TO.P,J10,11,Pin_11*%
%TO.N,/SD1*%
X115000001Y-127899999D03*
%TO.P,J10,12,Pin_12*%
%TO.N,SC1*%
X117540000Y-127899999D03*
%TD*%
D14*
%TO.P,R1,1*%
%TO.N,/VIN 5V*%
X100490000Y-150399999D03*
D15*
%TO.P,R1,2*%
X108110000Y-150399999D03*
%TD*%
D12*
%TO.P,J4,1,Pin_1*%
%TO.N,/GND*%
X121300000Y-99779999D03*
D13*
%TO.P,J4,2,Pin_2*%
%TO.N,3.3*%
X121300000Y-102319999D03*
%TO.P,J4,3,Pin_3*%
%TO.N,/SD2*%
X121300000Y-104859998D03*
%TO.P,J4,4,Pin_4*%
%TO.N,/SC2*%
X121300000Y-107399999D03*
%TO.P,J4,5,Pin_5*%
%TO.N,unconnected-(J4-Pin_5-Pad5)*%
X121300000Y-109939999D03*
%TD*%
D10*
%TO.P,D3,1,K*%
%TO.N,/GND*%
X124260000Y-92399999D03*
D11*
%TO.P,D3,2,A*%
%TO.N,/VIN 5V*%
X126800000Y-92399999D03*
%TD*%
D14*
%TO.P,R3,1*%
%TO.N,/VIN 5V*%
X131180000Y-92399999D03*
D15*
%TO.P,R3,2*%
X138800000Y-92399999D03*
%TD*%
D14*
%TO.P,R4,1*%
%TO.N,/VIN 5V*%
X64990001Y-91400000D03*
D15*
%TO.P,R4,2*%
X72610001Y-91400000D03*
%TD*%
D12*
%TO.P,J2,1,Pin_1*%
%TO.N,/GND*%
X85270001Y-84860000D03*
D13*
%TO.P,J2,2,Pin_2*%
%TO.N,3.3*%
X85270001Y-82320000D03*
%TO.P,J2,3,Pin_3*%
%TO.N,/SD7*%
X85270001Y-79780001D03*
%TO.P,J2,4,Pin_4*%
%TO.N,/SC7*%
X85270001Y-77240000D03*
%TO.P,J2,5,Pin_5*%
%TO.N,unconnected-(J2-Pin_5-Pad5)*%
X85270001Y-74700000D03*
%TD*%
D14*
%TO.P,R5,1*%
%TO.N,/VIN 5V*%
X94994078Y-178094077D03*
D18*
%TO.P,R5,2*%
X89605924Y-172705923D03*
%TD*%
D10*
%TO.P,D2,1,K*%
%TO.N,/GND*%
X80075000Y-91399999D03*
D11*
%TO.P,D2,2,A*%
%TO.N,/VIN 5V*%
X77535000Y-91399999D03*
%TD*%
D10*
%TO.P,D1,1,K*%
%TO.N,/GND*%
X103800000Y-140859999D03*
D11*
%TO.P,D1,2,A*%
%TO.N,/VIN 5V*%
X103800000Y-143399999D03*
%TD*%
D12*
%TO.P,J3,1,Pin_1*%
%TO.N,/GND*%
X85270001Y-109900000D03*
D13*
%TO.P,J3,2,Pin_2*%
%TO.N,3.3*%
X85270001Y-107360000D03*
%TO.P,J3,3,Pin_3*%
%TO.N,/SD6*%
X85270001Y-104820001D03*
%TO.P,J3,4,Pin_4*%
%TO.N,/SC6*%
X85270001Y-102280000D03*
%TO.P,J3,5,Pin_5*%
%TO.N,unconnected-(J3-Pin_5-Pad5)*%
X85270001Y-99740000D03*
%TD*%
D12*
%TO.P,J6,1,Pin_1*%
%TO.N,/GND*%
X121280000Y-134100000D03*
D13*
%TO.P,J6,2,Pin_2*%
%TO.N,3.3*%
X118740000Y-134100000D03*
%TO.P,J6,3,Pin_3*%
%TO.N,/SD1*%
X116200001Y-134100000D03*
%TO.P,J6,4,Pin_4*%
%TO.N,SC1*%
X113660000Y-134100000D03*
%TO.P,J6,5,Pin_5*%
%TO.N,unconnected-(J6-Pin_5-Pad5)*%
X111120000Y-134100000D03*
%TD*%
D12*
%TO.P,J7,1,Pin_1*%
%TO.N,/GND*%
X108300000Y-48899999D03*
D13*
%TO.P,J7,2,Pin_2*%
%TO.N,3.3*%
X105760000Y-48899999D03*
%TO.P,J7,3,Pin_3*%
%TO.N,/SD3*%
X103220001Y-48899999D03*
%TO.P,J7,4,Pin_4*%
%TO.N,/SC3*%
X100680000Y-48899999D03*
%TO.P,J7,5,Pin_5*%
%TO.N,unconnected-(J7-Pin_5-Pad5)*%
X98140000Y-48899999D03*
%TD*%
D10*
%TO.P,D4,1,K*%
%TO.N,/GND*%
X102800001Y-42400000D03*
D11*
%TO.P,D4,2,A*%
%TO.N,/VIN 5V*%
X102800001Y-39860000D03*
%TD*%
D12*
%TO.P,J8,1,Pin_1*%
%TO.N,/GND*%
X108300000Y-160399999D03*
D13*
%TO.P,J8,2,Pin_2*%
%TO.N,3.3*%
X105760000Y-160399999D03*
%TO.P,J8,3,Pin_3*%
%TO.N,/SD4*%
X103220001Y-160399999D03*
%TO.P,J8,4,Pin_4*%
%TO.N,/SC4*%
X100680000Y-160399999D03*
%TO.P,J8,5,Pin_5*%
%TO.N,unconnected-(J8-Pin_5-Pad5)*%
X98140000Y-160399999D03*
%TD*%
D17*
%TO.P,hole2,1*%
%TO.N,N/C*%
X55000000Y-37500000D03*
D16*
X55000000Y-37500000D03*
%TD*%
D12*
%TO.P,C3,1,Pin_1*%
%TO.N,/GND*%
X108624779Y-185878444D03*
D13*
%TO.P,C3,2,Pin_2*%
%TO.N,/VIN 5V*%
X106084779Y-185878444D03*
%TO.P,C3,3,Pin_3*%
%TO.N,/SCL*%
X103544780Y-185878444D03*
%TO.P,C3,4,Pin_4*%
%TO.N,/SDA*%
X101004779Y-185878444D03*
%TD*%
D14*
%TO.P,R6,1*%
%TO.N,/VIN 5V*%
X90862256Y-37470873D03*
D19*
%TO.P,R6,2*%
X96250410Y-32082719D03*
%TD*%
D12*
%TO.P,C1,1,Pin_1*%
%TO.N,/VIN 5V*%
X101553711Y-26779418D03*
D13*
%TO.P,C1,2,Pin_2*%
%TO.N,/GND*%
X104093711Y-26779418D03*
%TD*%
%TO.P,J11,6*%
%TO.N,/VIN 5V*%
X160000000Y-110120001D03*
%TO.P,J11,5,Pin_5*%
%TO.N,/GND*%
X160000000Y-107580001D03*
%TO.P,J11,4,Pin_4*%
%TO.N,/SCL*%
X160000000Y-105040001D03*
%TO.P,J11,3,Pin_3*%
%TO.N,/SDA*%
X160000000Y-102500000D03*
%TO.P,J11,2,Pin_2*%
%TO.N,3.3*%
X160000000Y-99960001D03*
D12*
%TO.P,J11,1,Pin_1*%
%TO.N,/VIN 5V*%
X160000000Y-97420001D03*
%TD*%
D20*
%TO.N,/GND*%
X98018177Y-37386020D03*
%TO.N,/SC6*%
X89800001Y-102899999D03*
%TO.N,/SC4*%
X74800001Y-117900000D03*
X84800001Y-117900000D03*
%TO.N,/SD4*%
X84800001Y-120400000D03*
X77300001Y-120400000D03*
%TO.N,/SDA*%
X115695847Y-157594173D03*
X98018177Y-171736308D03*
X127300001Y-120400000D03*
%TO.N,/SCL*%
X106857012Y-169968541D03*
X127300001Y-122900000D03*
%TO.N,/VIN 5V*%
X89800000Y-122899999D03*
X84800001Y-122900000D03*
%TD*%
D21*
%TO.N,/SCL*%
X132435108Y-117764892D02*
X134800001Y-115400000D01*
X134800001Y-115400000D02*
X134800001Y-105199999D01*
X134800001Y-105199999D02*
X135000000Y-105000000D01*
X159959999Y-105000000D02*
X160000000Y-105040001D01*
X135000000Y-105000000D02*
X159959999Y-105000000D01*
%TO.N,/SDA*%
X127300001Y-120400000D02*
X125700000Y-118799999D01*
X125700000Y-118799999D02*
X125700000Y-106151470D01*
X125700000Y-106151470D02*
X129351470Y-102500000D01*
X129351470Y-102500000D02*
X160000000Y-102500000D01*
%TO.N,3.3*%
X129300001Y-100899999D02*
X159060002Y-100899999D01*
X159060002Y-100899999D02*
X160000000Y-99960001D01*
%TO.N,/GND*%
X98018177Y-37386020D02*
X104093711Y-31310486D01*
X104093711Y-31310486D02*
X104093711Y-26779418D01*
%TO.N,/SC2*%
X115000000Y-113700000D02*
X115000000Y-115000000D01*
X121300001Y-107399999D02*
X115000000Y-113700000D01*
%TO.N,/SC7*%
X100910001Y-115476346D02*
X98486347Y-117900000D01*
X92500001Y-117900000D02*
X89600000Y-114999999D01*
X98486347Y-117900000D02*
X92500001Y-117900000D01*
X85270001Y-77239999D02*
X100910001Y-92879999D01*
X100910001Y-92879999D02*
X100910001Y-115476346D01*
%TO.N,/SD7*%
X85270001Y-79779999D02*
X98370001Y-92879999D01*
X98370000Y-115476345D02*
X97696347Y-116149999D01*
X98370001Y-92879999D02*
X98370000Y-115476345D01*
X97696347Y-116149999D02*
X93290000Y-116149999D01*
X93290000Y-116149999D02*
X92140001Y-115000000D01*
%TO.N,/SD6*%
X85270001Y-104819999D02*
X87040001Y-104819999D01*
X87040001Y-104819999D02*
X97220001Y-114999999D01*
%TO.N,/SC6*%
X89180001Y-102279999D02*
X89800001Y-102899999D01*
X85270001Y-102280000D02*
X89180001Y-102279999D01*
%TO.N,/SD1*%
X116150001Y-126749999D02*
X115000000Y-127899999D01*
X118650000Y-126750000D02*
X116150001Y-126749999D01*
X118690000Y-126790000D02*
X118650000Y-126750000D01*
X118690000Y-131609999D02*
X118690000Y-126790000D01*
X116200000Y-134099999D02*
X118690000Y-131609999D01*
%TO.N,/SC0*%
X89800000Y-125399999D02*
X109960001Y-125399999D01*
X87780001Y-134100000D02*
X87780001Y-127419999D01*
X87780001Y-127419999D02*
X89800000Y-125399999D01*
X109960001Y-125399999D02*
X112460001Y-127899999D01*
%TO.N,/SD0*%
X109800001Y-132899999D02*
X109800001Y-130399999D01*
X109920000Y-130280000D02*
X109920000Y-127900000D01*
X90320001Y-134099999D02*
X91520001Y-132899999D01*
X109800001Y-130399999D02*
X109920000Y-130280000D01*
X91520001Y-132899999D02*
X109800001Y-132899999D01*
%TO.N,/SC3*%
X109920001Y-58139999D02*
X109920000Y-114999999D01*
X100680001Y-48899999D02*
X109920001Y-58139999D01*
%TO.N,/SD3*%
X103220001Y-48899999D02*
X112460001Y-58139999D01*
X112460001Y-58139999D02*
X112460001Y-115000000D01*
%TO.N,/SC4*%
X74800000Y-134519999D02*
X74800001Y-117900000D01*
X101540001Y-118299999D02*
X104840001Y-114999999D01*
X85200001Y-118299999D02*
X101540001Y-118299999D01*
X100680000Y-160399999D02*
X74800000Y-134519999D01*
X84800001Y-117900000D02*
X85200001Y-118299999D01*
%TO.N,/SD4*%
X84800001Y-120400000D02*
X101980000Y-120400000D01*
X77300001Y-134479999D02*
X77300001Y-120400000D01*
X103220001Y-160399999D02*
X77300001Y-134479999D01*
X101980000Y-120400000D02*
X107380001Y-114999999D01*
%TO.N,/SDA*%
X99087956Y-171736308D02*
X113230092Y-157594173D01*
X113230092Y-157594173D02*
X115695847Y-157594173D01*
X98018177Y-171736308D02*
X99087956Y-171736308D01*
%TO.N,/SCL*%
X128070215Y-148755338D02*
X128070215Y-138148736D01*
X106857012Y-169968541D02*
X128070215Y-148755338D01*
X128070215Y-138148736D02*
X132435108Y-133783843D01*
X132435108Y-133783843D02*
X132435108Y-117764892D01*
X127300001Y-122900000D02*
X132435108Y-117764892D01*
%TO.N,/VIN 5V*%
X72610000Y-91399999D02*
X77535001Y-91399999D01*
X107950000Y-39859999D02*
X107990001Y-39900000D01*
X108110001Y-150399999D02*
X108110001Y-147709999D01*
X102800000Y-39859999D02*
X107950000Y-39859999D01*
X98018177Y-178094077D02*
X98300412Y-178094077D01*
X108110001Y-147709999D02*
X103800000Y-143399999D01*
X98300412Y-178094077D02*
X106084779Y-185878444D01*
X94994078Y-178094077D02*
X98018177Y-178094077D01*
X100454078Y-178094077D02*
X102260000Y-179899999D01*
X98018177Y-178094077D02*
X100454078Y-178094077D01*
X89800000Y-122899999D02*
X84800001Y-122900000D01*
%TO.N,3.3*%
X129300001Y-65399999D02*
X115800001Y-51899999D01*
X118740001Y-134100000D02*
X118740001Y-137340000D01*
X121300000Y-102319999D02*
X124720001Y-102320000D01*
X82800000Y-133399999D02*
X82800000Y-137399999D01*
X124800001Y-102400000D02*
X124800001Y-100900000D01*
X82800000Y-82399999D02*
X82880000Y-82319999D01*
X110800000Y-137399999D02*
X118800000Y-137399999D01*
X124800001Y-100900000D02*
X129300001Y-100899999D01*
X92860001Y-137339999D02*
X92800001Y-137399999D01*
X92800001Y-137399999D02*
X110800000Y-137399999D01*
X110800000Y-155360000D02*
X105760001Y-160399999D01*
X108760001Y-51900000D02*
X105760001Y-48899999D01*
X83340001Y-107359999D02*
X82800000Y-107899999D01*
X129300001Y-76899999D02*
X121300000Y-76900000D01*
X118800000Y-137399999D02*
X124800001Y-137399999D01*
X92860001Y-134099999D02*
X92860001Y-137339999D01*
X115800001Y-51899999D02*
X108760001Y-51900000D01*
X129300001Y-76899999D02*
X129300001Y-65399999D01*
X82800000Y-107899999D02*
X82800000Y-111899999D01*
X82800000Y-137399999D02*
X92800001Y-137399999D01*
X82800000Y-82399999D02*
X82800000Y-107899999D01*
X110800000Y-137399999D02*
X110800000Y-155360000D01*
X85270001Y-107359999D02*
X83340001Y-107359999D01*
X129300001Y-100899999D02*
X129300001Y-76899999D01*
X124720001Y-102320000D02*
X124800001Y-102400000D01*
X82800000Y-111899999D02*
X82800000Y-133399999D01*
X85270001Y-82320000D02*
X82880000Y-82319999D01*
X124800001Y-137399999D02*
X124800001Y-102400000D01*
X118740001Y-137340000D02*
X118800000Y-137399999D01*
%TO.N,SC1*%
X113660001Y-131779999D02*
X117540000Y-127899999D01*
X113660001Y-134099999D02*
X113660001Y-131779999D01*
%TD*%
M02*
