%TF.GenerationSoftware,KiCad,Pcbnew,8.0.1*%
%TF.CreationDate,2024-04-24T16:38:48-04:00*%
%TF.ProjectId,RGBsensorBoard,52474273-656e-4736-9f72-426f6172642e,rev?*%
%TF.SameCoordinates,Original*%
%TF.FileFunction,Drillmap*%
%TF.FilePolarity,Positive*%
%FSLAX45Y45*%
G04 Gerber Fmt 4.5, Leading zero omitted, Abs format (unit mm)*
G04 Created by KiCad (PCBNEW 8.0.1) date 2024-04-24 16:38:48*
%MOMM*%
%LPD*%
G01*
G04 APERTURE LIST*
%ADD10C,0.050000*%
%ADD11C,0.200000*%
%ADD12C,0.100000*%
%ADD13C,0.400000*%
G04 APERTURE END LIST*
D10*
X13935568Y-1281242D02*
X13935567Y-13881242D01*
X1335568Y-13881242D01*
X1335568Y-1281242D01*
X13935568Y-1281242D01*
D11*
D12*
X2735000Y-11735000D02*
X2765000Y-11765000D01*
X2765000Y-11735000D02*
X2735000Y-11765000D01*
X3485000Y-12235000D02*
X3515000Y-12265000D01*
X3515000Y-12235000D02*
X3485000Y-12265000D01*
X4900029Y-6286425D02*
X4930029Y-6316425D01*
X4930029Y-6286425D02*
X4900029Y-6316425D01*
X4900029Y-6639978D02*
X4930029Y-6669978D01*
X4930029Y-6639978D02*
X4900029Y-6669978D01*
X4985000Y-11985000D02*
X5015000Y-12015000D01*
X5015000Y-11985000D02*
X4985000Y-12015000D01*
X5253582Y-7347085D02*
X5283582Y-7377085D01*
X5283582Y-7347085D02*
X5253582Y-7377085D01*
X5430359Y-7170309D02*
X5460359Y-7200309D01*
X5460359Y-7170309D02*
X5430359Y-7200309D01*
X5607136Y-6993532D02*
X5637136Y-7023532D01*
X5637136Y-6993532D02*
X5607136Y-7023532D01*
X5607136Y-7700639D02*
X5637136Y-7730639D01*
X5637136Y-7700639D02*
X5607136Y-7730639D01*
X7021349Y-6286425D02*
X7051349Y-6316425D01*
X7051349Y-6286425D02*
X7021349Y-6316425D01*
X8258786Y-10352289D02*
X8288786Y-10382289D01*
X8288786Y-10352289D02*
X8258786Y-10382289D01*
X8435563Y-10175512D02*
X8465563Y-10205512D01*
X8465563Y-10175512D02*
X8435563Y-10205512D01*
X9354802Y-9114852D02*
X9384802Y-9144852D01*
X9384802Y-9114852D02*
X9354802Y-9144852D01*
X12235000Y-2235000D02*
X12265000Y-2265000D01*
X12265000Y-2235000D02*
X12235000Y-2265000D01*
X12678203Y-13003939D02*
X12708203Y-13033939D01*
X12708203Y-13003939D02*
X12678203Y-13033939D01*
X2126602Y-11223726D02*
G75*
G02*
X2046602Y-11223726I-40000J0D01*
G01*
X2046602Y-11223726D02*
G75*
G02*
X2126602Y-11223726I40000J0D01*
G01*
X2126602Y-11985726D02*
G75*
G02*
X2046602Y-11985726I-40000J0D01*
G01*
X2046602Y-11985726D02*
G75*
G02*
X2126602Y-11985726I40000J0D01*
G01*
X4473489Y-10416079D02*
G75*
G02*
X4393489Y-10416079I-40000J0D01*
G01*
X4393489Y-10416079D02*
G75*
G02*
X4473489Y-10416079I40000J0D01*
G01*
X5012305Y-10954895D02*
G75*
G02*
X4932305Y-10954895I-40000J0D01*
G01*
X4932305Y-10954895D02*
G75*
G02*
X5012305Y-10954895I40000J0D01*
G01*
X6135190Y-3733920D02*
G75*
G02*
X6055190Y-3733920I-40000J0D01*
G01*
X6055190Y-3733920D02*
G75*
G02*
X6135190Y-3733920I40000J0D01*
G01*
X6674005Y-4272736D02*
G75*
G02*
X6594005Y-4272736I-40000J0D01*
G01*
X6594005Y-4272736D02*
G75*
G02*
X6674005Y-4272736I40000J0D01*
G01*
X9281815Y-6217279D02*
G75*
G02*
X9201815Y-6217279I-40000J0D01*
G01*
X9201815Y-6217279D02*
G75*
G02*
X9281815Y-6217279I40000J0D01*
G01*
X9820631Y-5678464D02*
G75*
G02*
X9740631Y-5678464I-40000J0D01*
G01*
X9740631Y-5678464D02*
G75*
G02*
X9820631Y-5678464I40000J0D01*
G01*
X10744819Y-8484971D02*
G75*
G02*
X10664819Y-8484971I-40000J0D01*
G01*
X10664819Y-8484971D02*
G75*
G02*
X10744819Y-8484971I40000J0D01*
G01*
X11283635Y-9023786D02*
G75*
G02*
X11203635Y-9023786I-40000J0D01*
G01*
X11203635Y-9023786D02*
G75*
G02*
X11283635Y-9023786I40000J0D01*
G01*
X11778000Y-1750000D02*
G75*
G02*
X11698000Y-1750000I-40000J0D01*
G01*
X11698000Y-1750000D02*
G75*
G02*
X11778000Y-1750000I40000J0D01*
G01*
X12540000Y-1750000D02*
G75*
G02*
X12460000Y-1750000I-40000J0D01*
G01*
X12460000Y-1750000D02*
G75*
G02*
X12540000Y-1750000I40000J0D01*
G01*
X12817349Y-3132880D02*
G75*
G02*
X12737349Y-3132880I-40000J0D01*
G01*
X12737349Y-3132880D02*
G75*
G02*
X12817349Y-3132880I40000J0D01*
G01*
X13356165Y-3671695D02*
G75*
G02*
X13276165Y-3671695I-40000J0D01*
G01*
X13276165Y-3671695D02*
G75*
G02*
X13356165Y-3671695I40000J0D01*
G01*
X2472682Y-12582202D02*
X2472682Y-12672202D01*
X2427682Y-12627202D02*
X2517682Y-12627202D01*
X2652287Y-12761807D02*
X2652287Y-12851807D01*
X2607287Y-12806807D02*
X2697287Y-12806807D01*
X5162516Y-10110157D02*
X5162516Y-10200157D01*
X5117516Y-10155157D02*
X5207516Y-10155157D01*
X5342121Y-9930552D02*
X5342121Y-10020552D01*
X5297121Y-9975552D02*
X5387121Y-9975552D01*
X6982256Y-4575986D02*
X6982256Y-4665986D01*
X6937256Y-4620986D02*
X7027256Y-4620986D01*
X7161861Y-4755591D02*
X7161861Y-4845591D01*
X7116861Y-4800591D02*
X7206861Y-4800591D01*
X8804116Y-6609978D02*
X8804116Y-6699978D01*
X8759116Y-6654978D02*
X8849116Y-6654978D01*
X8983721Y-6430373D02*
X8983721Y-6520373D01*
X8938721Y-6475373D02*
X9028721Y-6475373D01*
X10215501Y-7950653D02*
X10215501Y-8040653D01*
X10170501Y-7995653D02*
X10260501Y-7995653D01*
X10395106Y-8130258D02*
X10395106Y-8220258D01*
X10350106Y-8175258D02*
X10440106Y-8175258D01*
X12233584Y-2897668D02*
X12233584Y-2987668D01*
X12188584Y-2942668D02*
X12278584Y-2942668D01*
X12413189Y-2718063D02*
X12413189Y-2808063D01*
X12368189Y-2763063D02*
X12458189Y-2763063D01*
X1996540Y-12996540D02*
X1996540Y-12925829D01*
X1925829Y-12925829D01*
X1925829Y-12996540D01*
X1996540Y-12996540D01*
X2176146Y-13176145D02*
X2176146Y-13105434D01*
X2105434Y-13105434D01*
X2105434Y-13176145D01*
X2176146Y-13176145D01*
X2355751Y-13355751D02*
X2355751Y-13285039D01*
X2285039Y-13285039D01*
X2285039Y-13355751D01*
X2355751Y-13355751D01*
X2535356Y-13535356D02*
X2535356Y-13464644D01*
X2464644Y-13464644D01*
X2464644Y-13535356D01*
X2535356Y-13535356D01*
X3595568Y-10992372D02*
X3595568Y-10921660D01*
X3524857Y-10921660D01*
X3524857Y-10992372D01*
X3595568Y-10992372D01*
X3775173Y-11171977D02*
X3775173Y-11101266D01*
X3704462Y-11101266D01*
X3704462Y-11171977D01*
X3775173Y-11171977D01*
X3954778Y-11351582D02*
X3954778Y-11280871D01*
X3884067Y-11280871D01*
X3884067Y-11351582D01*
X3954778Y-11351582D01*
X4134383Y-11531187D02*
X4134383Y-11460476D01*
X4063672Y-11460476D01*
X4063672Y-11531187D01*
X4134383Y-11531187D01*
X4313989Y-11710792D02*
X4313989Y-11640081D01*
X4243277Y-11640081D01*
X4243277Y-11710792D01*
X4313989Y-11710792D01*
X4543091Y-8220513D02*
X4543091Y-8149802D01*
X4472380Y-8149802D01*
X4472380Y-8220513D01*
X4543091Y-8220513D01*
X4722696Y-8400118D02*
X4722696Y-8329407D01*
X4651985Y-8329407D01*
X4651985Y-8400118D01*
X4722696Y-8400118D01*
X4902301Y-8579724D02*
X4902301Y-8509012D01*
X4831590Y-8509012D01*
X4831590Y-8579724D01*
X4902301Y-8579724D01*
X5081907Y-8759329D02*
X5081907Y-8688617D01*
X5011195Y-8688617D01*
X5011195Y-8759329D01*
X5081907Y-8759329D01*
X5261512Y-8938934D02*
X5261512Y-8868222D01*
X5190800Y-8868222D01*
X5190800Y-8938934D01*
X5261512Y-8938934D01*
X5289796Y-8090406D02*
X5289796Y-8019694D01*
X5219085Y-8019694D01*
X5219085Y-8090406D01*
X5289796Y-8090406D01*
X5469401Y-8270011D02*
X5469401Y-8199299D01*
X5398690Y-8199299D01*
X5398690Y-8270011D01*
X5469401Y-8270011D01*
X5649006Y-8449616D02*
X5649006Y-8378904D01*
X5578295Y-8378904D01*
X5578295Y-8449616D01*
X5649006Y-8449616D01*
X5828611Y-8629221D02*
X5828611Y-8558510D01*
X5757900Y-8558510D01*
X5757900Y-8629221D01*
X5828611Y-8629221D01*
X6008216Y-8808826D02*
X6008216Y-8738115D01*
X5937505Y-8738115D01*
X5937505Y-8808826D01*
X6008216Y-8808826D01*
X6187821Y-8988431D02*
X6187821Y-8917720D01*
X6117110Y-8917720D01*
X6117110Y-8988431D01*
X6187821Y-8988431D01*
X6201964Y-7178238D02*
X6201964Y-7107526D01*
X6131252Y-7107526D01*
X6131252Y-7178238D01*
X6201964Y-7178238D01*
X6256411Y-6511436D02*
X6256411Y-6440725D01*
X6185699Y-6440725D01*
X6185699Y-6511436D01*
X6256411Y-6511436D01*
X6367427Y-9168036D02*
X6367427Y-9097325D01*
X6296715Y-9097325D01*
X6296715Y-9168036D01*
X6367427Y-9168036D01*
X6373083Y-10050506D02*
X6373083Y-9979794D01*
X6302372Y-9979794D01*
X6302372Y-10050506D01*
X6373083Y-10050506D01*
X6381569Y-7357843D02*
X6381569Y-7287131D01*
X6310857Y-7287131D01*
X6310857Y-7357843D01*
X6381569Y-7357843D01*
X6436016Y-6331831D02*
X6436016Y-6261120D01*
X6365304Y-6261120D01*
X6365304Y-6331831D01*
X6436016Y-6331831D01*
X6547032Y-9347642D02*
X6547032Y-9276930D01*
X6476320Y-9276930D01*
X6476320Y-9347642D01*
X6547032Y-9347642D01*
X6552688Y-10230111D02*
X6552688Y-10159399D01*
X6481977Y-10159399D01*
X6481977Y-10230111D01*
X6552688Y-10230111D01*
X6561174Y-7537448D02*
X6561174Y-7466737D01*
X6490462Y-7466737D01*
X6490462Y-7537448D01*
X6561174Y-7537448D01*
X6615621Y-6152226D02*
X6615621Y-6081515D01*
X6544910Y-6081515D01*
X6544910Y-6152226D01*
X6615621Y-6152226D01*
X6726637Y-9527247D02*
X6726637Y-9456535D01*
X6655925Y-9456535D01*
X6655925Y-9527247D01*
X6726637Y-9527247D01*
X6732294Y-10409716D02*
X6732294Y-10339005D01*
X6661582Y-10339005D01*
X6661582Y-10409716D01*
X6732294Y-10409716D01*
X6740779Y-7717053D02*
X6740779Y-7646342D01*
X6670068Y-7646342D01*
X6670068Y-7717053D01*
X6740779Y-7717053D01*
X6795226Y-5972621D02*
X6795226Y-5901909D01*
X6724515Y-5901909D01*
X6724515Y-5972621D01*
X6795226Y-5972621D01*
X6906242Y-9706852D02*
X6906242Y-9636140D01*
X6835531Y-9636140D01*
X6835531Y-9706852D01*
X6906242Y-9706852D01*
X6911899Y-10589321D02*
X6911899Y-10518610D01*
X6841187Y-10518610D01*
X6841187Y-10589321D01*
X6911899Y-10589321D01*
X6920384Y-7896658D02*
X6920384Y-7825947D01*
X6849673Y-7825947D01*
X6849673Y-7896658D01*
X6920384Y-7896658D01*
X6974831Y-5793016D02*
X6974831Y-5722304D01*
X6904120Y-5722304D01*
X6904120Y-5793016D01*
X6974831Y-5793016D01*
X7085847Y-9886457D02*
X7085847Y-9815745D01*
X7015136Y-9815745D01*
X7015136Y-9886457D01*
X7085847Y-9886457D01*
X7091504Y-10768926D02*
X7091504Y-10698215D01*
X7020792Y-10698215D01*
X7020792Y-10768926D01*
X7091504Y-10768926D01*
X7099989Y-8076263D02*
X7099989Y-8005552D01*
X7029278Y-8005552D01*
X7029278Y-8076263D01*
X7099989Y-8076263D01*
X7265452Y-10066062D02*
X7265452Y-9995351D01*
X7194741Y-9995351D01*
X7194741Y-10066062D01*
X7265452Y-10066062D01*
X7279594Y-8255868D02*
X7279594Y-8185157D01*
X7208883Y-8185157D01*
X7208883Y-8255868D01*
X7279594Y-8255868D01*
X7459199Y-8435474D02*
X7459199Y-8364762D01*
X7388488Y-8364762D01*
X7388488Y-8435474D01*
X7459199Y-8435474D01*
X7638805Y-8615079D02*
X7638805Y-8544367D01*
X7568093Y-8544367D01*
X7568093Y-8615079D01*
X7638805Y-8615079D01*
X7818410Y-8794684D02*
X7818410Y-8723973D01*
X7747698Y-8723973D01*
X7747698Y-8794684D01*
X7818410Y-8794684D01*
X7998015Y-8974289D02*
X7998015Y-8903578D01*
X7927303Y-8903578D01*
X7927303Y-8974289D01*
X7998015Y-8974289D01*
X8027006Y-4740841D02*
X8027006Y-4670129D01*
X7956295Y-4670129D01*
X7956295Y-4740841D01*
X8027006Y-4740841D01*
X8177620Y-9153894D02*
X8177620Y-9083183D01*
X8106908Y-9083183D01*
X8106908Y-9153894D01*
X8177620Y-9153894D01*
X8206611Y-4561236D02*
X8206611Y-4490524D01*
X8135900Y-4490524D01*
X8135900Y-4561236D01*
X8206611Y-4561236D01*
X8386216Y-4381631D02*
X8386216Y-4310919D01*
X8315505Y-4310919D01*
X8315505Y-4381631D01*
X8386216Y-4381631D01*
X8565822Y-4202025D02*
X8565822Y-4131314D01*
X8495110Y-4131314D01*
X8495110Y-4202025D01*
X8565822Y-4202025D01*
X8745427Y-4022420D02*
X8745427Y-3951709D01*
X8674715Y-3951709D01*
X8674715Y-4022420D01*
X8745427Y-4022420D01*
X8801288Y-9061970D02*
X8801288Y-8991259D01*
X8730577Y-8991259D01*
X8730577Y-9061970D01*
X8801288Y-9061970D01*
X8980893Y-8882365D02*
X8980893Y-8811654D01*
X8910182Y-8811654D01*
X8910182Y-8882365D01*
X8980893Y-8882365D01*
X9160498Y-8702760D02*
X9160498Y-8632049D01*
X9089787Y-8632049D01*
X9089787Y-8702760D01*
X9160498Y-8702760D01*
X9340104Y-8523155D02*
X9340104Y-8452444D01*
X9269392Y-8452444D01*
X9269392Y-8523155D01*
X9340104Y-8523155D01*
X9519709Y-8343550D02*
X9519709Y-8272838D01*
X9448997Y-8272838D01*
X9448997Y-8343550D01*
X9519709Y-8343550D01*
X10598754Y-7264505D02*
X10598754Y-7193793D01*
X10528042Y-7193793D01*
X10528042Y-7264505D01*
X10598754Y-7264505D01*
X10778359Y-7084900D02*
X10778359Y-7014188D01*
X10707647Y-7014188D01*
X10707647Y-7084900D01*
X10778359Y-7084900D01*
X10957964Y-6905295D02*
X10957964Y-6834583D01*
X10887253Y-6834583D01*
X10887253Y-6905295D01*
X10957964Y-6905295D01*
X11137569Y-6725689D02*
X11137569Y-6654978D01*
X11066858Y-6654978D01*
X11066858Y-6725689D01*
X11137569Y-6725689D01*
X11317174Y-6546084D02*
X11317174Y-6475373D01*
X11246463Y-6475373D01*
X11246463Y-6546084D01*
X11317174Y-6546084D01*
X11479809Y-3108131D02*
X11479809Y-3037420D01*
X11409097Y-3037420D01*
X11409097Y-3108131D01*
X11479809Y-3108131D01*
X11659414Y-3287736D02*
X11659414Y-3217025D01*
X11588702Y-3217025D01*
X11588702Y-3287736D01*
X11659414Y-3287736D01*
X11839019Y-3467341D02*
X11839019Y-3396630D01*
X11768307Y-3396630D01*
X11768307Y-3467341D01*
X11839019Y-3467341D01*
X12018624Y-3646947D02*
X12018624Y-3576235D01*
X11947913Y-3576235D01*
X11947913Y-3646947D01*
X12018624Y-3646947D01*
X12198229Y-3826552D02*
X12198229Y-3755840D01*
X12127518Y-3755840D01*
X12127518Y-3826552D01*
X12198229Y-3826552D01*
X13285356Y-1785356D02*
X13285356Y-1714644D01*
X13214644Y-1714644D01*
X13214644Y-1785356D01*
X13285356Y-1785356D01*
X13464961Y-1964961D02*
X13464961Y-1894249D01*
X13394249Y-1894249D01*
X13394249Y-1964961D01*
X13464961Y-1964961D01*
X13471021Y-12427204D02*
X13471021Y-12356492D01*
X13400310Y-12356492D01*
X13400310Y-12427204D01*
X13471021Y-12427204D01*
X13471021Y-12681204D02*
X13471021Y-12610492D01*
X13400310Y-12610492D01*
X13400310Y-12681204D01*
X13471021Y-12681204D01*
X13471021Y-12935204D02*
X13471021Y-12864492D01*
X13400310Y-12864492D01*
X13400310Y-12935204D01*
X13471021Y-12935204D01*
X13471021Y-13189204D02*
X13471021Y-13118492D01*
X13400310Y-13118492D01*
X13400310Y-13189204D01*
X13471021Y-13189204D01*
X13471021Y-13443204D02*
X13471021Y-13372492D01*
X13400310Y-13372492D01*
X13400310Y-13443204D01*
X13471021Y-13443204D01*
X13471021Y-13697204D02*
X13471021Y-13626492D01*
X13400310Y-13626492D01*
X13400310Y-13697204D01*
X13471021Y-13697204D01*
D13*
X3250000Y-3700000D02*
X3450000Y-3500000D01*
X3250000Y-3300000D01*
X3050000Y-3500000D01*
X3250000Y-3700000D01*
X7500000Y-12450000D02*
X7700000Y-12250000D01*
X7500000Y-12050000D01*
X7300000Y-12250000D01*
X7500000Y-12450000D01*
D11*
X1593844Y-14195226D02*
X1593844Y-13995226D01*
X1593844Y-13995226D02*
X1641463Y-13995226D01*
X1641463Y-13995226D02*
X1670035Y-14004750D01*
X1670035Y-14004750D02*
X1689082Y-14023798D01*
X1689082Y-14023798D02*
X1698606Y-14042845D01*
X1698606Y-14042845D02*
X1708130Y-14080940D01*
X1708130Y-14080940D02*
X1708130Y-14109512D01*
X1708130Y-14109512D02*
X1698606Y-14147607D01*
X1698606Y-14147607D02*
X1689082Y-14166655D01*
X1689082Y-14166655D02*
X1670035Y-14185702D01*
X1670035Y-14185702D02*
X1641463Y-14195226D01*
X1641463Y-14195226D02*
X1593844Y-14195226D01*
X1793844Y-14195226D02*
X1793844Y-14061893D01*
X1793844Y-14099988D02*
X1803368Y-14080940D01*
X1803368Y-14080940D02*
X1812892Y-14071417D01*
X1812892Y-14071417D02*
X1831940Y-14061893D01*
X1831940Y-14061893D02*
X1850987Y-14061893D01*
X1917654Y-14195226D02*
X1917654Y-14061893D01*
X1917654Y-13995226D02*
X1908130Y-14004750D01*
X1908130Y-14004750D02*
X1917654Y-14014274D01*
X1917654Y-14014274D02*
X1927178Y-14004750D01*
X1927178Y-14004750D02*
X1917654Y-13995226D01*
X1917654Y-13995226D02*
X1917654Y-14014274D01*
X2041463Y-14195226D02*
X2022416Y-14185702D01*
X2022416Y-14185702D02*
X2012892Y-14166655D01*
X2012892Y-14166655D02*
X2012892Y-13995226D01*
X2146225Y-14195226D02*
X2127178Y-14185702D01*
X2127178Y-14185702D02*
X2117654Y-14166655D01*
X2117654Y-14166655D02*
X2117654Y-13995226D01*
X2374797Y-14195226D02*
X2374797Y-13995226D01*
X2374797Y-13995226D02*
X2441464Y-14138083D01*
X2441464Y-14138083D02*
X2508130Y-13995226D01*
X2508130Y-13995226D02*
X2508130Y-14195226D01*
X2689083Y-14195226D02*
X2689083Y-14090464D01*
X2689083Y-14090464D02*
X2679559Y-14071417D01*
X2679559Y-14071417D02*
X2660511Y-14061893D01*
X2660511Y-14061893D02*
X2622416Y-14061893D01*
X2622416Y-14061893D02*
X2603368Y-14071417D01*
X2689083Y-14185702D02*
X2670035Y-14195226D01*
X2670035Y-14195226D02*
X2622416Y-14195226D01*
X2622416Y-14195226D02*
X2603368Y-14185702D01*
X2603368Y-14185702D02*
X2593844Y-14166655D01*
X2593844Y-14166655D02*
X2593844Y-14147607D01*
X2593844Y-14147607D02*
X2603368Y-14128559D01*
X2603368Y-14128559D02*
X2622416Y-14119036D01*
X2622416Y-14119036D02*
X2670035Y-14119036D01*
X2670035Y-14119036D02*
X2689083Y-14109512D01*
X2784321Y-14061893D02*
X2784321Y-14261893D01*
X2784321Y-14071417D02*
X2803368Y-14061893D01*
X2803368Y-14061893D02*
X2841463Y-14061893D01*
X2841463Y-14061893D02*
X2860511Y-14071417D01*
X2860511Y-14071417D02*
X2870035Y-14080940D01*
X2870035Y-14080940D02*
X2879559Y-14099988D01*
X2879559Y-14099988D02*
X2879559Y-14157131D01*
X2879559Y-14157131D02*
X2870035Y-14176178D01*
X2870035Y-14176178D02*
X2860511Y-14185702D01*
X2860511Y-14185702D02*
X2841463Y-14195226D01*
X2841463Y-14195226D02*
X2803368Y-14195226D01*
X2803368Y-14195226D02*
X2784321Y-14185702D01*
X2965273Y-14176178D02*
X2974797Y-14185702D01*
X2974797Y-14185702D02*
X2965273Y-14195226D01*
X2965273Y-14195226D02*
X2955749Y-14185702D01*
X2955749Y-14185702D02*
X2965273Y-14176178D01*
X2965273Y-14176178D02*
X2965273Y-14195226D01*
X2965273Y-14071417D02*
X2974797Y-14080940D01*
X2974797Y-14080940D02*
X2965273Y-14090464D01*
X2965273Y-14090464D02*
X2955749Y-14080940D01*
X2955749Y-14080940D02*
X2965273Y-14071417D01*
X2965273Y-14071417D02*
X2965273Y-14090464D01*
D12*
X1303068Y-14508742D02*
X1333068Y-14538742D01*
X1333068Y-14508742D02*
X1303068Y-14538742D01*
D11*
X1631940Y-14415226D02*
X1650987Y-14415226D01*
X1650987Y-14415226D02*
X1670035Y-14424750D01*
X1670035Y-14424750D02*
X1679559Y-14434274D01*
X1679559Y-14434274D02*
X1689082Y-14453321D01*
X1689082Y-14453321D02*
X1698606Y-14491417D01*
X1698606Y-14491417D02*
X1698606Y-14539036D01*
X1698606Y-14539036D02*
X1689082Y-14577131D01*
X1689082Y-14577131D02*
X1679559Y-14596178D01*
X1679559Y-14596178D02*
X1670035Y-14605702D01*
X1670035Y-14605702D02*
X1650987Y-14615226D01*
X1650987Y-14615226D02*
X1631940Y-14615226D01*
X1631940Y-14615226D02*
X1612892Y-14605702D01*
X1612892Y-14605702D02*
X1603368Y-14596178D01*
X1603368Y-14596178D02*
X1593844Y-14577131D01*
X1593844Y-14577131D02*
X1584321Y-14539036D01*
X1584321Y-14539036D02*
X1584321Y-14491417D01*
X1584321Y-14491417D02*
X1593844Y-14453321D01*
X1593844Y-14453321D02*
X1603368Y-14434274D01*
X1603368Y-14434274D02*
X1612892Y-14424750D01*
X1612892Y-14424750D02*
X1631940Y-14415226D01*
X1784321Y-14596178D02*
X1793844Y-14605702D01*
X1793844Y-14605702D02*
X1784321Y-14615226D01*
X1784321Y-14615226D02*
X1774797Y-14605702D01*
X1774797Y-14605702D02*
X1784321Y-14596178D01*
X1784321Y-14596178D02*
X1784321Y-14615226D01*
X1860511Y-14415226D02*
X1984321Y-14415226D01*
X1984321Y-14415226D02*
X1917654Y-14491417D01*
X1917654Y-14491417D02*
X1946225Y-14491417D01*
X1946225Y-14491417D02*
X1965273Y-14500940D01*
X1965273Y-14500940D02*
X1974797Y-14510464D01*
X1974797Y-14510464D02*
X1984321Y-14529512D01*
X1984321Y-14529512D02*
X1984321Y-14577131D01*
X1984321Y-14577131D02*
X1974797Y-14596178D01*
X1974797Y-14596178D02*
X1965273Y-14605702D01*
X1965273Y-14605702D02*
X1946225Y-14615226D01*
X1946225Y-14615226D02*
X1889082Y-14615226D01*
X1889082Y-14615226D02*
X1870035Y-14605702D01*
X1870035Y-14605702D02*
X1860511Y-14596178D01*
X2108130Y-14415226D02*
X2127178Y-14415226D01*
X2127178Y-14415226D02*
X2146225Y-14424750D01*
X2146225Y-14424750D02*
X2155749Y-14434274D01*
X2155749Y-14434274D02*
X2165273Y-14453321D01*
X2165273Y-14453321D02*
X2174797Y-14491417D01*
X2174797Y-14491417D02*
X2174797Y-14539036D01*
X2174797Y-14539036D02*
X2165273Y-14577131D01*
X2165273Y-14577131D02*
X2155749Y-14596178D01*
X2155749Y-14596178D02*
X2146225Y-14605702D01*
X2146225Y-14605702D02*
X2127178Y-14615226D01*
X2127178Y-14615226D02*
X2108130Y-14615226D01*
X2108130Y-14615226D02*
X2089082Y-14605702D01*
X2089082Y-14605702D02*
X2079559Y-14596178D01*
X2079559Y-14596178D02*
X2070035Y-14577131D01*
X2070035Y-14577131D02*
X2060511Y-14539036D01*
X2060511Y-14539036D02*
X2060511Y-14491417D01*
X2060511Y-14491417D02*
X2070035Y-14453321D01*
X2070035Y-14453321D02*
X2079559Y-14434274D01*
X2079559Y-14434274D02*
X2089082Y-14424750D01*
X2089082Y-14424750D02*
X2108130Y-14415226D01*
X2298606Y-14415226D02*
X2317654Y-14415226D01*
X2317654Y-14415226D02*
X2336702Y-14424750D01*
X2336702Y-14424750D02*
X2346225Y-14434274D01*
X2346225Y-14434274D02*
X2355749Y-14453321D01*
X2355749Y-14453321D02*
X2365273Y-14491417D01*
X2365273Y-14491417D02*
X2365273Y-14539036D01*
X2365273Y-14539036D02*
X2355749Y-14577131D01*
X2355749Y-14577131D02*
X2346225Y-14596178D01*
X2346225Y-14596178D02*
X2336702Y-14605702D01*
X2336702Y-14605702D02*
X2317654Y-14615226D01*
X2317654Y-14615226D02*
X2298606Y-14615226D01*
X2298606Y-14615226D02*
X2279559Y-14605702D01*
X2279559Y-14605702D02*
X2270035Y-14596178D01*
X2270035Y-14596178D02*
X2260511Y-14577131D01*
X2260511Y-14577131D02*
X2250987Y-14539036D01*
X2250987Y-14539036D02*
X2250987Y-14491417D01*
X2250987Y-14491417D02*
X2260511Y-14453321D01*
X2260511Y-14453321D02*
X2270035Y-14434274D01*
X2270035Y-14434274D02*
X2279559Y-14424750D01*
X2279559Y-14424750D02*
X2298606Y-14415226D01*
X2450987Y-14615226D02*
X2450987Y-14481893D01*
X2450987Y-14500940D02*
X2460511Y-14491417D01*
X2460511Y-14491417D02*
X2479559Y-14481893D01*
X2479559Y-14481893D02*
X2508130Y-14481893D01*
X2508130Y-14481893D02*
X2527178Y-14491417D01*
X2527178Y-14491417D02*
X2536702Y-14510464D01*
X2536702Y-14510464D02*
X2536702Y-14615226D01*
X2536702Y-14510464D02*
X2546225Y-14491417D01*
X2546225Y-14491417D02*
X2565273Y-14481893D01*
X2565273Y-14481893D02*
X2593844Y-14481893D01*
X2593844Y-14481893D02*
X2612892Y-14491417D01*
X2612892Y-14491417D02*
X2622416Y-14510464D01*
X2622416Y-14510464D02*
X2622416Y-14615226D01*
X2717654Y-14615226D02*
X2717654Y-14481893D01*
X2717654Y-14500940D02*
X2727178Y-14491417D01*
X2727178Y-14491417D02*
X2746225Y-14481893D01*
X2746225Y-14481893D02*
X2774797Y-14481893D01*
X2774797Y-14481893D02*
X2793845Y-14491417D01*
X2793845Y-14491417D02*
X2803368Y-14510464D01*
X2803368Y-14510464D02*
X2803368Y-14615226D01*
X2803368Y-14510464D02*
X2812892Y-14491417D01*
X2812892Y-14491417D02*
X2831940Y-14481893D01*
X2831940Y-14481893D02*
X2860511Y-14481893D01*
X2860511Y-14481893D02*
X2879559Y-14491417D01*
X2879559Y-14491417D02*
X2889083Y-14510464D01*
X2889083Y-14510464D02*
X2889083Y-14615226D01*
X3279559Y-14405702D02*
X3108130Y-14662845D01*
X3536702Y-14415226D02*
X3555749Y-14415226D01*
X3555749Y-14415226D02*
X3574797Y-14424750D01*
X3574797Y-14424750D02*
X3584321Y-14434274D01*
X3584321Y-14434274D02*
X3593845Y-14453321D01*
X3593845Y-14453321D02*
X3603368Y-14491417D01*
X3603368Y-14491417D02*
X3603368Y-14539036D01*
X3603368Y-14539036D02*
X3593845Y-14577131D01*
X3593845Y-14577131D02*
X3584321Y-14596178D01*
X3584321Y-14596178D02*
X3574797Y-14605702D01*
X3574797Y-14605702D02*
X3555749Y-14615226D01*
X3555749Y-14615226D02*
X3536702Y-14615226D01*
X3536702Y-14615226D02*
X3517654Y-14605702D01*
X3517654Y-14605702D02*
X3508130Y-14596178D01*
X3508130Y-14596178D02*
X3498606Y-14577131D01*
X3498606Y-14577131D02*
X3489083Y-14539036D01*
X3489083Y-14539036D02*
X3489083Y-14491417D01*
X3489083Y-14491417D02*
X3498606Y-14453321D01*
X3498606Y-14453321D02*
X3508130Y-14434274D01*
X3508130Y-14434274D02*
X3517654Y-14424750D01*
X3517654Y-14424750D02*
X3536702Y-14415226D01*
X3689083Y-14596178D02*
X3698606Y-14605702D01*
X3698606Y-14605702D02*
X3689083Y-14615226D01*
X3689083Y-14615226D02*
X3679559Y-14605702D01*
X3679559Y-14605702D02*
X3689083Y-14596178D01*
X3689083Y-14596178D02*
X3689083Y-14615226D01*
X3822416Y-14415226D02*
X3841464Y-14415226D01*
X3841464Y-14415226D02*
X3860511Y-14424750D01*
X3860511Y-14424750D02*
X3870035Y-14434274D01*
X3870035Y-14434274D02*
X3879559Y-14453321D01*
X3879559Y-14453321D02*
X3889083Y-14491417D01*
X3889083Y-14491417D02*
X3889083Y-14539036D01*
X3889083Y-14539036D02*
X3879559Y-14577131D01*
X3879559Y-14577131D02*
X3870035Y-14596178D01*
X3870035Y-14596178D02*
X3860511Y-14605702D01*
X3860511Y-14605702D02*
X3841464Y-14615226D01*
X3841464Y-14615226D02*
X3822416Y-14615226D01*
X3822416Y-14615226D02*
X3803368Y-14605702D01*
X3803368Y-14605702D02*
X3793845Y-14596178D01*
X3793845Y-14596178D02*
X3784321Y-14577131D01*
X3784321Y-14577131D02*
X3774797Y-14539036D01*
X3774797Y-14539036D02*
X3774797Y-14491417D01*
X3774797Y-14491417D02*
X3784321Y-14453321D01*
X3784321Y-14453321D02*
X3793845Y-14434274D01*
X3793845Y-14434274D02*
X3803368Y-14424750D01*
X3803368Y-14424750D02*
X3822416Y-14415226D01*
X4079559Y-14615226D02*
X3965273Y-14615226D01*
X4022416Y-14615226D02*
X4022416Y-14415226D01*
X4022416Y-14415226D02*
X4003368Y-14443798D01*
X4003368Y-14443798D02*
X3984321Y-14462845D01*
X3984321Y-14462845D02*
X3965273Y-14472369D01*
X4270035Y-14615226D02*
X4155749Y-14615226D01*
X4212892Y-14615226D02*
X4212892Y-14415226D01*
X4212892Y-14415226D02*
X4193845Y-14443798D01*
X4193845Y-14443798D02*
X4174797Y-14462845D01*
X4174797Y-14462845D02*
X4155749Y-14472369D01*
X4384321Y-14500940D02*
X4365273Y-14491417D01*
X4365273Y-14491417D02*
X4355749Y-14481893D01*
X4355749Y-14481893D02*
X4346226Y-14462845D01*
X4346226Y-14462845D02*
X4346226Y-14453321D01*
X4346226Y-14453321D02*
X4355749Y-14434274D01*
X4355749Y-14434274D02*
X4365273Y-14424750D01*
X4365273Y-14424750D02*
X4384321Y-14415226D01*
X4384321Y-14415226D02*
X4422416Y-14415226D01*
X4422416Y-14415226D02*
X4441464Y-14424750D01*
X4441464Y-14424750D02*
X4450988Y-14434274D01*
X4450988Y-14434274D02*
X4460511Y-14453321D01*
X4460511Y-14453321D02*
X4460511Y-14462845D01*
X4460511Y-14462845D02*
X4450988Y-14481893D01*
X4450988Y-14481893D02*
X4441464Y-14491417D01*
X4441464Y-14491417D02*
X4422416Y-14500940D01*
X4422416Y-14500940D02*
X4384321Y-14500940D01*
X4384321Y-14500940D02*
X4365273Y-14510464D01*
X4365273Y-14510464D02*
X4355749Y-14519988D01*
X4355749Y-14519988D02*
X4346226Y-14539036D01*
X4346226Y-14539036D02*
X4346226Y-14577131D01*
X4346226Y-14577131D02*
X4355749Y-14596178D01*
X4355749Y-14596178D02*
X4365273Y-14605702D01*
X4365273Y-14605702D02*
X4384321Y-14615226D01*
X4384321Y-14615226D02*
X4422416Y-14615226D01*
X4422416Y-14615226D02*
X4441464Y-14605702D01*
X4441464Y-14605702D02*
X4450988Y-14596178D01*
X4450988Y-14596178D02*
X4460511Y-14577131D01*
X4460511Y-14577131D02*
X4460511Y-14539036D01*
X4460511Y-14539036D02*
X4450988Y-14519988D01*
X4450988Y-14519988D02*
X4441464Y-14510464D01*
X4441464Y-14510464D02*
X4422416Y-14500940D01*
X4536702Y-14415226D02*
X4536702Y-14453321D01*
X4612892Y-14415226D02*
X4612892Y-14453321D01*
X4908131Y-14691417D02*
X4898607Y-14681893D01*
X4898607Y-14681893D02*
X4879559Y-14653321D01*
X4879559Y-14653321D02*
X4870035Y-14634274D01*
X4870035Y-14634274D02*
X4860511Y-14605702D01*
X4860511Y-14605702D02*
X4850988Y-14558083D01*
X4850988Y-14558083D02*
X4850988Y-14519988D01*
X4850988Y-14519988D02*
X4860511Y-14472369D01*
X4860511Y-14472369D02*
X4870035Y-14443798D01*
X4870035Y-14443798D02*
X4879559Y-14424750D01*
X4879559Y-14424750D02*
X4898607Y-14396178D01*
X4898607Y-14396178D02*
X4908131Y-14386655D01*
X5089083Y-14615226D02*
X4974797Y-14615226D01*
X5031940Y-14615226D02*
X5031940Y-14415226D01*
X5031940Y-14415226D02*
X5012892Y-14443798D01*
X5012892Y-14443798D02*
X4993845Y-14462845D01*
X4993845Y-14462845D02*
X4974797Y-14472369D01*
X5270035Y-14415226D02*
X5174797Y-14415226D01*
X5174797Y-14415226D02*
X5165273Y-14510464D01*
X5165273Y-14510464D02*
X5174797Y-14500940D01*
X5174797Y-14500940D02*
X5193845Y-14491417D01*
X5193845Y-14491417D02*
X5241464Y-14491417D01*
X5241464Y-14491417D02*
X5260511Y-14500940D01*
X5260511Y-14500940D02*
X5270035Y-14510464D01*
X5270035Y-14510464D02*
X5279559Y-14529512D01*
X5279559Y-14529512D02*
X5279559Y-14577131D01*
X5279559Y-14577131D02*
X5270035Y-14596178D01*
X5270035Y-14596178D02*
X5260511Y-14605702D01*
X5260511Y-14605702D02*
X5241464Y-14615226D01*
X5241464Y-14615226D02*
X5193845Y-14615226D01*
X5193845Y-14615226D02*
X5174797Y-14605702D01*
X5174797Y-14605702D02*
X5165273Y-14596178D01*
X5517654Y-14615226D02*
X5517654Y-14415226D01*
X5603369Y-14615226D02*
X5603369Y-14510464D01*
X5603369Y-14510464D02*
X5593845Y-14491417D01*
X5593845Y-14491417D02*
X5574797Y-14481893D01*
X5574797Y-14481893D02*
X5546226Y-14481893D01*
X5546226Y-14481893D02*
X5527178Y-14491417D01*
X5527178Y-14491417D02*
X5517654Y-14500940D01*
X5727178Y-14615226D02*
X5708130Y-14605702D01*
X5708130Y-14605702D02*
X5698607Y-14596178D01*
X5698607Y-14596178D02*
X5689083Y-14577131D01*
X5689083Y-14577131D02*
X5689083Y-14519988D01*
X5689083Y-14519988D02*
X5698607Y-14500940D01*
X5698607Y-14500940D02*
X5708130Y-14491417D01*
X5708130Y-14491417D02*
X5727178Y-14481893D01*
X5727178Y-14481893D02*
X5755750Y-14481893D01*
X5755750Y-14481893D02*
X5774797Y-14491417D01*
X5774797Y-14491417D02*
X5784321Y-14500940D01*
X5784321Y-14500940D02*
X5793845Y-14519988D01*
X5793845Y-14519988D02*
X5793845Y-14577131D01*
X5793845Y-14577131D02*
X5784321Y-14596178D01*
X5784321Y-14596178D02*
X5774797Y-14605702D01*
X5774797Y-14605702D02*
X5755750Y-14615226D01*
X5755750Y-14615226D02*
X5727178Y-14615226D01*
X5908130Y-14615226D02*
X5889083Y-14605702D01*
X5889083Y-14605702D02*
X5879559Y-14586655D01*
X5879559Y-14586655D02*
X5879559Y-14415226D01*
X6060511Y-14605702D02*
X6041464Y-14615226D01*
X6041464Y-14615226D02*
X6003369Y-14615226D01*
X6003369Y-14615226D02*
X5984321Y-14605702D01*
X5984321Y-14605702D02*
X5974797Y-14586655D01*
X5974797Y-14586655D02*
X5974797Y-14510464D01*
X5974797Y-14510464D02*
X5984321Y-14491417D01*
X5984321Y-14491417D02*
X6003369Y-14481893D01*
X6003369Y-14481893D02*
X6041464Y-14481893D01*
X6041464Y-14481893D02*
X6060511Y-14491417D01*
X6060511Y-14491417D02*
X6070035Y-14510464D01*
X6070035Y-14510464D02*
X6070035Y-14529512D01*
X6070035Y-14529512D02*
X5974797Y-14548559D01*
X6146226Y-14605702D02*
X6165273Y-14615226D01*
X6165273Y-14615226D02*
X6203369Y-14615226D01*
X6203369Y-14615226D02*
X6222416Y-14605702D01*
X6222416Y-14605702D02*
X6231940Y-14586655D01*
X6231940Y-14586655D02*
X6231940Y-14577131D01*
X6231940Y-14577131D02*
X6222416Y-14558083D01*
X6222416Y-14558083D02*
X6203369Y-14548559D01*
X6203369Y-14548559D02*
X6174797Y-14548559D01*
X6174797Y-14548559D02*
X6155750Y-14539036D01*
X6155750Y-14539036D02*
X6146226Y-14519988D01*
X6146226Y-14519988D02*
X6146226Y-14510464D01*
X6146226Y-14510464D02*
X6155750Y-14491417D01*
X6155750Y-14491417D02*
X6174797Y-14481893D01*
X6174797Y-14481893D02*
X6203369Y-14481893D01*
X6203369Y-14481893D02*
X6222416Y-14491417D01*
X6298607Y-14691417D02*
X6308131Y-14681893D01*
X6308131Y-14681893D02*
X6327178Y-14653321D01*
X6327178Y-14653321D02*
X6336702Y-14634274D01*
X6336702Y-14634274D02*
X6346226Y-14605702D01*
X6346226Y-14605702D02*
X6355750Y-14558083D01*
X6355750Y-14558083D02*
X6355750Y-14519988D01*
X6355750Y-14519988D02*
X6346226Y-14472369D01*
X6346226Y-14472369D02*
X6336702Y-14443798D01*
X6336702Y-14443798D02*
X6327178Y-14424750D01*
X6327178Y-14424750D02*
X6308131Y-14396178D01*
X6308131Y-14396178D02*
X6298607Y-14386655D01*
D12*
X1333068Y-14787742D02*
G75*
G02*
X1253068Y-14787742I-40000J0D01*
G01*
X1253068Y-14787742D02*
G75*
G02*
X1333068Y-14787742I40000J0D01*
G01*
D11*
X1631940Y-14679226D02*
X1650987Y-14679226D01*
X1650987Y-14679226D02*
X1670035Y-14688750D01*
X1670035Y-14688750D02*
X1679559Y-14698274D01*
X1679559Y-14698274D02*
X1689082Y-14717321D01*
X1689082Y-14717321D02*
X1698606Y-14755417D01*
X1698606Y-14755417D02*
X1698606Y-14803036D01*
X1698606Y-14803036D02*
X1689082Y-14841131D01*
X1689082Y-14841131D02*
X1679559Y-14860178D01*
X1679559Y-14860178D02*
X1670035Y-14869702D01*
X1670035Y-14869702D02*
X1650987Y-14879226D01*
X1650987Y-14879226D02*
X1631940Y-14879226D01*
X1631940Y-14879226D02*
X1612892Y-14869702D01*
X1612892Y-14869702D02*
X1603368Y-14860178D01*
X1603368Y-14860178D02*
X1593844Y-14841131D01*
X1593844Y-14841131D02*
X1584321Y-14803036D01*
X1584321Y-14803036D02*
X1584321Y-14755417D01*
X1584321Y-14755417D02*
X1593844Y-14717321D01*
X1593844Y-14717321D02*
X1603368Y-14698274D01*
X1603368Y-14698274D02*
X1612892Y-14688750D01*
X1612892Y-14688750D02*
X1631940Y-14679226D01*
X1784321Y-14860178D02*
X1793844Y-14869702D01*
X1793844Y-14869702D02*
X1784321Y-14879226D01*
X1784321Y-14879226D02*
X1774797Y-14869702D01*
X1774797Y-14869702D02*
X1784321Y-14860178D01*
X1784321Y-14860178D02*
X1784321Y-14879226D01*
X1908130Y-14764940D02*
X1889082Y-14755417D01*
X1889082Y-14755417D02*
X1879559Y-14745893D01*
X1879559Y-14745893D02*
X1870035Y-14726845D01*
X1870035Y-14726845D02*
X1870035Y-14717321D01*
X1870035Y-14717321D02*
X1879559Y-14698274D01*
X1879559Y-14698274D02*
X1889082Y-14688750D01*
X1889082Y-14688750D02*
X1908130Y-14679226D01*
X1908130Y-14679226D02*
X1946225Y-14679226D01*
X1946225Y-14679226D02*
X1965273Y-14688750D01*
X1965273Y-14688750D02*
X1974797Y-14698274D01*
X1974797Y-14698274D02*
X1984321Y-14717321D01*
X1984321Y-14717321D02*
X1984321Y-14726845D01*
X1984321Y-14726845D02*
X1974797Y-14745893D01*
X1974797Y-14745893D02*
X1965273Y-14755417D01*
X1965273Y-14755417D02*
X1946225Y-14764940D01*
X1946225Y-14764940D02*
X1908130Y-14764940D01*
X1908130Y-14764940D02*
X1889082Y-14774464D01*
X1889082Y-14774464D02*
X1879559Y-14783988D01*
X1879559Y-14783988D02*
X1870035Y-14803036D01*
X1870035Y-14803036D02*
X1870035Y-14841131D01*
X1870035Y-14841131D02*
X1879559Y-14860178D01*
X1879559Y-14860178D02*
X1889082Y-14869702D01*
X1889082Y-14869702D02*
X1908130Y-14879226D01*
X1908130Y-14879226D02*
X1946225Y-14879226D01*
X1946225Y-14879226D02*
X1965273Y-14869702D01*
X1965273Y-14869702D02*
X1974797Y-14860178D01*
X1974797Y-14860178D02*
X1984321Y-14841131D01*
X1984321Y-14841131D02*
X1984321Y-14803036D01*
X1984321Y-14803036D02*
X1974797Y-14783988D01*
X1974797Y-14783988D02*
X1965273Y-14774464D01*
X1965273Y-14774464D02*
X1946225Y-14764940D01*
X2108130Y-14679226D02*
X2127178Y-14679226D01*
X2127178Y-14679226D02*
X2146225Y-14688750D01*
X2146225Y-14688750D02*
X2155749Y-14698274D01*
X2155749Y-14698274D02*
X2165273Y-14717321D01*
X2165273Y-14717321D02*
X2174797Y-14755417D01*
X2174797Y-14755417D02*
X2174797Y-14803036D01*
X2174797Y-14803036D02*
X2165273Y-14841131D01*
X2165273Y-14841131D02*
X2155749Y-14860178D01*
X2155749Y-14860178D02*
X2146225Y-14869702D01*
X2146225Y-14869702D02*
X2127178Y-14879226D01*
X2127178Y-14879226D02*
X2108130Y-14879226D01*
X2108130Y-14879226D02*
X2089082Y-14869702D01*
X2089082Y-14869702D02*
X2079559Y-14860178D01*
X2079559Y-14860178D02*
X2070035Y-14841131D01*
X2070035Y-14841131D02*
X2060511Y-14803036D01*
X2060511Y-14803036D02*
X2060511Y-14755417D01*
X2060511Y-14755417D02*
X2070035Y-14717321D01*
X2070035Y-14717321D02*
X2079559Y-14698274D01*
X2079559Y-14698274D02*
X2089082Y-14688750D01*
X2089082Y-14688750D02*
X2108130Y-14679226D01*
X2298606Y-14679226D02*
X2317654Y-14679226D01*
X2317654Y-14679226D02*
X2336702Y-14688750D01*
X2336702Y-14688750D02*
X2346225Y-14698274D01*
X2346225Y-14698274D02*
X2355749Y-14717321D01*
X2355749Y-14717321D02*
X2365273Y-14755417D01*
X2365273Y-14755417D02*
X2365273Y-14803036D01*
X2365273Y-14803036D02*
X2355749Y-14841131D01*
X2355749Y-14841131D02*
X2346225Y-14860178D01*
X2346225Y-14860178D02*
X2336702Y-14869702D01*
X2336702Y-14869702D02*
X2317654Y-14879226D01*
X2317654Y-14879226D02*
X2298606Y-14879226D01*
X2298606Y-14879226D02*
X2279559Y-14869702D01*
X2279559Y-14869702D02*
X2270035Y-14860178D01*
X2270035Y-14860178D02*
X2260511Y-14841131D01*
X2260511Y-14841131D02*
X2250987Y-14803036D01*
X2250987Y-14803036D02*
X2250987Y-14755417D01*
X2250987Y-14755417D02*
X2260511Y-14717321D01*
X2260511Y-14717321D02*
X2270035Y-14698274D01*
X2270035Y-14698274D02*
X2279559Y-14688750D01*
X2279559Y-14688750D02*
X2298606Y-14679226D01*
X2450987Y-14879226D02*
X2450987Y-14745893D01*
X2450987Y-14764940D02*
X2460511Y-14755417D01*
X2460511Y-14755417D02*
X2479559Y-14745893D01*
X2479559Y-14745893D02*
X2508130Y-14745893D01*
X2508130Y-14745893D02*
X2527178Y-14755417D01*
X2527178Y-14755417D02*
X2536702Y-14774464D01*
X2536702Y-14774464D02*
X2536702Y-14879226D01*
X2536702Y-14774464D02*
X2546225Y-14755417D01*
X2546225Y-14755417D02*
X2565273Y-14745893D01*
X2565273Y-14745893D02*
X2593844Y-14745893D01*
X2593844Y-14745893D02*
X2612892Y-14755417D01*
X2612892Y-14755417D02*
X2622416Y-14774464D01*
X2622416Y-14774464D02*
X2622416Y-14879226D01*
X2717654Y-14879226D02*
X2717654Y-14745893D01*
X2717654Y-14764940D02*
X2727178Y-14755417D01*
X2727178Y-14755417D02*
X2746225Y-14745893D01*
X2746225Y-14745893D02*
X2774797Y-14745893D01*
X2774797Y-14745893D02*
X2793845Y-14755417D01*
X2793845Y-14755417D02*
X2803368Y-14774464D01*
X2803368Y-14774464D02*
X2803368Y-14879226D01*
X2803368Y-14774464D02*
X2812892Y-14755417D01*
X2812892Y-14755417D02*
X2831940Y-14745893D01*
X2831940Y-14745893D02*
X2860511Y-14745893D01*
X2860511Y-14745893D02*
X2879559Y-14755417D01*
X2879559Y-14755417D02*
X2889083Y-14774464D01*
X2889083Y-14774464D02*
X2889083Y-14879226D01*
X3279559Y-14669702D02*
X3108130Y-14926845D01*
X3536702Y-14679226D02*
X3555749Y-14679226D01*
X3555749Y-14679226D02*
X3574797Y-14688750D01*
X3574797Y-14688750D02*
X3584321Y-14698274D01*
X3584321Y-14698274D02*
X3593845Y-14717321D01*
X3593845Y-14717321D02*
X3603368Y-14755417D01*
X3603368Y-14755417D02*
X3603368Y-14803036D01*
X3603368Y-14803036D02*
X3593845Y-14841131D01*
X3593845Y-14841131D02*
X3584321Y-14860178D01*
X3584321Y-14860178D02*
X3574797Y-14869702D01*
X3574797Y-14869702D02*
X3555749Y-14879226D01*
X3555749Y-14879226D02*
X3536702Y-14879226D01*
X3536702Y-14879226D02*
X3517654Y-14869702D01*
X3517654Y-14869702D02*
X3508130Y-14860178D01*
X3508130Y-14860178D02*
X3498606Y-14841131D01*
X3498606Y-14841131D02*
X3489083Y-14803036D01*
X3489083Y-14803036D02*
X3489083Y-14755417D01*
X3489083Y-14755417D02*
X3498606Y-14717321D01*
X3498606Y-14717321D02*
X3508130Y-14698274D01*
X3508130Y-14698274D02*
X3517654Y-14688750D01*
X3517654Y-14688750D02*
X3536702Y-14679226D01*
X3689083Y-14860178D02*
X3698606Y-14869702D01*
X3698606Y-14869702D02*
X3689083Y-14879226D01*
X3689083Y-14879226D02*
X3679559Y-14869702D01*
X3679559Y-14869702D02*
X3689083Y-14860178D01*
X3689083Y-14860178D02*
X3689083Y-14879226D01*
X3822416Y-14679226D02*
X3841464Y-14679226D01*
X3841464Y-14679226D02*
X3860511Y-14688750D01*
X3860511Y-14688750D02*
X3870035Y-14698274D01*
X3870035Y-14698274D02*
X3879559Y-14717321D01*
X3879559Y-14717321D02*
X3889083Y-14755417D01*
X3889083Y-14755417D02*
X3889083Y-14803036D01*
X3889083Y-14803036D02*
X3879559Y-14841131D01*
X3879559Y-14841131D02*
X3870035Y-14860178D01*
X3870035Y-14860178D02*
X3860511Y-14869702D01*
X3860511Y-14869702D02*
X3841464Y-14879226D01*
X3841464Y-14879226D02*
X3822416Y-14879226D01*
X3822416Y-14879226D02*
X3803368Y-14869702D01*
X3803368Y-14869702D02*
X3793845Y-14860178D01*
X3793845Y-14860178D02*
X3784321Y-14841131D01*
X3784321Y-14841131D02*
X3774797Y-14803036D01*
X3774797Y-14803036D02*
X3774797Y-14755417D01*
X3774797Y-14755417D02*
X3784321Y-14717321D01*
X3784321Y-14717321D02*
X3793845Y-14698274D01*
X3793845Y-14698274D02*
X3803368Y-14688750D01*
X3803368Y-14688750D02*
X3822416Y-14679226D01*
X3955749Y-14679226D02*
X4079559Y-14679226D01*
X4079559Y-14679226D02*
X4012892Y-14755417D01*
X4012892Y-14755417D02*
X4041464Y-14755417D01*
X4041464Y-14755417D02*
X4060511Y-14764940D01*
X4060511Y-14764940D02*
X4070035Y-14774464D01*
X4070035Y-14774464D02*
X4079559Y-14793512D01*
X4079559Y-14793512D02*
X4079559Y-14841131D01*
X4079559Y-14841131D02*
X4070035Y-14860178D01*
X4070035Y-14860178D02*
X4060511Y-14869702D01*
X4060511Y-14869702D02*
X4041464Y-14879226D01*
X4041464Y-14879226D02*
X3984321Y-14879226D01*
X3984321Y-14879226D02*
X3965273Y-14869702D01*
X3965273Y-14869702D02*
X3955749Y-14860178D01*
X4270035Y-14879226D02*
X4155749Y-14879226D01*
X4212892Y-14879226D02*
X4212892Y-14679226D01*
X4212892Y-14679226D02*
X4193845Y-14707798D01*
X4193845Y-14707798D02*
X4174797Y-14726845D01*
X4174797Y-14726845D02*
X4155749Y-14736369D01*
X4450988Y-14679226D02*
X4355749Y-14679226D01*
X4355749Y-14679226D02*
X4346226Y-14774464D01*
X4346226Y-14774464D02*
X4355749Y-14764940D01*
X4355749Y-14764940D02*
X4374797Y-14755417D01*
X4374797Y-14755417D02*
X4422416Y-14755417D01*
X4422416Y-14755417D02*
X4441464Y-14764940D01*
X4441464Y-14764940D02*
X4450988Y-14774464D01*
X4450988Y-14774464D02*
X4460511Y-14793512D01*
X4460511Y-14793512D02*
X4460511Y-14841131D01*
X4460511Y-14841131D02*
X4450988Y-14860178D01*
X4450988Y-14860178D02*
X4441464Y-14869702D01*
X4441464Y-14869702D02*
X4422416Y-14879226D01*
X4422416Y-14879226D02*
X4374797Y-14879226D01*
X4374797Y-14879226D02*
X4355749Y-14869702D01*
X4355749Y-14869702D02*
X4346226Y-14860178D01*
X4536702Y-14679226D02*
X4536702Y-14717321D01*
X4612892Y-14679226D02*
X4612892Y-14717321D01*
X4908131Y-14955417D02*
X4898607Y-14945893D01*
X4898607Y-14945893D02*
X4879559Y-14917321D01*
X4879559Y-14917321D02*
X4870035Y-14898274D01*
X4870035Y-14898274D02*
X4860511Y-14869702D01*
X4860511Y-14869702D02*
X4850988Y-14822083D01*
X4850988Y-14822083D02*
X4850988Y-14783988D01*
X4850988Y-14783988D02*
X4860511Y-14736369D01*
X4860511Y-14736369D02*
X4870035Y-14707798D01*
X4870035Y-14707798D02*
X4879559Y-14688750D01*
X4879559Y-14688750D02*
X4898607Y-14660178D01*
X4898607Y-14660178D02*
X4908131Y-14650655D01*
X5089083Y-14879226D02*
X4974797Y-14879226D01*
X5031940Y-14879226D02*
X5031940Y-14679226D01*
X5031940Y-14679226D02*
X5012892Y-14707798D01*
X5012892Y-14707798D02*
X4993845Y-14726845D01*
X4993845Y-14726845D02*
X4974797Y-14736369D01*
X5260511Y-14745893D02*
X5260511Y-14879226D01*
X5212892Y-14669702D02*
X5165273Y-14812559D01*
X5165273Y-14812559D02*
X5289083Y-14812559D01*
X5517654Y-14879226D02*
X5517654Y-14679226D01*
X5603369Y-14879226D02*
X5603369Y-14774464D01*
X5603369Y-14774464D02*
X5593845Y-14755417D01*
X5593845Y-14755417D02*
X5574797Y-14745893D01*
X5574797Y-14745893D02*
X5546226Y-14745893D01*
X5546226Y-14745893D02*
X5527178Y-14755417D01*
X5527178Y-14755417D02*
X5517654Y-14764940D01*
X5727178Y-14879226D02*
X5708130Y-14869702D01*
X5708130Y-14869702D02*
X5698607Y-14860178D01*
X5698607Y-14860178D02*
X5689083Y-14841131D01*
X5689083Y-14841131D02*
X5689083Y-14783988D01*
X5689083Y-14783988D02*
X5698607Y-14764940D01*
X5698607Y-14764940D02*
X5708130Y-14755417D01*
X5708130Y-14755417D02*
X5727178Y-14745893D01*
X5727178Y-14745893D02*
X5755750Y-14745893D01*
X5755750Y-14745893D02*
X5774797Y-14755417D01*
X5774797Y-14755417D02*
X5784321Y-14764940D01*
X5784321Y-14764940D02*
X5793845Y-14783988D01*
X5793845Y-14783988D02*
X5793845Y-14841131D01*
X5793845Y-14841131D02*
X5784321Y-14860178D01*
X5784321Y-14860178D02*
X5774797Y-14869702D01*
X5774797Y-14869702D02*
X5755750Y-14879226D01*
X5755750Y-14879226D02*
X5727178Y-14879226D01*
X5908130Y-14879226D02*
X5889083Y-14869702D01*
X5889083Y-14869702D02*
X5879559Y-14850655D01*
X5879559Y-14850655D02*
X5879559Y-14679226D01*
X6060511Y-14869702D02*
X6041464Y-14879226D01*
X6041464Y-14879226D02*
X6003369Y-14879226D01*
X6003369Y-14879226D02*
X5984321Y-14869702D01*
X5984321Y-14869702D02*
X5974797Y-14850655D01*
X5974797Y-14850655D02*
X5974797Y-14774464D01*
X5974797Y-14774464D02*
X5984321Y-14755417D01*
X5984321Y-14755417D02*
X6003369Y-14745893D01*
X6003369Y-14745893D02*
X6041464Y-14745893D01*
X6041464Y-14745893D02*
X6060511Y-14755417D01*
X6060511Y-14755417D02*
X6070035Y-14774464D01*
X6070035Y-14774464D02*
X6070035Y-14793512D01*
X6070035Y-14793512D02*
X5974797Y-14812559D01*
X6146226Y-14869702D02*
X6165273Y-14879226D01*
X6165273Y-14879226D02*
X6203369Y-14879226D01*
X6203369Y-14879226D02*
X6222416Y-14869702D01*
X6222416Y-14869702D02*
X6231940Y-14850655D01*
X6231940Y-14850655D02*
X6231940Y-14841131D01*
X6231940Y-14841131D02*
X6222416Y-14822083D01*
X6222416Y-14822083D02*
X6203369Y-14812559D01*
X6203369Y-14812559D02*
X6174797Y-14812559D01*
X6174797Y-14812559D02*
X6155750Y-14803036D01*
X6155750Y-14803036D02*
X6146226Y-14783988D01*
X6146226Y-14783988D02*
X6146226Y-14774464D01*
X6146226Y-14774464D02*
X6155750Y-14755417D01*
X6155750Y-14755417D02*
X6174797Y-14745893D01*
X6174797Y-14745893D02*
X6203369Y-14745893D01*
X6203369Y-14745893D02*
X6222416Y-14755417D01*
X6298607Y-14955417D02*
X6308131Y-14945893D01*
X6308131Y-14945893D02*
X6327178Y-14917321D01*
X6327178Y-14917321D02*
X6336702Y-14898274D01*
X6336702Y-14898274D02*
X6346226Y-14869702D01*
X6346226Y-14869702D02*
X6355750Y-14822083D01*
X6355750Y-14822083D02*
X6355750Y-14783988D01*
X6355750Y-14783988D02*
X6346226Y-14736369D01*
X6346226Y-14736369D02*
X6336702Y-14707798D01*
X6336702Y-14707798D02*
X6327178Y-14688750D01*
X6327178Y-14688750D02*
X6308131Y-14660178D01*
X6308131Y-14660178D02*
X6298607Y-14650655D01*
D12*
X1288068Y-15006742D02*
X1288068Y-15096742D01*
X1243068Y-15051742D02*
X1333068Y-15051742D01*
D11*
X1631940Y-14943226D02*
X1650987Y-14943226D01*
X1650987Y-14943226D02*
X1670035Y-14952750D01*
X1670035Y-14952750D02*
X1679559Y-14962274D01*
X1679559Y-14962274D02*
X1689082Y-14981321D01*
X1689082Y-14981321D02*
X1698606Y-15019417D01*
X1698606Y-15019417D02*
X1698606Y-15067036D01*
X1698606Y-15067036D02*
X1689082Y-15105131D01*
X1689082Y-15105131D02*
X1679559Y-15124178D01*
X1679559Y-15124178D02*
X1670035Y-15133702D01*
X1670035Y-15133702D02*
X1650987Y-15143226D01*
X1650987Y-15143226D02*
X1631940Y-15143226D01*
X1631940Y-15143226D02*
X1612892Y-15133702D01*
X1612892Y-15133702D02*
X1603368Y-15124178D01*
X1603368Y-15124178D02*
X1593844Y-15105131D01*
X1593844Y-15105131D02*
X1584321Y-15067036D01*
X1584321Y-15067036D02*
X1584321Y-15019417D01*
X1584321Y-15019417D02*
X1593844Y-14981321D01*
X1593844Y-14981321D02*
X1603368Y-14962274D01*
X1603368Y-14962274D02*
X1612892Y-14952750D01*
X1612892Y-14952750D02*
X1631940Y-14943226D01*
X1784321Y-15124178D02*
X1793844Y-15133702D01*
X1793844Y-15133702D02*
X1784321Y-15143226D01*
X1784321Y-15143226D02*
X1774797Y-15133702D01*
X1774797Y-15133702D02*
X1784321Y-15124178D01*
X1784321Y-15124178D02*
X1784321Y-15143226D01*
X1889082Y-15143226D02*
X1927178Y-15143226D01*
X1927178Y-15143226D02*
X1946225Y-15133702D01*
X1946225Y-15133702D02*
X1955749Y-15124178D01*
X1955749Y-15124178D02*
X1974797Y-15095607D01*
X1974797Y-15095607D02*
X1984321Y-15057512D01*
X1984321Y-15057512D02*
X1984321Y-14981321D01*
X1984321Y-14981321D02*
X1974797Y-14962274D01*
X1974797Y-14962274D02*
X1965273Y-14952750D01*
X1965273Y-14952750D02*
X1946225Y-14943226D01*
X1946225Y-14943226D02*
X1908130Y-14943226D01*
X1908130Y-14943226D02*
X1889082Y-14952750D01*
X1889082Y-14952750D02*
X1879559Y-14962274D01*
X1879559Y-14962274D02*
X1870035Y-14981321D01*
X1870035Y-14981321D02*
X1870035Y-15028940D01*
X1870035Y-15028940D02*
X1879559Y-15047988D01*
X1879559Y-15047988D02*
X1889082Y-15057512D01*
X1889082Y-15057512D02*
X1908130Y-15067036D01*
X1908130Y-15067036D02*
X1946225Y-15067036D01*
X1946225Y-15067036D02*
X1965273Y-15057512D01*
X1965273Y-15057512D02*
X1974797Y-15047988D01*
X1974797Y-15047988D02*
X1984321Y-15028940D01*
X2108130Y-14943226D02*
X2127178Y-14943226D01*
X2127178Y-14943226D02*
X2146225Y-14952750D01*
X2146225Y-14952750D02*
X2155749Y-14962274D01*
X2155749Y-14962274D02*
X2165273Y-14981321D01*
X2165273Y-14981321D02*
X2174797Y-15019417D01*
X2174797Y-15019417D02*
X2174797Y-15067036D01*
X2174797Y-15067036D02*
X2165273Y-15105131D01*
X2165273Y-15105131D02*
X2155749Y-15124178D01*
X2155749Y-15124178D02*
X2146225Y-15133702D01*
X2146225Y-15133702D02*
X2127178Y-15143226D01*
X2127178Y-15143226D02*
X2108130Y-15143226D01*
X2108130Y-15143226D02*
X2089082Y-15133702D01*
X2089082Y-15133702D02*
X2079559Y-15124178D01*
X2079559Y-15124178D02*
X2070035Y-15105131D01*
X2070035Y-15105131D02*
X2060511Y-15067036D01*
X2060511Y-15067036D02*
X2060511Y-15019417D01*
X2060511Y-15019417D02*
X2070035Y-14981321D01*
X2070035Y-14981321D02*
X2079559Y-14962274D01*
X2079559Y-14962274D02*
X2089082Y-14952750D01*
X2089082Y-14952750D02*
X2108130Y-14943226D01*
X2298606Y-14943226D02*
X2317654Y-14943226D01*
X2317654Y-14943226D02*
X2336702Y-14952750D01*
X2336702Y-14952750D02*
X2346225Y-14962274D01*
X2346225Y-14962274D02*
X2355749Y-14981321D01*
X2355749Y-14981321D02*
X2365273Y-15019417D01*
X2365273Y-15019417D02*
X2365273Y-15067036D01*
X2365273Y-15067036D02*
X2355749Y-15105131D01*
X2355749Y-15105131D02*
X2346225Y-15124178D01*
X2346225Y-15124178D02*
X2336702Y-15133702D01*
X2336702Y-15133702D02*
X2317654Y-15143226D01*
X2317654Y-15143226D02*
X2298606Y-15143226D01*
X2298606Y-15143226D02*
X2279559Y-15133702D01*
X2279559Y-15133702D02*
X2270035Y-15124178D01*
X2270035Y-15124178D02*
X2260511Y-15105131D01*
X2260511Y-15105131D02*
X2250987Y-15067036D01*
X2250987Y-15067036D02*
X2250987Y-15019417D01*
X2250987Y-15019417D02*
X2260511Y-14981321D01*
X2260511Y-14981321D02*
X2270035Y-14962274D01*
X2270035Y-14962274D02*
X2279559Y-14952750D01*
X2279559Y-14952750D02*
X2298606Y-14943226D01*
X2450987Y-15143226D02*
X2450987Y-15009893D01*
X2450987Y-15028940D02*
X2460511Y-15019417D01*
X2460511Y-15019417D02*
X2479559Y-15009893D01*
X2479559Y-15009893D02*
X2508130Y-15009893D01*
X2508130Y-15009893D02*
X2527178Y-15019417D01*
X2527178Y-15019417D02*
X2536702Y-15038464D01*
X2536702Y-15038464D02*
X2536702Y-15143226D01*
X2536702Y-15038464D02*
X2546225Y-15019417D01*
X2546225Y-15019417D02*
X2565273Y-15009893D01*
X2565273Y-15009893D02*
X2593844Y-15009893D01*
X2593844Y-15009893D02*
X2612892Y-15019417D01*
X2612892Y-15019417D02*
X2622416Y-15038464D01*
X2622416Y-15038464D02*
X2622416Y-15143226D01*
X2717654Y-15143226D02*
X2717654Y-15009893D01*
X2717654Y-15028940D02*
X2727178Y-15019417D01*
X2727178Y-15019417D02*
X2746225Y-15009893D01*
X2746225Y-15009893D02*
X2774797Y-15009893D01*
X2774797Y-15009893D02*
X2793845Y-15019417D01*
X2793845Y-15019417D02*
X2803368Y-15038464D01*
X2803368Y-15038464D02*
X2803368Y-15143226D01*
X2803368Y-15038464D02*
X2812892Y-15019417D01*
X2812892Y-15019417D02*
X2831940Y-15009893D01*
X2831940Y-15009893D02*
X2860511Y-15009893D01*
X2860511Y-15009893D02*
X2879559Y-15019417D01*
X2879559Y-15019417D02*
X2889083Y-15038464D01*
X2889083Y-15038464D02*
X2889083Y-15143226D01*
X3279559Y-14933702D02*
X3108130Y-15190845D01*
X3536702Y-14943226D02*
X3555749Y-14943226D01*
X3555749Y-14943226D02*
X3574797Y-14952750D01*
X3574797Y-14952750D02*
X3584321Y-14962274D01*
X3584321Y-14962274D02*
X3593845Y-14981321D01*
X3593845Y-14981321D02*
X3603368Y-15019417D01*
X3603368Y-15019417D02*
X3603368Y-15067036D01*
X3603368Y-15067036D02*
X3593845Y-15105131D01*
X3593845Y-15105131D02*
X3584321Y-15124178D01*
X3584321Y-15124178D02*
X3574797Y-15133702D01*
X3574797Y-15133702D02*
X3555749Y-15143226D01*
X3555749Y-15143226D02*
X3536702Y-15143226D01*
X3536702Y-15143226D02*
X3517654Y-15133702D01*
X3517654Y-15133702D02*
X3508130Y-15124178D01*
X3508130Y-15124178D02*
X3498606Y-15105131D01*
X3498606Y-15105131D02*
X3489083Y-15067036D01*
X3489083Y-15067036D02*
X3489083Y-15019417D01*
X3489083Y-15019417D02*
X3498606Y-14981321D01*
X3498606Y-14981321D02*
X3508130Y-14962274D01*
X3508130Y-14962274D02*
X3517654Y-14952750D01*
X3517654Y-14952750D02*
X3536702Y-14943226D01*
X3689083Y-15124178D02*
X3698606Y-15133702D01*
X3698606Y-15133702D02*
X3689083Y-15143226D01*
X3689083Y-15143226D02*
X3679559Y-15133702D01*
X3679559Y-15133702D02*
X3689083Y-15124178D01*
X3689083Y-15124178D02*
X3689083Y-15143226D01*
X3822416Y-14943226D02*
X3841464Y-14943226D01*
X3841464Y-14943226D02*
X3860511Y-14952750D01*
X3860511Y-14952750D02*
X3870035Y-14962274D01*
X3870035Y-14962274D02*
X3879559Y-14981321D01*
X3879559Y-14981321D02*
X3889083Y-15019417D01*
X3889083Y-15019417D02*
X3889083Y-15067036D01*
X3889083Y-15067036D02*
X3879559Y-15105131D01*
X3879559Y-15105131D02*
X3870035Y-15124178D01*
X3870035Y-15124178D02*
X3860511Y-15133702D01*
X3860511Y-15133702D02*
X3841464Y-15143226D01*
X3841464Y-15143226D02*
X3822416Y-15143226D01*
X3822416Y-15143226D02*
X3803368Y-15133702D01*
X3803368Y-15133702D02*
X3793845Y-15124178D01*
X3793845Y-15124178D02*
X3784321Y-15105131D01*
X3784321Y-15105131D02*
X3774797Y-15067036D01*
X3774797Y-15067036D02*
X3774797Y-15019417D01*
X3774797Y-15019417D02*
X3784321Y-14981321D01*
X3784321Y-14981321D02*
X3793845Y-14962274D01*
X3793845Y-14962274D02*
X3803368Y-14952750D01*
X3803368Y-14952750D02*
X3822416Y-14943226D01*
X3955749Y-14943226D02*
X4079559Y-14943226D01*
X4079559Y-14943226D02*
X4012892Y-15019417D01*
X4012892Y-15019417D02*
X4041464Y-15019417D01*
X4041464Y-15019417D02*
X4060511Y-15028940D01*
X4060511Y-15028940D02*
X4070035Y-15038464D01*
X4070035Y-15038464D02*
X4079559Y-15057512D01*
X4079559Y-15057512D02*
X4079559Y-15105131D01*
X4079559Y-15105131D02*
X4070035Y-15124178D01*
X4070035Y-15124178D02*
X4060511Y-15133702D01*
X4060511Y-15133702D02*
X4041464Y-15143226D01*
X4041464Y-15143226D02*
X3984321Y-15143226D01*
X3984321Y-15143226D02*
X3965273Y-15133702D01*
X3965273Y-15133702D02*
X3955749Y-15124178D01*
X4260511Y-14943226D02*
X4165273Y-14943226D01*
X4165273Y-14943226D02*
X4155749Y-15038464D01*
X4155749Y-15038464D02*
X4165273Y-15028940D01*
X4165273Y-15028940D02*
X4184321Y-15019417D01*
X4184321Y-15019417D02*
X4231940Y-15019417D01*
X4231940Y-15019417D02*
X4250988Y-15028940D01*
X4250988Y-15028940D02*
X4260511Y-15038464D01*
X4260511Y-15038464D02*
X4270035Y-15057512D01*
X4270035Y-15057512D02*
X4270035Y-15105131D01*
X4270035Y-15105131D02*
X4260511Y-15124178D01*
X4260511Y-15124178D02*
X4250988Y-15133702D01*
X4250988Y-15133702D02*
X4231940Y-15143226D01*
X4231940Y-15143226D02*
X4184321Y-15143226D01*
X4184321Y-15143226D02*
X4165273Y-15133702D01*
X4165273Y-15133702D02*
X4155749Y-15124178D01*
X4441464Y-15009893D02*
X4441464Y-15143226D01*
X4393845Y-14933702D02*
X4346226Y-15076559D01*
X4346226Y-15076559D02*
X4470035Y-15076559D01*
X4536702Y-14943226D02*
X4536702Y-14981321D01*
X4612892Y-14943226D02*
X4612892Y-14981321D01*
X4908131Y-15219417D02*
X4898607Y-15209893D01*
X4898607Y-15209893D02*
X4879559Y-15181321D01*
X4879559Y-15181321D02*
X4870035Y-15162274D01*
X4870035Y-15162274D02*
X4860511Y-15133702D01*
X4860511Y-15133702D02*
X4850988Y-15086083D01*
X4850988Y-15086083D02*
X4850988Y-15047988D01*
X4850988Y-15047988D02*
X4860511Y-15000369D01*
X4860511Y-15000369D02*
X4870035Y-14971798D01*
X4870035Y-14971798D02*
X4879559Y-14952750D01*
X4879559Y-14952750D02*
X4898607Y-14924178D01*
X4898607Y-14924178D02*
X4908131Y-14914655D01*
X5089083Y-15143226D02*
X4974797Y-15143226D01*
X5031940Y-15143226D02*
X5031940Y-14943226D01*
X5031940Y-14943226D02*
X5012892Y-14971798D01*
X5012892Y-14971798D02*
X4993845Y-14990845D01*
X4993845Y-14990845D02*
X4974797Y-15000369D01*
X5165273Y-14962274D02*
X5174797Y-14952750D01*
X5174797Y-14952750D02*
X5193845Y-14943226D01*
X5193845Y-14943226D02*
X5241464Y-14943226D01*
X5241464Y-14943226D02*
X5260511Y-14952750D01*
X5260511Y-14952750D02*
X5270035Y-14962274D01*
X5270035Y-14962274D02*
X5279559Y-14981321D01*
X5279559Y-14981321D02*
X5279559Y-15000369D01*
X5279559Y-15000369D02*
X5270035Y-15028940D01*
X5270035Y-15028940D02*
X5155750Y-15143226D01*
X5155750Y-15143226D02*
X5279559Y-15143226D01*
X5517654Y-15143226D02*
X5517654Y-14943226D01*
X5603369Y-15143226D02*
X5603369Y-15038464D01*
X5603369Y-15038464D02*
X5593845Y-15019417D01*
X5593845Y-15019417D02*
X5574797Y-15009893D01*
X5574797Y-15009893D02*
X5546226Y-15009893D01*
X5546226Y-15009893D02*
X5527178Y-15019417D01*
X5527178Y-15019417D02*
X5517654Y-15028940D01*
X5727178Y-15143226D02*
X5708130Y-15133702D01*
X5708130Y-15133702D02*
X5698607Y-15124178D01*
X5698607Y-15124178D02*
X5689083Y-15105131D01*
X5689083Y-15105131D02*
X5689083Y-15047988D01*
X5689083Y-15047988D02*
X5698607Y-15028940D01*
X5698607Y-15028940D02*
X5708130Y-15019417D01*
X5708130Y-15019417D02*
X5727178Y-15009893D01*
X5727178Y-15009893D02*
X5755750Y-15009893D01*
X5755750Y-15009893D02*
X5774797Y-15019417D01*
X5774797Y-15019417D02*
X5784321Y-15028940D01*
X5784321Y-15028940D02*
X5793845Y-15047988D01*
X5793845Y-15047988D02*
X5793845Y-15105131D01*
X5793845Y-15105131D02*
X5784321Y-15124178D01*
X5784321Y-15124178D02*
X5774797Y-15133702D01*
X5774797Y-15133702D02*
X5755750Y-15143226D01*
X5755750Y-15143226D02*
X5727178Y-15143226D01*
X5908130Y-15143226D02*
X5889083Y-15133702D01*
X5889083Y-15133702D02*
X5879559Y-15114655D01*
X5879559Y-15114655D02*
X5879559Y-14943226D01*
X6060511Y-15133702D02*
X6041464Y-15143226D01*
X6041464Y-15143226D02*
X6003369Y-15143226D01*
X6003369Y-15143226D02*
X5984321Y-15133702D01*
X5984321Y-15133702D02*
X5974797Y-15114655D01*
X5974797Y-15114655D02*
X5974797Y-15038464D01*
X5974797Y-15038464D02*
X5984321Y-15019417D01*
X5984321Y-15019417D02*
X6003369Y-15009893D01*
X6003369Y-15009893D02*
X6041464Y-15009893D01*
X6041464Y-15009893D02*
X6060511Y-15019417D01*
X6060511Y-15019417D02*
X6070035Y-15038464D01*
X6070035Y-15038464D02*
X6070035Y-15057512D01*
X6070035Y-15057512D02*
X5974797Y-15076559D01*
X6146226Y-15133702D02*
X6165273Y-15143226D01*
X6165273Y-15143226D02*
X6203369Y-15143226D01*
X6203369Y-15143226D02*
X6222416Y-15133702D01*
X6222416Y-15133702D02*
X6231940Y-15114655D01*
X6231940Y-15114655D02*
X6231940Y-15105131D01*
X6231940Y-15105131D02*
X6222416Y-15086083D01*
X6222416Y-15086083D02*
X6203369Y-15076559D01*
X6203369Y-15076559D02*
X6174797Y-15076559D01*
X6174797Y-15076559D02*
X6155750Y-15067036D01*
X6155750Y-15067036D02*
X6146226Y-15047988D01*
X6146226Y-15047988D02*
X6146226Y-15038464D01*
X6146226Y-15038464D02*
X6155750Y-15019417D01*
X6155750Y-15019417D02*
X6174797Y-15009893D01*
X6174797Y-15009893D02*
X6203369Y-15009893D01*
X6203369Y-15009893D02*
X6222416Y-15019417D01*
X6298607Y-15219417D02*
X6308131Y-15209893D01*
X6308131Y-15209893D02*
X6327178Y-15181321D01*
X6327178Y-15181321D02*
X6336702Y-15162274D01*
X6336702Y-15162274D02*
X6346226Y-15133702D01*
X6346226Y-15133702D02*
X6355750Y-15086083D01*
X6355750Y-15086083D02*
X6355750Y-15047988D01*
X6355750Y-15047988D02*
X6346226Y-15000369D01*
X6346226Y-15000369D02*
X6336702Y-14971798D01*
X6336702Y-14971798D02*
X6327178Y-14952750D01*
X6327178Y-14952750D02*
X6308131Y-14924178D01*
X6308131Y-14924178D02*
X6298607Y-14914655D01*
D12*
X1318423Y-15351098D02*
X1318423Y-15280387D01*
X1247712Y-15280387D01*
X1247712Y-15351098D01*
X1318423Y-15351098D01*
D11*
X1698606Y-15407226D02*
X1584321Y-15407226D01*
X1641463Y-15407226D02*
X1641463Y-15207226D01*
X1641463Y-15207226D02*
X1622416Y-15235798D01*
X1622416Y-15235798D02*
X1603368Y-15254845D01*
X1603368Y-15254845D02*
X1584321Y-15264369D01*
X1784321Y-15388178D02*
X1793844Y-15397702D01*
X1793844Y-15397702D02*
X1784321Y-15407226D01*
X1784321Y-15407226D02*
X1774797Y-15397702D01*
X1774797Y-15397702D02*
X1784321Y-15388178D01*
X1784321Y-15388178D02*
X1784321Y-15407226D01*
X1917654Y-15207226D02*
X1936702Y-15207226D01*
X1936702Y-15207226D02*
X1955749Y-15216750D01*
X1955749Y-15216750D02*
X1965273Y-15226274D01*
X1965273Y-15226274D02*
X1974797Y-15245321D01*
X1974797Y-15245321D02*
X1984321Y-15283417D01*
X1984321Y-15283417D02*
X1984321Y-15331036D01*
X1984321Y-15331036D02*
X1974797Y-15369131D01*
X1974797Y-15369131D02*
X1965273Y-15388178D01*
X1965273Y-15388178D02*
X1955749Y-15397702D01*
X1955749Y-15397702D02*
X1936702Y-15407226D01*
X1936702Y-15407226D02*
X1917654Y-15407226D01*
X1917654Y-15407226D02*
X1898606Y-15397702D01*
X1898606Y-15397702D02*
X1889082Y-15388178D01*
X1889082Y-15388178D02*
X1879559Y-15369131D01*
X1879559Y-15369131D02*
X1870035Y-15331036D01*
X1870035Y-15331036D02*
X1870035Y-15283417D01*
X1870035Y-15283417D02*
X1879559Y-15245321D01*
X1879559Y-15245321D02*
X1889082Y-15226274D01*
X1889082Y-15226274D02*
X1898606Y-15216750D01*
X1898606Y-15216750D02*
X1917654Y-15207226D01*
X2108130Y-15207226D02*
X2127178Y-15207226D01*
X2127178Y-15207226D02*
X2146225Y-15216750D01*
X2146225Y-15216750D02*
X2155749Y-15226274D01*
X2155749Y-15226274D02*
X2165273Y-15245321D01*
X2165273Y-15245321D02*
X2174797Y-15283417D01*
X2174797Y-15283417D02*
X2174797Y-15331036D01*
X2174797Y-15331036D02*
X2165273Y-15369131D01*
X2165273Y-15369131D02*
X2155749Y-15388178D01*
X2155749Y-15388178D02*
X2146225Y-15397702D01*
X2146225Y-15397702D02*
X2127178Y-15407226D01*
X2127178Y-15407226D02*
X2108130Y-15407226D01*
X2108130Y-15407226D02*
X2089082Y-15397702D01*
X2089082Y-15397702D02*
X2079559Y-15388178D01*
X2079559Y-15388178D02*
X2070035Y-15369131D01*
X2070035Y-15369131D02*
X2060511Y-15331036D01*
X2060511Y-15331036D02*
X2060511Y-15283417D01*
X2060511Y-15283417D02*
X2070035Y-15245321D01*
X2070035Y-15245321D02*
X2079559Y-15226274D01*
X2079559Y-15226274D02*
X2089082Y-15216750D01*
X2089082Y-15216750D02*
X2108130Y-15207226D01*
X2298606Y-15207226D02*
X2317654Y-15207226D01*
X2317654Y-15207226D02*
X2336702Y-15216750D01*
X2336702Y-15216750D02*
X2346225Y-15226274D01*
X2346225Y-15226274D02*
X2355749Y-15245321D01*
X2355749Y-15245321D02*
X2365273Y-15283417D01*
X2365273Y-15283417D02*
X2365273Y-15331036D01*
X2365273Y-15331036D02*
X2355749Y-15369131D01*
X2355749Y-15369131D02*
X2346225Y-15388178D01*
X2346225Y-15388178D02*
X2336702Y-15397702D01*
X2336702Y-15397702D02*
X2317654Y-15407226D01*
X2317654Y-15407226D02*
X2298606Y-15407226D01*
X2298606Y-15407226D02*
X2279559Y-15397702D01*
X2279559Y-15397702D02*
X2270035Y-15388178D01*
X2270035Y-15388178D02*
X2260511Y-15369131D01*
X2260511Y-15369131D02*
X2250987Y-15331036D01*
X2250987Y-15331036D02*
X2250987Y-15283417D01*
X2250987Y-15283417D02*
X2260511Y-15245321D01*
X2260511Y-15245321D02*
X2270035Y-15226274D01*
X2270035Y-15226274D02*
X2279559Y-15216750D01*
X2279559Y-15216750D02*
X2298606Y-15207226D01*
X2450987Y-15407226D02*
X2450987Y-15273893D01*
X2450987Y-15292940D02*
X2460511Y-15283417D01*
X2460511Y-15283417D02*
X2479559Y-15273893D01*
X2479559Y-15273893D02*
X2508130Y-15273893D01*
X2508130Y-15273893D02*
X2527178Y-15283417D01*
X2527178Y-15283417D02*
X2536702Y-15302464D01*
X2536702Y-15302464D02*
X2536702Y-15407226D01*
X2536702Y-15302464D02*
X2546225Y-15283417D01*
X2546225Y-15283417D02*
X2565273Y-15273893D01*
X2565273Y-15273893D02*
X2593844Y-15273893D01*
X2593844Y-15273893D02*
X2612892Y-15283417D01*
X2612892Y-15283417D02*
X2622416Y-15302464D01*
X2622416Y-15302464D02*
X2622416Y-15407226D01*
X2717654Y-15407226D02*
X2717654Y-15273893D01*
X2717654Y-15292940D02*
X2727178Y-15283417D01*
X2727178Y-15283417D02*
X2746225Y-15273893D01*
X2746225Y-15273893D02*
X2774797Y-15273893D01*
X2774797Y-15273893D02*
X2793845Y-15283417D01*
X2793845Y-15283417D02*
X2803368Y-15302464D01*
X2803368Y-15302464D02*
X2803368Y-15407226D01*
X2803368Y-15302464D02*
X2812892Y-15283417D01*
X2812892Y-15283417D02*
X2831940Y-15273893D01*
X2831940Y-15273893D02*
X2860511Y-15273893D01*
X2860511Y-15273893D02*
X2879559Y-15283417D01*
X2879559Y-15283417D02*
X2889083Y-15302464D01*
X2889083Y-15302464D02*
X2889083Y-15407226D01*
X3279559Y-15197702D02*
X3108130Y-15454845D01*
X3536702Y-15207226D02*
X3555749Y-15207226D01*
X3555749Y-15207226D02*
X3574797Y-15216750D01*
X3574797Y-15216750D02*
X3584321Y-15226274D01*
X3584321Y-15226274D02*
X3593845Y-15245321D01*
X3593845Y-15245321D02*
X3603368Y-15283417D01*
X3603368Y-15283417D02*
X3603368Y-15331036D01*
X3603368Y-15331036D02*
X3593845Y-15369131D01*
X3593845Y-15369131D02*
X3584321Y-15388178D01*
X3584321Y-15388178D02*
X3574797Y-15397702D01*
X3574797Y-15397702D02*
X3555749Y-15407226D01*
X3555749Y-15407226D02*
X3536702Y-15407226D01*
X3536702Y-15407226D02*
X3517654Y-15397702D01*
X3517654Y-15397702D02*
X3508130Y-15388178D01*
X3508130Y-15388178D02*
X3498606Y-15369131D01*
X3498606Y-15369131D02*
X3489083Y-15331036D01*
X3489083Y-15331036D02*
X3489083Y-15283417D01*
X3489083Y-15283417D02*
X3498606Y-15245321D01*
X3498606Y-15245321D02*
X3508130Y-15226274D01*
X3508130Y-15226274D02*
X3517654Y-15216750D01*
X3517654Y-15216750D02*
X3536702Y-15207226D01*
X3689083Y-15388178D02*
X3698606Y-15397702D01*
X3698606Y-15397702D02*
X3689083Y-15407226D01*
X3689083Y-15407226D02*
X3679559Y-15397702D01*
X3679559Y-15397702D02*
X3689083Y-15388178D01*
X3689083Y-15388178D02*
X3689083Y-15407226D01*
X3822416Y-15207226D02*
X3841464Y-15207226D01*
X3841464Y-15207226D02*
X3860511Y-15216750D01*
X3860511Y-15216750D02*
X3870035Y-15226274D01*
X3870035Y-15226274D02*
X3879559Y-15245321D01*
X3879559Y-15245321D02*
X3889083Y-15283417D01*
X3889083Y-15283417D02*
X3889083Y-15331036D01*
X3889083Y-15331036D02*
X3879559Y-15369131D01*
X3879559Y-15369131D02*
X3870035Y-15388178D01*
X3870035Y-15388178D02*
X3860511Y-15397702D01*
X3860511Y-15397702D02*
X3841464Y-15407226D01*
X3841464Y-15407226D02*
X3822416Y-15407226D01*
X3822416Y-15407226D02*
X3803368Y-15397702D01*
X3803368Y-15397702D02*
X3793845Y-15388178D01*
X3793845Y-15388178D02*
X3784321Y-15369131D01*
X3784321Y-15369131D02*
X3774797Y-15331036D01*
X3774797Y-15331036D02*
X3774797Y-15283417D01*
X3774797Y-15283417D02*
X3784321Y-15245321D01*
X3784321Y-15245321D02*
X3793845Y-15226274D01*
X3793845Y-15226274D02*
X3803368Y-15216750D01*
X3803368Y-15216750D02*
X3822416Y-15207226D01*
X3955749Y-15207226D02*
X4079559Y-15207226D01*
X4079559Y-15207226D02*
X4012892Y-15283417D01*
X4012892Y-15283417D02*
X4041464Y-15283417D01*
X4041464Y-15283417D02*
X4060511Y-15292940D01*
X4060511Y-15292940D02*
X4070035Y-15302464D01*
X4070035Y-15302464D02*
X4079559Y-15321512D01*
X4079559Y-15321512D02*
X4079559Y-15369131D01*
X4079559Y-15369131D02*
X4070035Y-15388178D01*
X4070035Y-15388178D02*
X4060511Y-15397702D01*
X4060511Y-15397702D02*
X4041464Y-15407226D01*
X4041464Y-15407226D02*
X3984321Y-15407226D01*
X3984321Y-15407226D02*
X3965273Y-15397702D01*
X3965273Y-15397702D02*
X3955749Y-15388178D01*
X4174797Y-15407226D02*
X4212892Y-15407226D01*
X4212892Y-15407226D02*
X4231940Y-15397702D01*
X4231940Y-15397702D02*
X4241464Y-15388178D01*
X4241464Y-15388178D02*
X4260511Y-15359607D01*
X4260511Y-15359607D02*
X4270035Y-15321512D01*
X4270035Y-15321512D02*
X4270035Y-15245321D01*
X4270035Y-15245321D02*
X4260511Y-15226274D01*
X4260511Y-15226274D02*
X4250988Y-15216750D01*
X4250988Y-15216750D02*
X4231940Y-15207226D01*
X4231940Y-15207226D02*
X4193845Y-15207226D01*
X4193845Y-15207226D02*
X4174797Y-15216750D01*
X4174797Y-15216750D02*
X4165273Y-15226274D01*
X4165273Y-15226274D02*
X4155749Y-15245321D01*
X4155749Y-15245321D02*
X4155749Y-15292940D01*
X4155749Y-15292940D02*
X4165273Y-15311988D01*
X4165273Y-15311988D02*
X4174797Y-15321512D01*
X4174797Y-15321512D02*
X4193845Y-15331036D01*
X4193845Y-15331036D02*
X4231940Y-15331036D01*
X4231940Y-15331036D02*
X4250988Y-15321512D01*
X4250988Y-15321512D02*
X4260511Y-15311988D01*
X4260511Y-15311988D02*
X4270035Y-15292940D01*
X4441464Y-15273893D02*
X4441464Y-15407226D01*
X4393845Y-15197702D02*
X4346226Y-15340559D01*
X4346226Y-15340559D02*
X4470035Y-15340559D01*
X4536702Y-15207226D02*
X4536702Y-15245321D01*
X4612892Y-15207226D02*
X4612892Y-15245321D01*
X4908131Y-15483417D02*
X4898607Y-15473893D01*
X4898607Y-15473893D02*
X4879559Y-15445321D01*
X4879559Y-15445321D02*
X4870035Y-15426274D01*
X4870035Y-15426274D02*
X4860511Y-15397702D01*
X4860511Y-15397702D02*
X4850988Y-15350083D01*
X4850988Y-15350083D02*
X4850988Y-15311988D01*
X4850988Y-15311988D02*
X4860511Y-15264369D01*
X4860511Y-15264369D02*
X4870035Y-15235798D01*
X4870035Y-15235798D02*
X4879559Y-15216750D01*
X4879559Y-15216750D02*
X4898607Y-15188178D01*
X4898607Y-15188178D02*
X4908131Y-15178655D01*
X4965273Y-15207226D02*
X5098607Y-15207226D01*
X5098607Y-15207226D02*
X5012892Y-15407226D01*
X5260511Y-15207226D02*
X5222416Y-15207226D01*
X5222416Y-15207226D02*
X5203369Y-15216750D01*
X5203369Y-15216750D02*
X5193845Y-15226274D01*
X5193845Y-15226274D02*
X5174797Y-15254845D01*
X5174797Y-15254845D02*
X5165273Y-15292940D01*
X5165273Y-15292940D02*
X5165273Y-15369131D01*
X5165273Y-15369131D02*
X5174797Y-15388178D01*
X5174797Y-15388178D02*
X5184321Y-15397702D01*
X5184321Y-15397702D02*
X5203369Y-15407226D01*
X5203369Y-15407226D02*
X5241464Y-15407226D01*
X5241464Y-15407226D02*
X5260511Y-15397702D01*
X5260511Y-15397702D02*
X5270035Y-15388178D01*
X5270035Y-15388178D02*
X5279559Y-15369131D01*
X5279559Y-15369131D02*
X5279559Y-15321512D01*
X5279559Y-15321512D02*
X5270035Y-15302464D01*
X5270035Y-15302464D02*
X5260511Y-15292940D01*
X5260511Y-15292940D02*
X5241464Y-15283417D01*
X5241464Y-15283417D02*
X5203369Y-15283417D01*
X5203369Y-15283417D02*
X5184321Y-15292940D01*
X5184321Y-15292940D02*
X5174797Y-15302464D01*
X5174797Y-15302464D02*
X5165273Y-15321512D01*
X5517654Y-15407226D02*
X5517654Y-15207226D01*
X5603369Y-15407226D02*
X5603369Y-15302464D01*
X5603369Y-15302464D02*
X5593845Y-15283417D01*
X5593845Y-15283417D02*
X5574797Y-15273893D01*
X5574797Y-15273893D02*
X5546226Y-15273893D01*
X5546226Y-15273893D02*
X5527178Y-15283417D01*
X5527178Y-15283417D02*
X5517654Y-15292940D01*
X5727178Y-15407226D02*
X5708130Y-15397702D01*
X5708130Y-15397702D02*
X5698607Y-15388178D01*
X5698607Y-15388178D02*
X5689083Y-15369131D01*
X5689083Y-15369131D02*
X5689083Y-15311988D01*
X5689083Y-15311988D02*
X5698607Y-15292940D01*
X5698607Y-15292940D02*
X5708130Y-15283417D01*
X5708130Y-15283417D02*
X5727178Y-15273893D01*
X5727178Y-15273893D02*
X5755750Y-15273893D01*
X5755750Y-15273893D02*
X5774797Y-15283417D01*
X5774797Y-15283417D02*
X5784321Y-15292940D01*
X5784321Y-15292940D02*
X5793845Y-15311988D01*
X5793845Y-15311988D02*
X5793845Y-15369131D01*
X5793845Y-15369131D02*
X5784321Y-15388178D01*
X5784321Y-15388178D02*
X5774797Y-15397702D01*
X5774797Y-15397702D02*
X5755750Y-15407226D01*
X5755750Y-15407226D02*
X5727178Y-15407226D01*
X5908130Y-15407226D02*
X5889083Y-15397702D01*
X5889083Y-15397702D02*
X5879559Y-15378655D01*
X5879559Y-15378655D02*
X5879559Y-15207226D01*
X6060511Y-15397702D02*
X6041464Y-15407226D01*
X6041464Y-15407226D02*
X6003369Y-15407226D01*
X6003369Y-15407226D02*
X5984321Y-15397702D01*
X5984321Y-15397702D02*
X5974797Y-15378655D01*
X5974797Y-15378655D02*
X5974797Y-15302464D01*
X5974797Y-15302464D02*
X5984321Y-15283417D01*
X5984321Y-15283417D02*
X6003369Y-15273893D01*
X6003369Y-15273893D02*
X6041464Y-15273893D01*
X6041464Y-15273893D02*
X6060511Y-15283417D01*
X6060511Y-15283417D02*
X6070035Y-15302464D01*
X6070035Y-15302464D02*
X6070035Y-15321512D01*
X6070035Y-15321512D02*
X5974797Y-15340559D01*
X6146226Y-15397702D02*
X6165273Y-15407226D01*
X6165273Y-15407226D02*
X6203369Y-15407226D01*
X6203369Y-15407226D02*
X6222416Y-15397702D01*
X6222416Y-15397702D02*
X6231940Y-15378655D01*
X6231940Y-15378655D02*
X6231940Y-15369131D01*
X6231940Y-15369131D02*
X6222416Y-15350083D01*
X6222416Y-15350083D02*
X6203369Y-15340559D01*
X6203369Y-15340559D02*
X6174797Y-15340559D01*
X6174797Y-15340559D02*
X6155750Y-15331036D01*
X6155750Y-15331036D02*
X6146226Y-15311988D01*
X6146226Y-15311988D02*
X6146226Y-15302464D01*
X6146226Y-15302464D02*
X6155750Y-15283417D01*
X6155750Y-15283417D02*
X6174797Y-15273893D01*
X6174797Y-15273893D02*
X6203369Y-15273893D01*
X6203369Y-15273893D02*
X6222416Y-15283417D01*
X6298607Y-15483417D02*
X6308131Y-15473893D01*
X6308131Y-15473893D02*
X6327178Y-15445321D01*
X6327178Y-15445321D02*
X6336702Y-15426274D01*
X6336702Y-15426274D02*
X6346226Y-15397702D01*
X6346226Y-15397702D02*
X6355750Y-15350083D01*
X6355750Y-15350083D02*
X6355750Y-15311988D01*
X6355750Y-15311988D02*
X6346226Y-15264369D01*
X6346226Y-15264369D02*
X6336702Y-15235798D01*
X6336702Y-15235798D02*
X6327178Y-15216750D01*
X6327178Y-15216750D02*
X6308131Y-15188178D01*
X6308131Y-15188178D02*
X6298607Y-15178655D01*
X1233068Y-15679742D02*
X1333068Y-15579742D01*
X1233068Y-15479742D01*
X1133068Y-15579742D01*
X1233068Y-15679742D01*
X1679559Y-15537893D02*
X1679559Y-15671226D01*
X1631940Y-15461702D02*
X1584321Y-15604559D01*
X1584321Y-15604559D02*
X1708130Y-15604559D01*
X1784321Y-15652178D02*
X1793844Y-15661702D01*
X1793844Y-15661702D02*
X1784321Y-15671226D01*
X1784321Y-15671226D02*
X1774797Y-15661702D01*
X1774797Y-15661702D02*
X1784321Y-15652178D01*
X1784321Y-15652178D02*
X1784321Y-15671226D01*
X1917654Y-15471226D02*
X1936702Y-15471226D01*
X1936702Y-15471226D02*
X1955749Y-15480750D01*
X1955749Y-15480750D02*
X1965273Y-15490274D01*
X1965273Y-15490274D02*
X1974797Y-15509321D01*
X1974797Y-15509321D02*
X1984321Y-15547417D01*
X1984321Y-15547417D02*
X1984321Y-15595036D01*
X1984321Y-15595036D02*
X1974797Y-15633131D01*
X1974797Y-15633131D02*
X1965273Y-15652178D01*
X1965273Y-15652178D02*
X1955749Y-15661702D01*
X1955749Y-15661702D02*
X1936702Y-15671226D01*
X1936702Y-15671226D02*
X1917654Y-15671226D01*
X1917654Y-15671226D02*
X1898606Y-15661702D01*
X1898606Y-15661702D02*
X1889082Y-15652178D01*
X1889082Y-15652178D02*
X1879559Y-15633131D01*
X1879559Y-15633131D02*
X1870035Y-15595036D01*
X1870035Y-15595036D02*
X1870035Y-15547417D01*
X1870035Y-15547417D02*
X1879559Y-15509321D01*
X1879559Y-15509321D02*
X1889082Y-15490274D01*
X1889082Y-15490274D02*
X1898606Y-15480750D01*
X1898606Y-15480750D02*
X1917654Y-15471226D01*
X2108130Y-15471226D02*
X2127178Y-15471226D01*
X2127178Y-15471226D02*
X2146225Y-15480750D01*
X2146225Y-15480750D02*
X2155749Y-15490274D01*
X2155749Y-15490274D02*
X2165273Y-15509321D01*
X2165273Y-15509321D02*
X2174797Y-15547417D01*
X2174797Y-15547417D02*
X2174797Y-15595036D01*
X2174797Y-15595036D02*
X2165273Y-15633131D01*
X2165273Y-15633131D02*
X2155749Y-15652178D01*
X2155749Y-15652178D02*
X2146225Y-15661702D01*
X2146225Y-15661702D02*
X2127178Y-15671226D01*
X2127178Y-15671226D02*
X2108130Y-15671226D01*
X2108130Y-15671226D02*
X2089082Y-15661702D01*
X2089082Y-15661702D02*
X2079559Y-15652178D01*
X2079559Y-15652178D02*
X2070035Y-15633131D01*
X2070035Y-15633131D02*
X2060511Y-15595036D01*
X2060511Y-15595036D02*
X2060511Y-15547417D01*
X2060511Y-15547417D02*
X2070035Y-15509321D01*
X2070035Y-15509321D02*
X2079559Y-15490274D01*
X2079559Y-15490274D02*
X2089082Y-15480750D01*
X2089082Y-15480750D02*
X2108130Y-15471226D01*
X2298606Y-15471226D02*
X2317654Y-15471226D01*
X2317654Y-15471226D02*
X2336702Y-15480750D01*
X2336702Y-15480750D02*
X2346225Y-15490274D01*
X2346225Y-15490274D02*
X2355749Y-15509321D01*
X2355749Y-15509321D02*
X2365273Y-15547417D01*
X2365273Y-15547417D02*
X2365273Y-15595036D01*
X2365273Y-15595036D02*
X2355749Y-15633131D01*
X2355749Y-15633131D02*
X2346225Y-15652178D01*
X2346225Y-15652178D02*
X2336702Y-15661702D01*
X2336702Y-15661702D02*
X2317654Y-15671226D01*
X2317654Y-15671226D02*
X2298606Y-15671226D01*
X2298606Y-15671226D02*
X2279559Y-15661702D01*
X2279559Y-15661702D02*
X2270035Y-15652178D01*
X2270035Y-15652178D02*
X2260511Y-15633131D01*
X2260511Y-15633131D02*
X2250987Y-15595036D01*
X2250987Y-15595036D02*
X2250987Y-15547417D01*
X2250987Y-15547417D02*
X2260511Y-15509321D01*
X2260511Y-15509321D02*
X2270035Y-15490274D01*
X2270035Y-15490274D02*
X2279559Y-15480750D01*
X2279559Y-15480750D02*
X2298606Y-15471226D01*
X2450987Y-15671226D02*
X2450987Y-15537893D01*
X2450987Y-15556940D02*
X2460511Y-15547417D01*
X2460511Y-15547417D02*
X2479559Y-15537893D01*
X2479559Y-15537893D02*
X2508130Y-15537893D01*
X2508130Y-15537893D02*
X2527178Y-15547417D01*
X2527178Y-15547417D02*
X2536702Y-15566464D01*
X2536702Y-15566464D02*
X2536702Y-15671226D01*
X2536702Y-15566464D02*
X2546225Y-15547417D01*
X2546225Y-15547417D02*
X2565273Y-15537893D01*
X2565273Y-15537893D02*
X2593844Y-15537893D01*
X2593844Y-15537893D02*
X2612892Y-15547417D01*
X2612892Y-15547417D02*
X2622416Y-15566464D01*
X2622416Y-15566464D02*
X2622416Y-15671226D01*
X2717654Y-15671226D02*
X2717654Y-15537893D01*
X2717654Y-15556940D02*
X2727178Y-15547417D01*
X2727178Y-15547417D02*
X2746225Y-15537893D01*
X2746225Y-15537893D02*
X2774797Y-15537893D01*
X2774797Y-15537893D02*
X2793845Y-15547417D01*
X2793845Y-15547417D02*
X2803368Y-15566464D01*
X2803368Y-15566464D02*
X2803368Y-15671226D01*
X2803368Y-15566464D02*
X2812892Y-15547417D01*
X2812892Y-15547417D02*
X2831940Y-15537893D01*
X2831940Y-15537893D02*
X2860511Y-15537893D01*
X2860511Y-15537893D02*
X2879559Y-15547417D01*
X2879559Y-15547417D02*
X2889083Y-15566464D01*
X2889083Y-15566464D02*
X2889083Y-15671226D01*
X3279559Y-15461702D02*
X3108130Y-15718845D01*
X3536702Y-15471226D02*
X3555749Y-15471226D01*
X3555749Y-15471226D02*
X3574797Y-15480750D01*
X3574797Y-15480750D02*
X3584321Y-15490274D01*
X3584321Y-15490274D02*
X3593845Y-15509321D01*
X3593845Y-15509321D02*
X3603368Y-15547417D01*
X3603368Y-15547417D02*
X3603368Y-15595036D01*
X3603368Y-15595036D02*
X3593845Y-15633131D01*
X3593845Y-15633131D02*
X3584321Y-15652178D01*
X3584321Y-15652178D02*
X3574797Y-15661702D01*
X3574797Y-15661702D02*
X3555749Y-15671226D01*
X3555749Y-15671226D02*
X3536702Y-15671226D01*
X3536702Y-15671226D02*
X3517654Y-15661702D01*
X3517654Y-15661702D02*
X3508130Y-15652178D01*
X3508130Y-15652178D02*
X3498606Y-15633131D01*
X3498606Y-15633131D02*
X3489083Y-15595036D01*
X3489083Y-15595036D02*
X3489083Y-15547417D01*
X3489083Y-15547417D02*
X3498606Y-15509321D01*
X3498606Y-15509321D02*
X3508130Y-15490274D01*
X3508130Y-15490274D02*
X3517654Y-15480750D01*
X3517654Y-15480750D02*
X3536702Y-15471226D01*
X3689083Y-15652178D02*
X3698606Y-15661702D01*
X3698606Y-15661702D02*
X3689083Y-15671226D01*
X3689083Y-15671226D02*
X3679559Y-15661702D01*
X3679559Y-15661702D02*
X3689083Y-15652178D01*
X3689083Y-15652178D02*
X3689083Y-15671226D01*
X3889083Y-15671226D02*
X3774797Y-15671226D01*
X3831940Y-15671226D02*
X3831940Y-15471226D01*
X3831940Y-15471226D02*
X3812892Y-15499798D01*
X3812892Y-15499798D02*
X3793845Y-15518845D01*
X3793845Y-15518845D02*
X3774797Y-15528369D01*
X4070035Y-15471226D02*
X3974797Y-15471226D01*
X3974797Y-15471226D02*
X3965273Y-15566464D01*
X3965273Y-15566464D02*
X3974797Y-15556940D01*
X3974797Y-15556940D02*
X3993845Y-15547417D01*
X3993845Y-15547417D02*
X4041464Y-15547417D01*
X4041464Y-15547417D02*
X4060511Y-15556940D01*
X4060511Y-15556940D02*
X4070035Y-15566464D01*
X4070035Y-15566464D02*
X4079559Y-15585512D01*
X4079559Y-15585512D02*
X4079559Y-15633131D01*
X4079559Y-15633131D02*
X4070035Y-15652178D01*
X4070035Y-15652178D02*
X4060511Y-15661702D01*
X4060511Y-15661702D02*
X4041464Y-15671226D01*
X4041464Y-15671226D02*
X3993845Y-15671226D01*
X3993845Y-15671226D02*
X3974797Y-15661702D01*
X3974797Y-15661702D02*
X3965273Y-15652178D01*
X4146226Y-15471226D02*
X4279559Y-15471226D01*
X4279559Y-15471226D02*
X4193845Y-15671226D01*
X4450988Y-15471226D02*
X4355749Y-15471226D01*
X4355749Y-15471226D02*
X4346226Y-15566464D01*
X4346226Y-15566464D02*
X4355749Y-15556940D01*
X4355749Y-15556940D02*
X4374797Y-15547417D01*
X4374797Y-15547417D02*
X4422416Y-15547417D01*
X4422416Y-15547417D02*
X4441464Y-15556940D01*
X4441464Y-15556940D02*
X4450988Y-15566464D01*
X4450988Y-15566464D02*
X4460511Y-15585512D01*
X4460511Y-15585512D02*
X4460511Y-15633131D01*
X4460511Y-15633131D02*
X4450988Y-15652178D01*
X4450988Y-15652178D02*
X4441464Y-15661702D01*
X4441464Y-15661702D02*
X4422416Y-15671226D01*
X4422416Y-15671226D02*
X4374797Y-15671226D01*
X4374797Y-15671226D02*
X4355749Y-15661702D01*
X4355749Y-15661702D02*
X4346226Y-15652178D01*
X4536702Y-15471226D02*
X4536702Y-15509321D01*
X4612892Y-15471226D02*
X4612892Y-15509321D01*
X4908131Y-15747417D02*
X4898607Y-15737893D01*
X4898607Y-15737893D02*
X4879559Y-15709321D01*
X4879559Y-15709321D02*
X4870035Y-15690274D01*
X4870035Y-15690274D02*
X4860511Y-15661702D01*
X4860511Y-15661702D02*
X4850988Y-15614083D01*
X4850988Y-15614083D02*
X4850988Y-15575988D01*
X4850988Y-15575988D02*
X4860511Y-15528369D01*
X4860511Y-15528369D02*
X4870035Y-15499798D01*
X4870035Y-15499798D02*
X4879559Y-15480750D01*
X4879559Y-15480750D02*
X4898607Y-15452178D01*
X4898607Y-15452178D02*
X4908131Y-15442655D01*
X4974797Y-15490274D02*
X4984321Y-15480750D01*
X4984321Y-15480750D02*
X5003369Y-15471226D01*
X5003369Y-15471226D02*
X5050988Y-15471226D01*
X5050988Y-15471226D02*
X5070035Y-15480750D01*
X5070035Y-15480750D02*
X5079559Y-15490274D01*
X5079559Y-15490274D02*
X5089083Y-15509321D01*
X5089083Y-15509321D02*
X5089083Y-15528369D01*
X5089083Y-15528369D02*
X5079559Y-15556940D01*
X5079559Y-15556940D02*
X4965273Y-15671226D01*
X4965273Y-15671226D02*
X5089083Y-15671226D01*
X5327178Y-15671226D02*
X5327178Y-15471226D01*
X5412892Y-15671226D02*
X5412892Y-15566464D01*
X5412892Y-15566464D02*
X5403369Y-15547417D01*
X5403369Y-15547417D02*
X5384321Y-15537893D01*
X5384321Y-15537893D02*
X5355750Y-15537893D01*
X5355750Y-15537893D02*
X5336702Y-15547417D01*
X5336702Y-15547417D02*
X5327178Y-15556940D01*
X5536702Y-15671226D02*
X5517654Y-15661702D01*
X5517654Y-15661702D02*
X5508131Y-15652178D01*
X5508131Y-15652178D02*
X5498607Y-15633131D01*
X5498607Y-15633131D02*
X5498607Y-15575988D01*
X5498607Y-15575988D02*
X5508131Y-15556940D01*
X5508131Y-15556940D02*
X5517654Y-15547417D01*
X5517654Y-15547417D02*
X5536702Y-15537893D01*
X5536702Y-15537893D02*
X5565273Y-15537893D01*
X5565273Y-15537893D02*
X5584321Y-15547417D01*
X5584321Y-15547417D02*
X5593845Y-15556940D01*
X5593845Y-15556940D02*
X5603369Y-15575988D01*
X5603369Y-15575988D02*
X5603369Y-15633131D01*
X5603369Y-15633131D02*
X5593845Y-15652178D01*
X5593845Y-15652178D02*
X5584321Y-15661702D01*
X5584321Y-15661702D02*
X5565273Y-15671226D01*
X5565273Y-15671226D02*
X5536702Y-15671226D01*
X5717654Y-15671226D02*
X5698607Y-15661702D01*
X5698607Y-15661702D02*
X5689083Y-15642655D01*
X5689083Y-15642655D02*
X5689083Y-15471226D01*
X5870035Y-15661702D02*
X5850988Y-15671226D01*
X5850988Y-15671226D02*
X5812892Y-15671226D01*
X5812892Y-15671226D02*
X5793845Y-15661702D01*
X5793845Y-15661702D02*
X5784321Y-15642655D01*
X5784321Y-15642655D02*
X5784321Y-15566464D01*
X5784321Y-15566464D02*
X5793845Y-15547417D01*
X5793845Y-15547417D02*
X5812892Y-15537893D01*
X5812892Y-15537893D02*
X5850988Y-15537893D01*
X5850988Y-15537893D02*
X5870035Y-15547417D01*
X5870035Y-15547417D02*
X5879559Y-15566464D01*
X5879559Y-15566464D02*
X5879559Y-15585512D01*
X5879559Y-15585512D02*
X5784321Y-15604559D01*
X5955750Y-15661702D02*
X5974797Y-15671226D01*
X5974797Y-15671226D02*
X6012892Y-15671226D01*
X6012892Y-15671226D02*
X6031940Y-15661702D01*
X6031940Y-15661702D02*
X6041464Y-15642655D01*
X6041464Y-15642655D02*
X6041464Y-15633131D01*
X6041464Y-15633131D02*
X6031940Y-15614083D01*
X6031940Y-15614083D02*
X6012892Y-15604559D01*
X6012892Y-15604559D02*
X5984321Y-15604559D01*
X5984321Y-15604559D02*
X5965273Y-15595036D01*
X5965273Y-15595036D02*
X5955750Y-15575988D01*
X5955750Y-15575988D02*
X5955750Y-15566464D01*
X5955750Y-15566464D02*
X5965273Y-15547417D01*
X5965273Y-15547417D02*
X5984321Y-15537893D01*
X5984321Y-15537893D02*
X6012892Y-15537893D01*
X6012892Y-15537893D02*
X6031940Y-15547417D01*
X6108131Y-15747417D02*
X6117654Y-15737893D01*
X6117654Y-15737893D02*
X6136702Y-15709321D01*
X6136702Y-15709321D02*
X6146226Y-15690274D01*
X6146226Y-15690274D02*
X6155750Y-15661702D01*
X6155750Y-15661702D02*
X6165273Y-15614083D01*
X6165273Y-15614083D02*
X6165273Y-15575988D01*
X6165273Y-15575988D02*
X6155750Y-15528369D01*
X6155750Y-15528369D02*
X6146226Y-15499798D01*
X6146226Y-15499798D02*
X6136702Y-15480750D01*
X6136702Y-15480750D02*
X6117654Y-15452178D01*
X6117654Y-15452178D02*
X6108131Y-15442655D01*
M02*
