%TF.GenerationSoftware,KiCad,Pcbnew,8.0.1*%
%TF.CreationDate,2024-04-24T16:38:57-04:00*%
%TF.ProjectId,RGBsensorBoard,52474273-656e-4736-9f72-426f6172642e,rev?*%
%TF.SameCoordinates,Original*%
%TF.FileFunction,Copper,L2,Bot*%
%TF.FilePolarity,Positive*%
%FSLAX46Y46*%
G04 Gerber Fmt 4.6, Leading zero omitted, Abs format (unit mm)*
G04 Created by KiCad (PCBNEW 8.0.1) date 2024-04-24 16:38:57*
%MOMM*%
%LPD*%
G01*
G04 APERTURE LIST*
G04 Aperture macros list*
%AMHorizOval*
0 Thick line with rounded ends*
0 $1 width*
0 $2 $3 position (X,Y) of the first rounded end (center of the circle)*
0 $4 $5 position (X,Y) of the second rounded end (center of the circle)*
0 Add line between two ends*
20,1,$1,$2,$3,$4,$5,0*
0 Add two circle primitives to create the rounded ends*
1,1,$1,$2,$3*
1,1,$1,$4,$5*%
%AMRotRect*
0 Rectangle, with rotation*
0 The origin of the aperture is its center*
0 $1 length*
0 $2 width*
0 $3 Rotation angle, in degrees counterclockwise*
0 Add horizontal line*
21,1,$1,$2,0,0,$3*%
G04 Aperture macros list end*
%TA.AperFunction,Conductor*%
%ADD10C,0.200000*%
%TD*%
%TA.AperFunction,ComponentPad*%
%ADD11RotRect,1.700000X1.700000X45.000000*%
%TD*%
%TA.AperFunction,ComponentPad*%
%ADD12HorizOval,1.700000X0.000000X0.000000X0.000000X0.000000X0*%
%TD*%
%TA.AperFunction,ComponentPad*%
%ADD13R,1.700000X1.700000*%
%TD*%
%TA.AperFunction,ComponentPad*%
%ADD14O,1.700000X1.700000*%
%TD*%
%TA.AperFunction,ComponentPad*%
%ADD15C,1.600000*%
%TD*%
%TA.AperFunction,ComponentPad*%
%ADD16O,1.600000X1.600000*%
%TD*%
%TA.AperFunction,ComponentPad*%
%ADD17HorizOval,1.700000X0.000000X0.000000X0.000000X0.000000X0*%
%TD*%
%TA.AperFunction,ComponentPad*%
%ADD18RotRect,1.700000X1.700000X225.000000*%
%TD*%
%TA.AperFunction,ComponentPad*%
%ADD19C,4.400000*%
%TD*%
%TA.AperFunction,ComponentPad*%
%ADD20HorizOval,1.600000X0.000000X0.000000X0.000000X0.000000X0*%
%TD*%
%TA.AperFunction,ComponentPad*%
%ADD21HorizOval,1.600000X0.000000X0.000000X0.000000X0.000000X0*%
%TD*%
%TA.AperFunction,ComponentPad*%
%ADD22HorizOval,1.700000X0.000000X0.000000X0.000000X0.000000X0*%
%TD*%
%TA.AperFunction,ComponentPad*%
%ADD23RotRect,1.700000X1.700000X315.000000*%
%TD*%
%TA.AperFunction,ComponentPad*%
%ADD24RotRect,1.700000X1.700000X135.000000*%
%TD*%
%TA.AperFunction,ComponentPad*%
%ADD25HorizOval,1.700000X0.000000X0.000000X0.000000X0.000000X0*%
%TD*%
%TA.AperFunction,ComponentPad*%
%ADD26RotRect,1.800000X1.800000X45.000000*%
%TD*%
%TA.AperFunction,ComponentPad*%
%ADD27C,1.800000*%
%TD*%
%TA.AperFunction,ComponentPad*%
%ADD28RotRect,1.800000X1.800000X135.000000*%
%TD*%
%TA.AperFunction,ComponentPad*%
%ADD29RotRect,1.800000X1.800000X315.000000*%
%TD*%
%TA.AperFunction,ComponentPad*%
%ADD30RotRect,1.800000X1.800000X225.000000*%
%TD*%
%TA.AperFunction,ViaPad*%
%ADD31C,0.600000*%
%TD*%
G04 APERTURE END LIST*
D10*
%TO.N,/VIN 5V*%
X137500000Y-117500000D02*
X137500000Y-137500000D01*
%TD*%
D11*
%TO.P,C3,1,Pin_1*%
%TO.N,/GND*%
X25000000Y-135000000D03*
D12*
%TO.P,C3,2,Pin_2*%
%TO.N,/VIN 5V*%
X23203949Y-133203949D03*
%TO.P,C3,3,Pin_3*%
%TO.N,/SCL*%
X21407898Y-131407898D03*
%TO.P,C3,4,Pin_4*%
%TO.N,/SDA*%
X19611846Y-129611846D03*
%TD*%
D13*
%TO.P,J11,1,Pin_1*%
%TO.N,/VIN 5V*%
X134356656Y-123918482D03*
D14*
%TO.P,J11,2,Pin_2*%
%TO.N,3.3*%
X134356656Y-126458482D03*
%TO.P,J11,3,Pin_3*%
%TO.N,/SDA*%
X134356656Y-128998482D03*
%TO.P,J11,4,Pin_4*%
%TO.N,/SCL*%
X134356656Y-131538482D03*
%TO.P,J11,5,Pin_5*%
%TO.N,/GND*%
X134356656Y-134078482D03*
%TO.P,J11,6*%
%TO.N,/VIN 5V*%
X134356656Y-136618482D03*
%TD*%
D15*
%TO.P,R6,1*%
%TO.N,/VIN 5V*%
X117380000Y-17500000D03*
D16*
%TO.P,R6,2*%
X125000000Y-17500000D03*
%TD*%
D17*
%TO.P,C1,2,Pin_2*%
%TO.N,/GND*%
X134296051Y-19296051D03*
D18*
%TO.P,C1,1,Pin_1*%
%TO.N,/VIN 5V*%
X132500000Y-17500000D03*
%TD*%
D19*
%TO.P,hole2,1*%
%TO.N,N/C*%
X32500000Y-35000000D03*
%TD*%
%TO.P,hole,1*%
%TO.N,N/C*%
X75000000Y-122500000D03*
%TD*%
D15*
%TO.P,R6,1*%
%TO.N,/VIN 5V*%
X92418153Y-62172794D03*
D20*
%TO.P,R6,2*%
X97806307Y-56784640D03*
%TD*%
D15*
%TO.P,R5,1*%
%TO.N,/VIN 5V*%
X20866018Y-119857260D03*
D16*
%TO.P,R5,2*%
X20866018Y-112237260D03*
%TD*%
D15*
%TO.P,R4,1*%
%TO.N,/VIN 5V*%
X60951901Y-37339204D03*
D21*
%TO.P,R4,2*%
X66340055Y-42727358D03*
%TD*%
D15*
%TO.P,R3,1*%
%TO.N,/VIN 5V*%
X107048192Y-84849708D03*
D21*
%TO.P,R3,2*%
X112436346Y-90237862D03*
%TD*%
D15*
%TO.P,R2,1*%
%TO.N,/VIN 5V*%
X127773492Y-31328796D03*
D21*
%TO.P,R2,2*%
X133161646Y-36716950D03*
%TD*%
D15*
%TO.P,R1,1*%
%TO.N,/VIN 5V*%
X44334892Y-104160794D03*
D21*
%TO.P,R1,2*%
X49723046Y-109548948D03*
%TD*%
D12*
%TO.P,J10,12,Pin_12*%
%TO.N,SC1*%
X72300965Y-100307062D03*
%TO.P,J10,11,Pin_11*%
%TO.N,/SD1*%
X70504914Y-98511011D03*
%TO.P,J10,10,Pin_10*%
%TO.N,/SC0*%
X68708863Y-96714960D03*
%TO.P,J10,9,Pin_9*%
%TO.N,/SD0*%
X66912812Y-94918909D03*
%TO.P,J10,8,Pin_8*%
%TO.N,/A2*%
X65116761Y-93122858D03*
%TO.P,J10,7,Pin_7*%
%TO.N,/A1*%
X63320709Y-91326806D03*
%TO.P,J10,6,Pin_6*%
%TO.N,/A0*%
X61524658Y-89530755D03*
%TO.P,J10,5,Pin_5*%
%TO.N,/RST*%
X59728607Y-87734704D03*
%TO.P,J10,4,Pin_4*%
%TO.N,/SCL*%
X57932556Y-85938653D03*
%TO.P,J10,3,Pin_3*%
%TO.N,/SDA*%
X56136504Y-84142601D03*
%TO.P,J10,2,Pin_2*%
%TO.N,/GND*%
X54340453Y-82346550D03*
D11*
%TO.P,J10,1,Pin_1*%
%TO.N,/VIN 5V*%
X52544402Y-80550499D03*
%TD*%
%TO.P,J9,1,Pin_1*%
%TO.N,/SC7*%
X61666079Y-71428821D03*
D12*
%TO.P,J9,2,Pin_2*%
%TO.N,/SD7*%
X63462130Y-73224872D03*
%TO.P,J9,3,Pin_3*%
%TO.N,/SC6*%
X65258181Y-75020923D03*
%TO.P,J9,4,Pin_4*%
%TO.N,/SD6*%
X67054233Y-76816975D03*
%TO.P,J9,5,Pin_5*%
%TO.N,/SC5*%
X68850284Y-78613026D03*
%TO.P,J9,6,Pin_6*%
%TO.N,/SD5*%
X70646335Y-80409077D03*
%TO.P,J9,7,Pin_7*%
%TO.N,/SC4*%
X72442386Y-82205128D03*
%TO.P,J9,8,Pin_8*%
%TO.N,/SD4*%
X74238438Y-84001180D03*
%TO.P,J9,9,Pin_9*%
%TO.N,/SC3*%
X76034489Y-85797231D03*
%TO.P,J9,10,Pin_10*%
%TO.N,/SD3*%
X77830540Y-87593282D03*
%TO.P,J9,11,Pin_11*%
%TO.N,/SC2*%
X79626591Y-89389333D03*
%TO.P,J9,12,Pin_12*%
%TO.N,/SD2*%
X81422642Y-91185384D03*
%TD*%
D17*
%TO.P,J8,5,Pin_5*%
%TO.N,unconnected-(J8-Pin_5-Pad5)*%
X35602123Y-109570161D03*
%TO.P,J8,4,Pin_4*%
%TO.N,/SC4*%
X37398174Y-111366212D03*
%TO.P,J8,3,Pin_3*%
%TO.N,/SD4*%
X39194226Y-113162264D03*
%TO.P,J8,2,Pin_2*%
%TO.N,3.3*%
X40990277Y-114958315D03*
D11*
%TO.P,J8,1,Pin_1*%
%TO.N,/GND*%
X42786328Y-116754366D03*
%TD*%
D17*
%TO.P,J7,5,Pin_5*%
%TO.N,unconnected-(J7-Pin_5-Pad5)*%
X114444529Y-30727755D03*
%TO.P,J7,4,Pin_4*%
%TO.N,/SC3*%
X116240580Y-32523806D03*
%TO.P,J7,3,Pin_3*%
%TO.N,/SD3*%
X118036632Y-34319858D03*
%TO.P,J7,2,Pin_2*%
%TO.N,3.3*%
X119832683Y-36115909D03*
D18*
%TO.P,J7,1,Pin_1*%
%TO.N,/GND*%
X121628734Y-37911960D03*
%TD*%
%TO.P,J6,1,Pin_1*%
%TO.N,/GND*%
X70561482Y-107335704D03*
D17*
%TO.P,J6,2,Pin_2*%
%TO.N,3.3*%
X68765431Y-105539653D03*
%TO.P,J6,3,Pin_3*%
%TO.N,/SD1*%
X66969380Y-103743602D03*
%TO.P,J6,4,Pin_4*%
%TO.N,SC1*%
X65173328Y-101947550D03*
%TO.P,J6,5,Pin_5*%
%TO.N,unconnected-(J6-Pin_5-Pad5)*%
X63377277Y-100151499D03*
%TD*%
D18*
%TO.P,J5,1,Pin_1*%
%TO.N,/GND*%
X52261559Y-89035780D03*
D17*
%TO.P,J5,2,Pin_2*%
%TO.N,3.3*%
X50465508Y-87239729D03*
%TO.P,J5,3,Pin_3*%
%TO.N,/SD0*%
X48669457Y-85443678D03*
%TO.P,J5,4,Pin_4*%
%TO.N,/SC0*%
X46873405Y-83647626D03*
%TO.P,J5,5,Pin_5*%
%TO.N,unconnected-(J5-Pin_5-Pad5)*%
X45077354Y-81851575D03*
%TD*%
D22*
%TO.P,J4,5,Pin_5*%
%TO.N,unconnected-(J4-Pin_5-Pad5)*%
X87659324Y-90266146D03*
%TO.P,J4,4,Pin_4*%
%TO.N,/SC2*%
X89455375Y-88470095D03*
%TO.P,J4,3,Pin_3*%
%TO.N,/SD2*%
X91251427Y-86674043D03*
%TO.P,J4,2,Pin_2*%
%TO.N,3.3*%
X93047478Y-84877992D03*
D23*
%TO.P,J4,1,Pin_1*%
%TO.N,/GND*%
X94843529Y-83081941D03*
%TD*%
D24*
%TO.P,J3,1,Pin_1*%
%TO.N,/GND*%
X62210551Y-64760805D03*
D25*
%TO.P,J3,2,Pin_2*%
%TO.N,3.3*%
X64006602Y-62964754D03*
%TO.P,J3,3,Pin_3*%
%TO.N,/SD6*%
X65802653Y-61168703D03*
%TO.P,J3,4,Pin_4*%
%TO.N,/SC6*%
X67598705Y-59372651D03*
%TO.P,J3,5,Pin_5*%
%TO.N,unconnected-(J3-Pin_5-Pad5)*%
X69394756Y-57576600D03*
%TD*%
%TO.P,J2,5,Pin_5*%
%TO.N,unconnected-(J2-Pin_5-Pad5)*%
X87100710Y-39870646D03*
%TO.P,J2,4,Pin_4*%
%TO.N,/SC7*%
X85304659Y-41666697D03*
%TO.P,J2,3,Pin_3*%
%TO.N,/SD7*%
X83508607Y-43462749D03*
%TO.P,J2,2,Pin_2*%
%TO.N,3.3*%
X81712556Y-45258800D03*
D24*
%TO.P,J2,1,Pin_1*%
%TO.N,/GND*%
X79916505Y-47054851D03*
%TD*%
D23*
%TO.P,J1,1,Pin_1*%
%TO.N,/GND*%
X112818184Y-65107287D03*
D22*
%TO.P,J1,2,Pin_2*%
%TO.N,3.3*%
X111022133Y-66903338D03*
%TO.P,J1,3,Pin_3*%
%TO.N,/SD5*%
X109226082Y-68699389D03*
%TO.P,J1,4,Pin_4*%
%TO.N,/SC5*%
X107430030Y-70495441D03*
%TO.P,J1,5,Pin_5*%
%TO.N,unconnected-(J1-Pin_5-Pad5)*%
X105633979Y-72291492D03*
%TD*%
D26*
%TO.P,D6,1,K*%
%TO.N,/GND*%
X88041162Y-66549785D03*
D27*
%TO.P,D6,2,A*%
%TO.N,/VIN 5V*%
X89837213Y-64753734D03*
%TD*%
D28*
%TO.P,D5,1,K*%
%TO.N,/GND*%
X26522872Y-128068075D03*
D27*
%TO.P,D5,2,A*%
%TO.N,/VIN 5V*%
X24726821Y-126272024D03*
%TD*%
D26*
%TO.P,D4,1,K*%
%TO.N,/GND*%
X122335841Y-29426679D03*
D27*
%TO.P,D4,2,A*%
%TO.N,/VIN 5V*%
X124131892Y-27630628D03*
%TD*%
D29*
%TO.P,D3,1,K*%
%TO.N,/GND*%
X102155013Y-79956529D03*
D27*
%TO.P,D3,2,A*%
%TO.N,/VIN 5V*%
X103951064Y-81752580D03*
%TD*%
D28*
%TO.P,D2,1,K*%
%TO.N,/GND*%
X71618607Y-48005909D03*
D27*
%TO.P,D2,2,A*%
%TO.N,/VIN 5V*%
X69822556Y-46209858D03*
%TD*%
D30*
%TO.P,D1,1,K*%
%TO.N,/GND*%
X53421214Y-99755519D03*
D27*
%TO.P,D1,2,A*%
%TO.N,/VIN 5V*%
X51625163Y-101551570D03*
%TD*%
D31*
%TO.N,/SDA*%
X50000000Y-120000000D03*
X27500000Y-117500000D03*
%TO.N,/SCL*%
X35000000Y-122500000D03*
%TO.N,/GND*%
X122500000Y-22500000D03*
%TO.N,/SCL*%
X126932035Y-130189395D03*
X82737861Y-103672891D03*
%TO.N,/SDA*%
X84505628Y-101905124D03*
%TO.N,/SD4*%
X54453590Y-71853086D03*
X49150289Y-66549785D03*
%TO.N,/SC4*%
X56221357Y-70085319D03*
X49150289Y-63014251D03*
%TO.N,/VIN 5V*%
X52685823Y-73620853D03*
X56221357Y-77156386D03*
%TO.N,/SC6*%
X70363493Y-63014251D03*
%TO.N,/GND*%
X93698016Y-91298522D03*
%TD*%
D10*
%TO.N,/SDA*%
X62688482Y-132688482D02*
X50000000Y-120000000D01*
X130000000Y-132688482D02*
X62688482Y-132688482D01*
X134833002Y-132688482D02*
X130000000Y-132688482D01*
X130000000Y-132688482D02*
X129811518Y-132688482D01*
%TO.N,/SCL*%
X30315796Y-122500000D02*
X35000000Y-122500000D01*
X21407898Y-131407898D02*
X30315796Y-122500000D01*
%TO.N,/SDA*%
X19611846Y-125388154D02*
X27500000Y-117500000D01*
X19611846Y-129611846D02*
X19611846Y-125388154D01*
%TO.N,/GND*%
X31472620Y-133017822D02*
X29227399Y-130772601D01*
X29227399Y-130772601D02*
X26522872Y-128068075D01*
X25000000Y-135000000D02*
X29227399Y-130772601D01*
%TO.N,/SDA*%
X135506656Y-132014828D02*
X134833002Y-132688482D01*
X135506656Y-130148482D02*
X135506656Y-132014828D01*
X134356656Y-128998482D02*
X135506656Y-130148482D01*
%TO.N,/VIN 5V*%
X134356656Y-136618482D02*
X135238174Y-137500000D01*
X135238174Y-137500000D02*
X137500000Y-137500000D01*
X120224406Y-20224406D02*
X120448812Y-20000000D01*
X124222870Y-20000000D02*
X135417316Y-31194446D01*
X120448812Y-20000000D02*
X124222870Y-20000000D01*
X135417316Y-31194446D02*
X135417316Y-38972620D01*
X107486599Y-32962213D02*
X120224406Y-20224406D01*
X120224406Y-20224406D02*
X120104406Y-20224406D01*
X120104406Y-20224406D02*
X117380000Y-17500000D01*
%TO.N,/GND*%
X122500000Y-25000000D02*
X122500000Y-22500000D01*
X122335841Y-25164159D02*
X122500000Y-25000000D01*
X122335841Y-29426679D02*
X122335841Y-25164159D01*
%TO.N,/VIN 5V*%
X137500000Y-27500000D02*
X137500000Y-117500000D01*
X127500000Y-17500000D02*
X137500000Y-27500000D01*
X125000000Y-17500000D02*
X127500000Y-17500000D01*
X127500000Y-17500000D02*
X132500000Y-17500000D01*
%TO.N,/GND*%
X74252580Y-56296736D02*
X63999532Y-66549785D01*
X77081007Y-53468309D02*
X74252580Y-56296736D01*
X79202327Y-57710950D02*
X88041162Y-66549785D01*
X74252580Y-56296736D02*
X75666793Y-57710950D01*
X75666793Y-57710950D02*
X79202327Y-57710950D01*
%TO.N,/VIN 5V*%
X92418153Y-62172794D02*
X89837213Y-64753733D01*
X107486599Y-32962213D02*
X107486599Y-47104348D01*
X107486599Y-47104348D02*
X97806307Y-56784640D01*
%TO.N,/SCL*%
X126932035Y-130189395D02*
X133007569Y-130189395D01*
X133007569Y-130189395D02*
X134356656Y-131538483D01*
X80970094Y-101905124D02*
X82737861Y-103672891D01*
X79202327Y-100137357D02*
X80970094Y-101905124D01*
%TO.N,/SDA*%
X80970094Y-98369590D02*
X84505628Y-101905124D01*
%TO.N,/GND*%
X93698016Y-91298522D02*
X93698016Y-92712736D01*
X73545473Y-105794211D02*
X72838366Y-105087104D01*
X93698016Y-92712736D02*
X95112230Y-94126949D01*
X95112230Y-94126949D02*
X95112230Y-94834056D01*
X80970094Y-108551927D02*
X78212378Y-105794211D01*
X95112230Y-94834056D02*
X81394358Y-108551927D01*
X81394358Y-108551927D02*
X80970094Y-108551927D01*
X78212378Y-105794211D02*
X73545473Y-105794211D01*
%TO.N,/SDA*%
X63292425Y-80691920D02*
X80970094Y-98369590D01*
X59756891Y-80691920D02*
X63292425Y-80691920D01*
%TO.N,/SCL*%
X65003623Y-85938653D02*
X79202327Y-100137357D01*
X57932555Y-85938653D02*
X65003623Y-85938653D01*
%TO.N,/SDA*%
X59587185Y-80691920D02*
X59756891Y-80691920D01*
X56136504Y-84142601D02*
X59587185Y-80691920D01*
%TO.N,/SD5*%
X109226081Y-68699389D02*
X109226081Y-70325735D01*
X107736670Y-71815146D02*
X106783979Y-71815146D01*
X109226081Y-70325735D02*
X107736670Y-71815146D01*
X106783979Y-71815146D02*
X106110324Y-71141491D01*
X106110324Y-71141491D02*
X79913921Y-71141491D01*
X79913921Y-71141491D02*
X70646335Y-80409078D01*
%TO.N,/SC5*%
X68850284Y-78613026D02*
X76967870Y-70495441D01*
X76967870Y-70495441D02*
X107430030Y-70495441D01*
%TO.N,/SD4*%
X50918056Y-68317552D02*
X54453590Y-71853086D01*
X49150289Y-66549785D02*
X50918056Y-68317552D01*
%TO.N,/SC4*%
X49150289Y-63014251D02*
X56221357Y-70085319D01*
%TO.N,/VIN 5V*%
X60951901Y-37339204D02*
X38678038Y-59613067D01*
X38678038Y-59613067D02*
X21573125Y-76717980D01*
X52685823Y-73620853D02*
X38678038Y-59613067D01*
X55938514Y-77156386D02*
X56221357Y-77156386D01*
X52544402Y-80550499D02*
X55938514Y-77156386D01*
%TO.N,/GND*%
X49150289Y-81399027D02*
X52332270Y-84581008D01*
X52332270Y-84581008D02*
X54453590Y-86702328D01*
X54340453Y-82346550D02*
X52332270Y-84354733D01*
X52332270Y-84354733D02*
X52332270Y-84581008D01*
%TO.N,/SD2*%
X91251427Y-86674044D02*
X85933984Y-86674044D01*
X85933984Y-86674044D02*
X81422643Y-91185385D01*
%TO.N,/SC6*%
X70363493Y-63014251D02*
X65258182Y-68119562D01*
X65258182Y-68119562D02*
X65258182Y-75020924D01*
%TO.N,/GND*%
X46965329Y-113862299D02*
X45614755Y-115212873D01*
X45614755Y-115212873D02*
X45614755Y-119582793D01*
X45614755Y-119582793D02*
X32179726Y-133017822D01*
X32179726Y-133017822D02*
X31472620Y-133017822D01*
X46965329Y-113862299D02*
X44073262Y-116754366D01*
X63645978Y-97181650D02*
X46965329Y-113862299D01*
%TO.N,/VIN 5V*%
X21573125Y-81399027D02*
X21573125Y-111530152D01*
X21573125Y-111530152D02*
X20866018Y-112237259D01*
%TO.N,/GND*%
X63645978Y-95894716D02*
X72838366Y-105087104D01*
X60463998Y-92712736D02*
X63645978Y-95894716D01*
X63645978Y-95894716D02*
X63645978Y-97181650D01*
X44073262Y-116754366D02*
X42786328Y-116754366D01*
X54453590Y-86702328D02*
X60463998Y-92712736D01*
X53421214Y-99755519D02*
X60463998Y-92712736D01*
%TO.N,/VIN 5V*%
X21573125Y-76717980D02*
X21573125Y-81399027D01*
X21573125Y-81399027D02*
X44334892Y-104160794D01*
X65328892Y-32962213D02*
X60951901Y-37339204D01*
X107486599Y-32962213D02*
X65328892Y-32962213D01*
%TO.N,/GND*%
X115830459Y-68176130D02*
X103102537Y-80904052D01*
X103102537Y-80904052D02*
X97799236Y-86207353D01*
X102155013Y-79956529D02*
X103102537Y-80904052D01*
%TO.N,/VIN 5V*%
X114557666Y-81752580D02*
X114557666Y-92359182D01*
X114557666Y-92359182D02*
X114557666Y-104119492D01*
X112436346Y-90237862D02*
X114557666Y-92359182D01*
X135417316Y-38972620D02*
X135417316Y-60892930D01*
X135417316Y-60892930D02*
X114557666Y-81752580D01*
X114557666Y-104119492D02*
X134356656Y-123918482D01*
X107048192Y-84849708D02*
X103951065Y-81752580D01*
%TO.N,/GND*%
X125164268Y-41447494D02*
X134003103Y-50286329D01*
X121628734Y-32962213D02*
X121628734Y-30133785D01*
X121628734Y-37911960D02*
X125164268Y-41447494D01*
X125164268Y-41447494D02*
X125871375Y-40740387D01*
X125871375Y-40740387D02*
X125871375Y-37204853D01*
X125871375Y-37204853D02*
X121628734Y-32962213D01*
X121628734Y-30133785D02*
X122335841Y-29426679D01*
X81677201Y-48872115D02*
X77081007Y-53468309D01*
X71618607Y-48005909D02*
X77081007Y-53468309D01*
%TO.N,/VIN 5V*%
X133161646Y-36716950D02*
X135417316Y-38972620D01*
%TO.N,/GND*%
X134003103Y-50286329D02*
X116113301Y-68176130D01*
X116113301Y-68176130D02*
X115830459Y-68176130D01*
X97799236Y-86207353D02*
X93203042Y-90803547D01*
X93203042Y-90803547D02*
X93698016Y-91298522D01*
X94843529Y-83081941D02*
X97799236Y-86037648D01*
X97799236Y-86037648D02*
X97799236Y-86207353D01*
X112818184Y-65107287D02*
X115830459Y-68119562D01*
X115830459Y-68119562D02*
X115830459Y-68176130D01*
X70561482Y-107335704D02*
X72810082Y-105087104D01*
X72810082Y-105087104D02*
X72838366Y-105087104D01*
X52261559Y-89035780D02*
X54453590Y-86843749D01*
X54453590Y-86843749D02*
X54453590Y-86702328D01*
X62938871Y-67610445D02*
X49150289Y-81399027D01*
X63999532Y-66549785D02*
X62938871Y-67610445D01*
X62210551Y-64760805D02*
X63999532Y-66549785D01*
X81677201Y-48815547D02*
X81677201Y-48872115D01*
X79916505Y-47054851D02*
X81677201Y-48815547D01*
%TD*%
M02*
