M48
; DRILL file {KiCad 8.0.1} date 2024-04-24T16:38:50-0400
; FORMAT={-:-/ absolute / inch / decimal}
; #@! TF.CreationDate,2024-04-24T16:38:50-04:00
; #@! TF.GenerationSoftware,Kicad,Pcbnew,8.0.1
; #@! TF.FileFunction,Plated,1,2,PTH
FMAT,2
INCH
; #@! TA.AperFunction,Plated,PTH,ViaDrill
T1C0.0118
; #@! TA.AperFunction,Plated,PTH,ComponentDrill
T2C0.0315
; #@! TA.AperFunction,Plated,PTH,ComponentDrill
T3C0.0354
; #@! TA.AperFunction,Plated,PTH,ComponentDrill
T4C0.0394
; #@! TA.AperFunction,Plated,PTH,ComponentDrill
T5C0.1575
%
G90
G05
T1
X1.0827Y-4.626
X1.378Y-4.8228
X1.9351Y-2.4809
X1.9351Y-2.6201
X1.9685Y-4.7244
X2.0742Y-2.8985
X2.1438Y-2.8289
X2.2134Y-2.7593
X2.2134Y-3.0377
X2.7702Y-2.4809
X3.2574Y-4.0816
X3.327Y-4.012
X3.6889Y-3.5944
X4.8228Y-0.8858
X4.9973Y-5.1256
T2
X0.8215Y-4.4188
X0.8215Y-4.7188
X1.7455Y-4.1008
X1.9576Y-4.313
X2.3997Y-1.47
X2.6118Y-1.6822
X3.6385Y-2.4477
X3.8506Y-2.2356
X4.2145Y-3.3405
X4.4266Y-3.5527
X4.6213Y-0.689
X4.9213Y-0.689
X5.0305Y-1.2334
X5.2426Y-1.4455
T3
X0.9735Y-4.9713
X1.0442Y-5.0421
X2.0325Y-3.9981
X2.1032Y-3.9274
X2.7489Y-1.8193
X2.8196Y-1.89
X3.4662Y-2.6201
X3.5369Y-2.5494
X4.0219Y-3.1479
X4.0926Y-3.2186
X4.8164Y-1.1585
X4.8871Y-1.0878
T4
X0.7721Y-5.1028
X0.8428Y-5.1735
X0.9135Y-5.2442
X0.9843Y-5.315
X1.4017Y-4.3138
X1.4724Y-4.3845
X1.5431Y-4.4552
X1.6138Y-4.5259
X1.6845Y-4.5966
X1.7747Y-3.2225
X1.8454Y-3.2932
X1.9161Y-3.3639
X1.9868Y-3.4346
X2.0575Y-3.5053
X2.0687Y-3.1713
X2.1394Y-3.242
X2.2101Y-3.3127
X2.2808Y-3.3834
X2.3515Y-3.4541
X2.4222Y-3.5248
X2.4278Y-2.8122
X2.4492Y-2.5496
X2.4929Y-3.5955
X2.4952Y-3.943
X2.4985Y-2.8829
X2.5199Y-2.4789
X2.5637Y-3.6663
X2.5659Y-4.0137
X2.5692Y-2.9536
X2.5907Y-2.4082
X2.6344Y-3.737
X2.6366Y-4.0844
X2.6399Y-3.0243
X2.6614Y-2.3375
X2.7051Y-3.8077
X2.7073Y-4.1551
X2.7106Y-3.095
X2.7321Y-2.2668
X2.7758Y-3.8784
X2.778Y-4.2258
X2.7814Y-3.1657
X2.8465Y-3.9491
X2.8521Y-3.2364
X2.9228Y-3.3071
X2.9935Y-3.3778
X3.0642Y-3.4486
X3.1349Y-3.5193
X3.1463Y-1.8526
X3.2056Y-3.59
X3.217Y-1.7818
X3.2877Y-1.7111
X3.3585Y-1.6404
X3.4292Y-1.5697
X3.4512Y-3.5538
X3.5219Y-3.4831
X3.5926Y-3.4124
X3.6633Y-3.3417
X3.734Y-3.2709
X4.1588Y-2.8461
X4.2295Y-2.7754
X4.3002Y-2.7047
X4.371Y-2.634
X4.4417Y-2.5633
X4.5057Y-1.2098
X4.5764Y-1.2805
X4.6471Y-1.3512
X4.7178Y-1.4219
X4.7885Y-1.4926
X5.2165Y-0.689
X5.2872Y-0.7597
X5.2896Y-4.8787
X5.2896Y-4.9787
X5.2896Y-5.0787
X5.2896Y-5.1787
X5.2896Y-5.2787
X5.2896Y-5.3787
T5
X1.2795Y-1.378
X2.9528Y-4.8228
M30
