%TF.GenerationSoftware,KiCad,Pcbnew,8.0.1*%
%TF.CreationDate,2024-04-24T16:38:57-04:00*%
%TF.ProjectId,RGBsensorBoard,52474273-656e-4736-9f72-426f6172642e,rev?*%
%TF.SameCoordinates,Original*%
%TF.FileFunction,Legend,Bot*%
%TF.FilePolarity,Positive*%
%FSLAX46Y46*%
G04 Gerber Fmt 4.6, Leading zero omitted, Abs format (unit mm)*
G04 Created by KiCad (PCBNEW 8.0.1) date 2024-04-24 16:38:57*
%MOMM*%
%LPD*%
G01*
G04 APERTURE LIST*
%ADD10C,0.150000*%
%ADD11C,0.120000*%
G04 APERTURE END LIST*
D10*
X24233670Y-140192224D02*
X24301014Y-140192224D01*
X24301014Y-140192224D02*
X24435701Y-140124880D01*
X24435701Y-140124880D02*
X24503044Y-140057537D01*
X24503044Y-140057537D02*
X24570388Y-139922850D01*
X24570388Y-139922850D02*
X24570388Y-139788163D01*
X24570388Y-139788163D02*
X24536716Y-139687148D01*
X24536716Y-139687148D02*
X24435701Y-139518789D01*
X24435701Y-139518789D02*
X24334686Y-139417774D01*
X24334686Y-139417774D02*
X24166327Y-139316758D01*
X24166327Y-139316758D02*
X24065312Y-139283087D01*
X24065312Y-139283087D02*
X23930625Y-139283087D01*
X23930625Y-139283087D02*
X23795938Y-139350430D01*
X23795938Y-139350430D02*
X23728594Y-139417774D01*
X23728594Y-139417774D02*
X23661251Y-139552461D01*
X23661251Y-139552461D02*
X23661251Y-139619804D01*
X23358205Y-139788163D02*
X22920472Y-140225896D01*
X22920472Y-140225896D02*
X23425548Y-140259567D01*
X23425548Y-140259567D02*
X23324533Y-140360583D01*
X23324533Y-140360583D02*
X23290861Y-140461598D01*
X23290861Y-140461598D02*
X23290861Y-140528941D01*
X23290861Y-140528941D02*
X23324533Y-140629957D01*
X23324533Y-140629957D02*
X23492892Y-140798315D01*
X23492892Y-140798315D02*
X23593907Y-140831987D01*
X23593907Y-140831987D02*
X23661251Y-140831987D01*
X23661251Y-140831987D02*
X23762266Y-140798315D01*
X23762266Y-140798315D02*
X23964296Y-140596285D01*
X23964296Y-140596285D02*
X23997968Y-140495270D01*
X23997968Y-140495270D02*
X23997968Y-140427926D01*
X135166179Y-121043301D02*
X135166179Y-121757586D01*
X135166179Y-121757586D02*
X135213798Y-121900443D01*
X135213798Y-121900443D02*
X135309036Y-121995682D01*
X135309036Y-121995682D02*
X135451893Y-122043301D01*
X135451893Y-122043301D02*
X135547131Y-122043301D01*
X134166179Y-122043301D02*
X134737607Y-122043301D01*
X134451893Y-122043301D02*
X134451893Y-121043301D01*
X134451893Y-121043301D02*
X134547131Y-121186158D01*
X134547131Y-121186158D02*
X134642369Y-121281396D01*
X134642369Y-121281396D02*
X134737607Y-121329015D01*
X133213798Y-122043301D02*
X133785226Y-122043301D01*
X133499512Y-122043301D02*
X133499512Y-121043301D01*
X133499512Y-121043301D02*
X133594750Y-121186158D01*
X133594750Y-121186158D02*
X133689988Y-121281396D01*
X133689988Y-121281396D02*
X133785226Y-121329015D01*
X117666666Y-20454819D02*
X117999999Y-19978628D01*
X118238094Y-20454819D02*
X118238094Y-19454819D01*
X118238094Y-19454819D02*
X117857142Y-19454819D01*
X117857142Y-19454819D02*
X117761904Y-19502438D01*
X117761904Y-19502438D02*
X117714285Y-19550057D01*
X117714285Y-19550057D02*
X117666666Y-19645295D01*
X117666666Y-19645295D02*
X117666666Y-19788152D01*
X117666666Y-19788152D02*
X117714285Y-19883390D01*
X117714285Y-19883390D02*
X117761904Y-19931009D01*
X117761904Y-19931009D02*
X117857142Y-19978628D01*
X117857142Y-19978628D02*
X118238094Y-19978628D01*
X116809523Y-19454819D02*
X116999999Y-19454819D01*
X116999999Y-19454819D02*
X117095237Y-19502438D01*
X117095237Y-19502438D02*
X117142856Y-19550057D01*
X117142856Y-19550057D02*
X117238094Y-19692914D01*
X117238094Y-19692914D02*
X117285713Y-19883390D01*
X117285713Y-19883390D02*
X117285713Y-20264342D01*
X117285713Y-20264342D02*
X117238094Y-20359580D01*
X117238094Y-20359580D02*
X117190475Y-20407200D01*
X117190475Y-20407200D02*
X117095237Y-20454819D01*
X117095237Y-20454819D02*
X116904761Y-20454819D01*
X116904761Y-20454819D02*
X116809523Y-20407200D01*
X116809523Y-20407200D02*
X116761904Y-20359580D01*
X116761904Y-20359580D02*
X116714285Y-20264342D01*
X116714285Y-20264342D02*
X116714285Y-20026247D01*
X116714285Y-20026247D02*
X116761904Y-19931009D01*
X116761904Y-19931009D02*
X116809523Y-19883390D01*
X116809523Y-19883390D02*
X116904761Y-19835771D01*
X116904761Y-19835771D02*
X117095237Y-19835771D01*
X117095237Y-19835771D02*
X117190475Y-19883390D01*
X117190475Y-19883390D02*
X117238094Y-19931009D01*
X117238094Y-19931009D02*
X117285713Y-20026247D01*
X130372112Y-15136411D02*
X130439456Y-15136411D01*
X130439456Y-15136411D02*
X130574143Y-15069067D01*
X130574143Y-15069067D02*
X130641486Y-15001724D01*
X130641486Y-15001724D02*
X130708830Y-14867037D01*
X130708830Y-14867037D02*
X130708830Y-14732350D01*
X130708830Y-14732350D02*
X130675158Y-14631335D01*
X130675158Y-14631335D02*
X130574143Y-14462976D01*
X130574143Y-14462976D02*
X130473128Y-14361961D01*
X130473128Y-14361961D02*
X130304769Y-14260945D01*
X130304769Y-14260945D02*
X130203754Y-14227274D01*
X130203754Y-14227274D02*
X130069067Y-14227274D01*
X130069067Y-14227274D02*
X129934380Y-14294617D01*
X129934380Y-14294617D02*
X129867036Y-14361961D01*
X129867036Y-14361961D02*
X129799693Y-14496648D01*
X129799693Y-14496648D02*
X129799693Y-14563991D01*
X129766021Y-15877189D02*
X130170082Y-15473128D01*
X129968051Y-15675159D02*
X129260945Y-14968052D01*
X129260945Y-14968052D02*
X129429303Y-15001724D01*
X129429303Y-15001724D02*
X129563990Y-15001724D01*
X129563990Y-15001724D02*
X129665006Y-14968052D01*
D11*
%TO.C,C3*%
X11536687Y-135806102D02*
X18805745Y-143075159D01*
X24908076Y-136972828D02*
X18805745Y-143075159D01*
X24823223Y-136887975D02*
X18720892Y-142990307D01*
X24739718Y-136804469D02*
X18637386Y-142906801D01*
X24656212Y-136720964D02*
X18553880Y-142823295D01*
X24572706Y-136637458D02*
X18470374Y-142739789D01*
X24489200Y-136553952D02*
X18386869Y-142656284D01*
X24405694Y-136470446D02*
X18303363Y-142572778D01*
X24322189Y-136386940D02*
X18219857Y-142489272D01*
X24238683Y-136303435D02*
X18136351Y-142405766D01*
X24155177Y-136219929D02*
X18052846Y-142322260D01*
X24071671Y-136136423D02*
X17969340Y-142238755D01*
X23988166Y-136052917D02*
X17885834Y-142155249D01*
X23904660Y-135969412D02*
X17802328Y-142071743D01*
X23821154Y-135885906D02*
X17718822Y-141988237D01*
X23737648Y-135802400D02*
X17635317Y-141904732D01*
X23654142Y-135718894D02*
X17551811Y-141821226D01*
X23570637Y-135635388D02*
X17468305Y-141737720D01*
X23487131Y-135551883D02*
X17384799Y-141654214D01*
X23403625Y-135468377D02*
X17301294Y-141570708D01*
X23320119Y-135384871D02*
X17217788Y-141487203D01*
X23236614Y-135301365D02*
X17134282Y-141403697D01*
X23153108Y-135217860D02*
X17050776Y-141320191D01*
X23069598Y-135134350D02*
X16967267Y-141236682D01*
X21273547Y-133338299D02*
X15171216Y-139440631D01*
X19477496Y-131542248D02*
X13375165Y-137644579D01*
X17639018Y-129703770D02*
X11536687Y-135806102D01*
X17639018Y-129703770D02*
X24908076Y-136972828D01*
X24469670Y-136039447D02*
X24222183Y-136286934D01*
X23960553Y-135530330D02*
X23713066Y-135777817D01*
X22716045Y-134200969D02*
X22426131Y-134490883D01*
X22206928Y-133691852D02*
X21917014Y-133981766D01*
X20919994Y-132404918D02*
X20630080Y-132694832D01*
X20410877Y-131895801D02*
X20120963Y-132185715D01*
X19123943Y-130608867D02*
X18834029Y-130898781D01*
X18614826Y-130099750D02*
X18324912Y-130389664D01*
X26725341Y-135155563D02*
X25940452Y-135940452D01*
X25784889Y-134215111D02*
X26725341Y-135155563D01*
%TO.C,J11*%
X134356656Y-122588482D02*
X135686656Y-122588482D01*
X135686656Y-122588482D02*
X135686656Y-123918482D01*
X135686656Y-137948482D02*
X135686656Y-125188482D01*
X133026656Y-125188482D02*
X135686656Y-125188482D01*
X133026656Y-137948482D02*
X135686656Y-137948482D01*
X133026656Y-137948482D02*
X133026656Y-125188482D01*
%TO.C,R6*%
X124460000Y-18870000D02*
X117920000Y-18870000D01*
X117920000Y-18870000D02*
X117920000Y-18540000D01*
X117920000Y-16130000D02*
X117920000Y-16460000D01*
X124460000Y-16130000D02*
X117920000Y-16130000D01*
X124460000Y-18540000D02*
X124460000Y-18870000D01*
X124460000Y-16460000D02*
X124460000Y-16130000D01*
%TO.C,C1*%
X131715111Y-18284889D02*
X130774659Y-17344437D01*
X130774659Y-17344437D02*
X131559548Y-16559548D01*
X135293072Y-18808148D02*
X135582986Y-18518234D01*
X134783955Y-18299031D02*
X135073869Y-18009117D01*
X133539447Y-16969670D02*
X133786934Y-16722183D01*
X133030330Y-16460553D02*
X133277817Y-16213066D01*
X136268879Y-19204127D02*
X132591924Y-15527172D01*
X136268879Y-19204127D02*
X142371211Y-13101796D01*
X134430402Y-17365650D02*
X140532733Y-11263318D01*
X134346892Y-17282140D02*
X140449224Y-11179809D01*
X134263386Y-17198635D02*
X140365718Y-11096303D01*
X134179881Y-17115129D02*
X140282212Y-11012797D01*
X134096375Y-17031623D02*
X140198706Y-10929292D01*
X134012869Y-16948117D02*
X140115201Y-10845786D01*
X133929363Y-16864612D02*
X140031695Y-10762280D01*
X133845858Y-16781106D02*
X139948189Y-10678774D01*
X133762352Y-16697600D02*
X139864683Y-10595268D01*
X133678846Y-16614094D02*
X139781178Y-10511763D01*
X133595340Y-16530588D02*
X139697672Y-10428257D01*
X133511834Y-16447083D02*
X139614166Y-10344751D01*
X133428329Y-16363577D02*
X139530660Y-10261245D01*
X133344823Y-16280071D02*
X139447154Y-10177740D01*
X133261317Y-16196565D02*
X139363649Y-10094234D01*
X133177811Y-16113060D02*
X139280143Y-10010728D01*
X133094306Y-16029554D02*
X139196637Y-9927222D01*
X133010800Y-15946048D02*
X139113131Y-9843716D01*
X132927294Y-15862542D02*
X139029626Y-9760211D01*
X132843788Y-15779036D02*
X138946120Y-9676705D01*
X132760282Y-15695531D02*
X138862614Y-9593199D01*
X132676777Y-15612025D02*
X138779108Y-9509693D01*
X132591924Y-15527172D02*
X138694255Y-9424841D01*
X142371211Y-13101796D02*
X138694255Y-9424841D01*
%TD*%
M02*
