%TF.GenerationSoftware,KiCad,Pcbnew,8.0.1*%
%TF.CreationDate,2024-04-24T16:38:48-04:00*%
%TF.ProjectId,RGBsensorBoard,52474273-656e-4736-9f72-426f6172642e,rev?*%
%TF.SameCoordinates,Original*%
%TF.FileFunction,Drillmap*%
%TF.FilePolarity,Positive*%
%FSLAX45Y45*%
G04 Gerber Fmt 4.5, Leading zero omitted, Abs format (unit mm)*
G04 Created by KiCad (PCBNEW 8.0.1) date 2024-04-24 16:38:48*
%MOMM*%
%LPD*%
G01*
G04 APERTURE LIST*
%ADD10C,0.050000*%
%ADD11C,0.200000*%
G04 APERTURE END LIST*
D10*
X13935568Y-1281242D02*
X13935567Y-13881242D01*
X1335568Y-13881242D01*
X1335568Y-1281242D01*
X13935568Y-1281242D01*
D11*
X1593844Y-14195226D02*
X1593844Y-13995226D01*
X1593844Y-13995226D02*
X1641463Y-13995226D01*
X1641463Y-13995226D02*
X1670035Y-14004750D01*
X1670035Y-14004750D02*
X1689082Y-14023798D01*
X1689082Y-14023798D02*
X1698606Y-14042845D01*
X1698606Y-14042845D02*
X1708130Y-14080940D01*
X1708130Y-14080940D02*
X1708130Y-14109512D01*
X1708130Y-14109512D02*
X1698606Y-14147607D01*
X1698606Y-14147607D02*
X1689082Y-14166655D01*
X1689082Y-14166655D02*
X1670035Y-14185702D01*
X1670035Y-14185702D02*
X1641463Y-14195226D01*
X1641463Y-14195226D02*
X1593844Y-14195226D01*
X1793844Y-14195226D02*
X1793844Y-14061893D01*
X1793844Y-14099988D02*
X1803368Y-14080940D01*
X1803368Y-14080940D02*
X1812892Y-14071417D01*
X1812892Y-14071417D02*
X1831940Y-14061893D01*
X1831940Y-14061893D02*
X1850987Y-14061893D01*
X1917654Y-14195226D02*
X1917654Y-14061893D01*
X1917654Y-13995226D02*
X1908130Y-14004750D01*
X1908130Y-14004750D02*
X1917654Y-14014274D01*
X1917654Y-14014274D02*
X1927178Y-14004750D01*
X1927178Y-14004750D02*
X1917654Y-13995226D01*
X1917654Y-13995226D02*
X1917654Y-14014274D01*
X2041463Y-14195226D02*
X2022416Y-14185702D01*
X2022416Y-14185702D02*
X2012892Y-14166655D01*
X2012892Y-14166655D02*
X2012892Y-13995226D01*
X2146225Y-14195226D02*
X2127178Y-14185702D01*
X2127178Y-14185702D02*
X2117654Y-14166655D01*
X2117654Y-14166655D02*
X2117654Y-13995226D01*
X2374797Y-14195226D02*
X2374797Y-13995226D01*
X2374797Y-13995226D02*
X2441464Y-14138083D01*
X2441464Y-14138083D02*
X2508130Y-13995226D01*
X2508130Y-13995226D02*
X2508130Y-14195226D01*
X2689083Y-14195226D02*
X2689083Y-14090464D01*
X2689083Y-14090464D02*
X2679559Y-14071417D01*
X2679559Y-14071417D02*
X2660511Y-14061893D01*
X2660511Y-14061893D02*
X2622416Y-14061893D01*
X2622416Y-14061893D02*
X2603368Y-14071417D01*
X2689083Y-14185702D02*
X2670035Y-14195226D01*
X2670035Y-14195226D02*
X2622416Y-14195226D01*
X2622416Y-14195226D02*
X2603368Y-14185702D01*
X2603368Y-14185702D02*
X2593844Y-14166655D01*
X2593844Y-14166655D02*
X2593844Y-14147607D01*
X2593844Y-14147607D02*
X2603368Y-14128559D01*
X2603368Y-14128559D02*
X2622416Y-14119036D01*
X2622416Y-14119036D02*
X2670035Y-14119036D01*
X2670035Y-14119036D02*
X2689083Y-14109512D01*
X2784321Y-14061893D02*
X2784321Y-14261893D01*
X2784321Y-14071417D02*
X2803368Y-14061893D01*
X2803368Y-14061893D02*
X2841463Y-14061893D01*
X2841463Y-14061893D02*
X2860511Y-14071417D01*
X2860511Y-14071417D02*
X2870035Y-14080940D01*
X2870035Y-14080940D02*
X2879559Y-14099988D01*
X2879559Y-14099988D02*
X2879559Y-14157131D01*
X2879559Y-14157131D02*
X2870035Y-14176178D01*
X2870035Y-14176178D02*
X2860511Y-14185702D01*
X2860511Y-14185702D02*
X2841463Y-14195226D01*
X2841463Y-14195226D02*
X2803368Y-14195226D01*
X2803368Y-14195226D02*
X2784321Y-14185702D01*
X2965273Y-14176178D02*
X2974797Y-14185702D01*
X2974797Y-14185702D02*
X2965273Y-14195226D01*
X2965273Y-14195226D02*
X2955749Y-14185702D01*
X2955749Y-14185702D02*
X2965273Y-14176178D01*
X2965273Y-14176178D02*
X2965273Y-14195226D01*
X2965273Y-14071417D02*
X2974797Y-14080940D01*
X2974797Y-14080940D02*
X2965273Y-14090464D01*
X2965273Y-14090464D02*
X2955749Y-14080940D01*
X2955749Y-14080940D02*
X2965273Y-14071417D01*
X2965273Y-14071417D02*
X2965273Y-14090464D01*
M02*
