%TF.GenerationSoftware,KiCad,Pcbnew,8.0.1*%
%TF.CreationDate,2024-04-24T16:38:57-04:00*%
%TF.ProjectId,RGBsensorBoard,52474273-656e-4736-9f72-426f6172642e,rev?*%
%TF.SameCoordinates,Original*%
%TF.FileFunction,Soldermask,Bot*%
%TF.FilePolarity,Negative*%
%FSLAX46Y46*%
G04 Gerber Fmt 4.6, Leading zero omitted, Abs format (unit mm)*
G04 Created by KiCad (PCBNEW 8.0.1) date 2024-04-24 16:38:57*
%MOMM*%
%LPD*%
G01*
G04 APERTURE LIST*
G04 Aperture macros list*
%AMHorizOval*
0 Thick line with rounded ends*
0 $1 width*
0 $2 $3 position (X,Y) of the first rounded end (center of the circle)*
0 $4 $5 position (X,Y) of the second rounded end (center of the circle)*
0 Add line between two ends*
20,1,$1,$2,$3,$4,$5,0*
0 Add two circle primitives to create the rounded ends*
1,1,$1,$2,$3*
1,1,$1,$4,$5*%
%AMRotRect*
0 Rectangle, with rotation*
0 The origin of the aperture is its center*
0 $1 length*
0 $2 width*
0 $3 Rotation angle, in degrees counterclockwise*
0 Add horizontal line*
21,1,$1,$2,0,0,$3*%
G04 Aperture macros list end*
%ADD10RotRect,1.700000X1.700000X45.000000*%
%ADD11HorizOval,1.700000X0.000000X0.000000X0.000000X0.000000X0*%
%ADD12R,1.700000X1.700000*%
%ADD13O,1.700000X1.700000*%
%ADD14C,1.600000*%
%ADD15O,1.600000X1.600000*%
%ADD16HorizOval,1.700000X0.000000X0.000000X0.000000X0.000000X0*%
%ADD17RotRect,1.700000X1.700000X225.000000*%
%ADD18C,4.400000*%
%ADD19HorizOval,1.600000X0.000000X0.000000X0.000000X0.000000X0*%
%ADD20HorizOval,1.600000X0.000000X0.000000X0.000000X0.000000X0*%
%ADD21HorizOval,1.700000X0.000000X0.000000X0.000000X0.000000X0*%
%ADD22RotRect,1.700000X1.700000X315.000000*%
%ADD23RotRect,1.700000X1.700000X135.000000*%
%ADD24HorizOval,1.700000X0.000000X0.000000X0.000000X0.000000X0*%
%ADD25RotRect,1.800000X1.800000X45.000000*%
%ADD26C,1.800000*%
%ADD27RotRect,1.800000X1.800000X135.000000*%
%ADD28RotRect,1.800000X1.800000X315.000000*%
%ADD29RotRect,1.800000X1.800000X225.000000*%
G04 APERTURE END LIST*
D10*
%TO.C,C3*%
X25000000Y-135000000D03*
D11*
X23203949Y-133203949D03*
X21407898Y-131407898D03*
X19611846Y-129611846D03*
%TD*%
D12*
%TO.C,J11*%
X134356656Y-123918482D03*
D13*
X134356656Y-126458482D03*
X134356656Y-128998482D03*
X134356656Y-131538482D03*
X134356656Y-134078482D03*
X134356656Y-136618482D03*
%TD*%
D14*
%TO.C,R6*%
X117380000Y-17500000D03*
D15*
X125000000Y-17500000D03*
%TD*%
D16*
%TO.C,C1*%
X134296051Y-19296051D03*
D17*
X132500000Y-17500000D03*
%TD*%
D18*
%TO.C,hole2*%
X32500000Y-35000000D03*
%TD*%
%TO.C,hole*%
X75000000Y-122500000D03*
%TD*%
D14*
%TO.C,R6*%
X92418153Y-62172794D03*
D19*
X97806307Y-56784640D03*
%TD*%
D14*
%TO.C,R5*%
X20866018Y-119857260D03*
D15*
X20866018Y-112237260D03*
%TD*%
D14*
%TO.C,R4*%
X60951901Y-37339204D03*
D20*
X66340055Y-42727358D03*
%TD*%
D14*
%TO.C,R3*%
X107048192Y-84849708D03*
D20*
X112436346Y-90237862D03*
%TD*%
D14*
%TO.C,R2*%
X127773492Y-31328796D03*
D20*
X133161646Y-36716950D03*
%TD*%
D14*
%TO.C,R1*%
X44334892Y-104160794D03*
D20*
X49723046Y-109548948D03*
%TD*%
D11*
%TO.C,J10*%
X72300965Y-100307062D03*
X70504914Y-98511011D03*
X68708863Y-96714960D03*
X66912812Y-94918909D03*
X65116761Y-93122858D03*
X63320709Y-91326806D03*
X61524658Y-89530755D03*
X59728607Y-87734704D03*
X57932556Y-85938653D03*
X56136504Y-84142601D03*
X54340453Y-82346550D03*
D10*
X52544402Y-80550499D03*
%TD*%
%TO.C,J9*%
X61666079Y-71428821D03*
D11*
X63462130Y-73224872D03*
X65258181Y-75020923D03*
X67054233Y-76816975D03*
X68850284Y-78613026D03*
X70646335Y-80409077D03*
X72442386Y-82205128D03*
X74238438Y-84001180D03*
X76034489Y-85797231D03*
X77830540Y-87593282D03*
X79626591Y-89389333D03*
X81422642Y-91185384D03*
%TD*%
D16*
%TO.C,J8*%
X35602123Y-109570161D03*
X37398174Y-111366212D03*
X39194226Y-113162264D03*
X40990277Y-114958315D03*
D10*
X42786328Y-116754366D03*
%TD*%
D16*
%TO.C,J7*%
X114444529Y-30727755D03*
X116240580Y-32523806D03*
X118036632Y-34319858D03*
X119832683Y-36115909D03*
D17*
X121628734Y-37911960D03*
%TD*%
%TO.C,J6*%
X70561482Y-107335704D03*
D16*
X68765431Y-105539653D03*
X66969380Y-103743602D03*
X65173328Y-101947550D03*
X63377277Y-100151499D03*
%TD*%
D17*
%TO.C,J5*%
X52261559Y-89035780D03*
D16*
X50465508Y-87239729D03*
X48669457Y-85443678D03*
X46873405Y-83647626D03*
X45077354Y-81851575D03*
%TD*%
D21*
%TO.C,J4*%
X87659324Y-90266146D03*
X89455375Y-88470095D03*
X91251427Y-86674043D03*
X93047478Y-84877992D03*
D22*
X94843529Y-83081941D03*
%TD*%
D23*
%TO.C,J3*%
X62210551Y-64760805D03*
D24*
X64006602Y-62964754D03*
X65802653Y-61168703D03*
X67598705Y-59372651D03*
X69394756Y-57576600D03*
%TD*%
%TO.C,J2*%
X87100710Y-39870646D03*
X85304659Y-41666697D03*
X83508607Y-43462749D03*
X81712556Y-45258800D03*
D23*
X79916505Y-47054851D03*
%TD*%
D22*
%TO.C,J1*%
X112818184Y-65107287D03*
D21*
X111022133Y-66903338D03*
X109226082Y-68699389D03*
X107430030Y-70495441D03*
X105633979Y-72291492D03*
%TD*%
D25*
%TO.C,D6*%
X88041162Y-66549785D03*
D26*
X89837213Y-64753734D03*
%TD*%
D27*
%TO.C,D5*%
X26522872Y-128068075D03*
D26*
X24726821Y-126272024D03*
%TD*%
D25*
%TO.C,D4*%
X122335841Y-29426679D03*
D26*
X124131892Y-27630628D03*
%TD*%
D28*
%TO.C,D3*%
X102155013Y-79956529D03*
D26*
X103951064Y-81752580D03*
%TD*%
D27*
%TO.C,D2*%
X71618607Y-48005909D03*
D26*
X69822556Y-46209858D03*
%TD*%
D29*
%TO.C,D1*%
X53421214Y-99755519D03*
D26*
X51625163Y-101551570D03*
%TD*%
M02*
