%TF.GenerationSoftware,KiCad,Pcbnew,8.0.1*%
%TF.CreationDate,2024-04-24T16:38:56-04:00*%
%TF.ProjectId,RGBsensorBoard,52474273-656e-4736-9f72-426f6172642e,rev?*%
%TF.SameCoordinates,Original*%
%TF.FileFunction,Copper,L1,Top*%
%TF.FilePolarity,Positive*%
%FSLAX46Y46*%
G04 Gerber Fmt 4.6, Leading zero omitted, Abs format (unit mm)*
G04 Created by KiCad (PCBNEW 8.0.1) date 2024-04-24 16:38:56*
%MOMM*%
%LPD*%
G01*
G04 APERTURE LIST*
G04 Aperture macros list*
%AMHorizOval*
0 Thick line with rounded ends*
0 $1 width*
0 $2 $3 position (X,Y) of the first rounded end (center of the circle)*
0 $4 $5 position (X,Y) of the second rounded end (center of the circle)*
0 Add line between two ends*
20,1,$1,$2,$3,$4,$5,0*
0 Add two circle primitives to create the rounded ends*
1,1,$1,$2,$3*
1,1,$1,$4,$5*%
%AMRotRect*
0 Rectangle, with rotation*
0 The origin of the aperture is its center*
0 $1 length*
0 $2 width*
0 $3 Rotation angle, in degrees counterclockwise*
0 Add horizontal line*
21,1,$1,$2,0,0,$3*%
G04 Aperture macros list end*
%TA.AperFunction,ComponentPad*%
%ADD10RotRect,1.700000X1.700000X45.000000*%
%TD*%
%TA.AperFunction,ComponentPad*%
%ADD11HorizOval,1.700000X0.000000X0.000000X0.000000X0.000000X0*%
%TD*%
%TA.AperFunction,ComponentPad*%
%ADD12R,1.700000X1.700000*%
%TD*%
%TA.AperFunction,ComponentPad*%
%ADD13O,1.700000X1.700000*%
%TD*%
%TA.AperFunction,ComponentPad*%
%ADD14C,1.600000*%
%TD*%
%TA.AperFunction,ComponentPad*%
%ADD15O,1.600000X1.600000*%
%TD*%
%TA.AperFunction,ComponentPad*%
%ADD16HorizOval,1.700000X0.000000X0.000000X0.000000X0.000000X0*%
%TD*%
%TA.AperFunction,ComponentPad*%
%ADD17RotRect,1.700000X1.700000X225.000000*%
%TD*%
%TA.AperFunction,ComponentPad*%
%ADD18C,4.400000*%
%TD*%
%TA.AperFunction,ConnectorPad*%
%ADD19C,8.000000*%
%TD*%
%TA.AperFunction,ComponentPad*%
%ADD20HorizOval,1.600000X0.000000X0.000000X0.000000X0.000000X0*%
%TD*%
%TA.AperFunction,ComponentPad*%
%ADD21HorizOval,1.600000X0.000000X0.000000X0.000000X0.000000X0*%
%TD*%
%TA.AperFunction,ComponentPad*%
%ADD22HorizOval,1.700000X0.000000X0.000000X0.000000X0.000000X0*%
%TD*%
%TA.AperFunction,ComponentPad*%
%ADD23RotRect,1.700000X1.700000X315.000000*%
%TD*%
%TA.AperFunction,ComponentPad*%
%ADD24RotRect,1.700000X1.700000X135.000000*%
%TD*%
%TA.AperFunction,ComponentPad*%
%ADD25HorizOval,1.700000X0.000000X0.000000X0.000000X0.000000X0*%
%TD*%
%TA.AperFunction,ComponentPad*%
%ADD26RotRect,1.800000X1.800000X45.000000*%
%TD*%
%TA.AperFunction,ComponentPad*%
%ADD27C,1.800000*%
%TD*%
%TA.AperFunction,ComponentPad*%
%ADD28RotRect,1.800000X1.800000X135.000000*%
%TD*%
%TA.AperFunction,ComponentPad*%
%ADD29RotRect,1.800000X1.800000X315.000000*%
%TD*%
%TA.AperFunction,ComponentPad*%
%ADD30RotRect,1.800000X1.800000X225.000000*%
%TD*%
%TA.AperFunction,ViaPad*%
%ADD31C,0.600000*%
%TD*%
%TA.AperFunction,Conductor*%
%ADD32C,0.200000*%
%TD*%
G04 APERTURE END LIST*
D10*
%TO.P,C3,1,Pin_1*%
%TO.N,/GND*%
X25000000Y-135000000D03*
D11*
%TO.P,C3,2,Pin_2*%
%TO.N,/VIN 5V*%
X23203949Y-133203949D03*
%TO.P,C3,3,Pin_3*%
%TO.N,/SCL*%
X21407898Y-131407898D03*
%TO.P,C3,4,Pin_4*%
%TO.N,/SDA*%
X19611846Y-129611846D03*
%TD*%
D12*
%TO.P,J11,1,Pin_1*%
%TO.N,/VIN 5V*%
X134356656Y-123918482D03*
D13*
%TO.P,J11,2,Pin_2*%
%TO.N,3.3*%
X134356656Y-126458482D03*
%TO.P,J11,3,Pin_3*%
%TO.N,/SDA*%
X134356656Y-128998482D03*
%TO.P,J11,4,Pin_4*%
%TO.N,/SCL*%
X134356656Y-131538482D03*
%TO.P,J11,5,Pin_5*%
%TO.N,/GND*%
X134356656Y-134078482D03*
%TO.P,J11,6*%
%TO.N,/VIN 5V*%
X134356656Y-136618482D03*
%TD*%
D14*
%TO.P,R6,1*%
%TO.N,/VIN 5V*%
X117380000Y-17500000D03*
D15*
%TO.P,R6,2*%
X125000000Y-17500000D03*
%TD*%
D16*
%TO.P,C1,2,Pin_2*%
%TO.N,/GND*%
X134296051Y-19296051D03*
D17*
%TO.P,C1,1,Pin_1*%
%TO.N,/VIN 5V*%
X132500000Y-17500000D03*
%TD*%
D18*
%TO.P,hole2,1*%
%TO.N,N/C*%
X32500000Y-35000000D03*
D19*
X32500000Y-35000000D03*
%TD*%
D18*
%TO.P,hole,1*%
%TO.N,N/C*%
X75000000Y-122500000D03*
D19*
X75000000Y-122500000D03*
%TD*%
D14*
%TO.P,R6,1*%
%TO.N,/VIN 5V*%
X92418153Y-62172794D03*
D20*
%TO.P,R6,2*%
X97806307Y-56784640D03*
%TD*%
D14*
%TO.P,R5,1*%
%TO.N,/VIN 5V*%
X20866018Y-119857260D03*
D15*
%TO.P,R5,2*%
X20866018Y-112237260D03*
%TD*%
D14*
%TO.P,R4,1*%
%TO.N,/VIN 5V*%
X60951901Y-37339204D03*
D21*
%TO.P,R4,2*%
X66340055Y-42727358D03*
%TD*%
D14*
%TO.P,R3,1*%
%TO.N,/VIN 5V*%
X107048192Y-84849708D03*
D21*
%TO.P,R3,2*%
X112436346Y-90237862D03*
%TD*%
D14*
%TO.P,R2,1*%
%TO.N,/VIN 5V*%
X127773492Y-31328796D03*
D21*
%TO.P,R2,2*%
X133161646Y-36716950D03*
%TD*%
D14*
%TO.P,R1,1*%
%TO.N,/VIN 5V*%
X44334892Y-104160794D03*
D21*
%TO.P,R1,2*%
X49723046Y-109548948D03*
%TD*%
D11*
%TO.P,J10,12,Pin_12*%
%TO.N,SC1*%
X72300965Y-100307062D03*
%TO.P,J10,11,Pin_11*%
%TO.N,/SD1*%
X70504914Y-98511011D03*
%TO.P,J10,10,Pin_10*%
%TO.N,/SC0*%
X68708863Y-96714960D03*
%TO.P,J10,9,Pin_9*%
%TO.N,/SD0*%
X66912812Y-94918909D03*
%TO.P,J10,8,Pin_8*%
%TO.N,/A2*%
X65116761Y-93122858D03*
%TO.P,J10,7,Pin_7*%
%TO.N,/A1*%
X63320709Y-91326806D03*
%TO.P,J10,6,Pin_6*%
%TO.N,/A0*%
X61524658Y-89530755D03*
%TO.P,J10,5,Pin_5*%
%TO.N,/RST*%
X59728607Y-87734704D03*
%TO.P,J10,4,Pin_4*%
%TO.N,/SCL*%
X57932556Y-85938653D03*
%TO.P,J10,3,Pin_3*%
%TO.N,/SDA*%
X56136504Y-84142601D03*
%TO.P,J10,2,Pin_2*%
%TO.N,/GND*%
X54340453Y-82346550D03*
D10*
%TO.P,J10,1,Pin_1*%
%TO.N,/VIN 5V*%
X52544402Y-80550499D03*
%TD*%
%TO.P,J9,1,Pin_1*%
%TO.N,/SC7*%
X61666079Y-71428821D03*
D11*
%TO.P,J9,2,Pin_2*%
%TO.N,/SD7*%
X63462130Y-73224872D03*
%TO.P,J9,3,Pin_3*%
%TO.N,/SC6*%
X65258181Y-75020923D03*
%TO.P,J9,4,Pin_4*%
%TO.N,/SD6*%
X67054233Y-76816975D03*
%TO.P,J9,5,Pin_5*%
%TO.N,/SC5*%
X68850284Y-78613026D03*
%TO.P,J9,6,Pin_6*%
%TO.N,/SD5*%
X70646335Y-80409077D03*
%TO.P,J9,7,Pin_7*%
%TO.N,/SC4*%
X72442386Y-82205128D03*
%TO.P,J9,8,Pin_8*%
%TO.N,/SD4*%
X74238438Y-84001180D03*
%TO.P,J9,9,Pin_9*%
%TO.N,/SC3*%
X76034489Y-85797231D03*
%TO.P,J9,10,Pin_10*%
%TO.N,/SD3*%
X77830540Y-87593282D03*
%TO.P,J9,11,Pin_11*%
%TO.N,/SC2*%
X79626591Y-89389333D03*
%TO.P,J9,12,Pin_12*%
%TO.N,/SD2*%
X81422642Y-91185384D03*
%TD*%
D16*
%TO.P,J8,5,Pin_5*%
%TO.N,unconnected-(J8-Pin_5-Pad5)*%
X35602123Y-109570161D03*
%TO.P,J8,4,Pin_4*%
%TO.N,/SC4*%
X37398174Y-111366212D03*
%TO.P,J8,3,Pin_3*%
%TO.N,/SD4*%
X39194226Y-113162264D03*
%TO.P,J8,2,Pin_2*%
%TO.N,3.3*%
X40990277Y-114958315D03*
D10*
%TO.P,J8,1,Pin_1*%
%TO.N,/GND*%
X42786328Y-116754366D03*
%TD*%
D16*
%TO.P,J7,5,Pin_5*%
%TO.N,unconnected-(J7-Pin_5-Pad5)*%
X114444529Y-30727755D03*
%TO.P,J7,4,Pin_4*%
%TO.N,/SC3*%
X116240580Y-32523806D03*
%TO.P,J7,3,Pin_3*%
%TO.N,/SD3*%
X118036632Y-34319858D03*
%TO.P,J7,2,Pin_2*%
%TO.N,3.3*%
X119832683Y-36115909D03*
D17*
%TO.P,J7,1,Pin_1*%
%TO.N,/GND*%
X121628734Y-37911960D03*
%TD*%
%TO.P,J6,1,Pin_1*%
%TO.N,/GND*%
X70561482Y-107335704D03*
D16*
%TO.P,J6,2,Pin_2*%
%TO.N,3.3*%
X68765431Y-105539653D03*
%TO.P,J6,3,Pin_3*%
%TO.N,/SD1*%
X66969380Y-103743602D03*
%TO.P,J6,4,Pin_4*%
%TO.N,SC1*%
X65173328Y-101947550D03*
%TO.P,J6,5,Pin_5*%
%TO.N,unconnected-(J6-Pin_5-Pad5)*%
X63377277Y-100151499D03*
%TD*%
D17*
%TO.P,J5,1,Pin_1*%
%TO.N,/GND*%
X52261559Y-89035780D03*
D16*
%TO.P,J5,2,Pin_2*%
%TO.N,3.3*%
X50465508Y-87239729D03*
%TO.P,J5,3,Pin_3*%
%TO.N,/SD0*%
X48669457Y-85443678D03*
%TO.P,J5,4,Pin_4*%
%TO.N,/SC0*%
X46873405Y-83647626D03*
%TO.P,J5,5,Pin_5*%
%TO.N,unconnected-(J5-Pin_5-Pad5)*%
X45077354Y-81851575D03*
%TD*%
D22*
%TO.P,J4,5,Pin_5*%
%TO.N,unconnected-(J4-Pin_5-Pad5)*%
X87659324Y-90266146D03*
%TO.P,J4,4,Pin_4*%
%TO.N,/SC2*%
X89455375Y-88470095D03*
%TO.P,J4,3,Pin_3*%
%TO.N,/SD2*%
X91251427Y-86674043D03*
%TO.P,J4,2,Pin_2*%
%TO.N,3.3*%
X93047478Y-84877992D03*
D23*
%TO.P,J4,1,Pin_1*%
%TO.N,/GND*%
X94843529Y-83081941D03*
%TD*%
D24*
%TO.P,J3,1,Pin_1*%
%TO.N,/GND*%
X62210551Y-64760805D03*
D25*
%TO.P,J3,2,Pin_2*%
%TO.N,3.3*%
X64006602Y-62964754D03*
%TO.P,J3,3,Pin_3*%
%TO.N,/SD6*%
X65802653Y-61168703D03*
%TO.P,J3,4,Pin_4*%
%TO.N,/SC6*%
X67598705Y-59372651D03*
%TO.P,J3,5,Pin_5*%
%TO.N,unconnected-(J3-Pin_5-Pad5)*%
X69394756Y-57576600D03*
%TD*%
%TO.P,J2,5,Pin_5*%
%TO.N,unconnected-(J2-Pin_5-Pad5)*%
X87100710Y-39870646D03*
%TO.P,J2,4,Pin_4*%
%TO.N,/SC7*%
X85304659Y-41666697D03*
%TO.P,J2,3,Pin_3*%
%TO.N,/SD7*%
X83508607Y-43462749D03*
%TO.P,J2,2,Pin_2*%
%TO.N,3.3*%
X81712556Y-45258800D03*
D24*
%TO.P,J2,1,Pin_1*%
%TO.N,/GND*%
X79916505Y-47054851D03*
%TD*%
D23*
%TO.P,J1,1,Pin_1*%
%TO.N,/GND*%
X112818184Y-65107287D03*
D22*
%TO.P,J1,2,Pin_2*%
%TO.N,3.3*%
X111022133Y-66903338D03*
%TO.P,J1,3,Pin_3*%
%TO.N,/SD5*%
X109226082Y-68699389D03*
%TO.P,J1,4,Pin_4*%
%TO.N,/SC5*%
X107430030Y-70495441D03*
%TO.P,J1,5,Pin_5*%
%TO.N,unconnected-(J1-Pin_5-Pad5)*%
X105633979Y-72291492D03*
%TD*%
D26*
%TO.P,D6,1,K*%
%TO.N,/GND*%
X88041162Y-66549785D03*
D27*
%TO.P,D6,2,A*%
%TO.N,/VIN 5V*%
X89837213Y-64753734D03*
%TD*%
D28*
%TO.P,D5,1,K*%
%TO.N,/GND*%
X26522872Y-128068075D03*
D27*
%TO.P,D5,2,A*%
%TO.N,/VIN 5V*%
X24726821Y-126272024D03*
%TD*%
D26*
%TO.P,D4,1,K*%
%TO.N,/GND*%
X122335841Y-29426679D03*
D27*
%TO.P,D4,2,A*%
%TO.N,/VIN 5V*%
X124131892Y-27630628D03*
%TD*%
D29*
%TO.P,D3,1,K*%
%TO.N,/GND*%
X102155013Y-79956529D03*
D27*
%TO.P,D3,2,A*%
%TO.N,/VIN 5V*%
X103951064Y-81752580D03*
%TD*%
D28*
%TO.P,D2,1,K*%
%TO.N,/GND*%
X71618607Y-48005909D03*
D27*
%TO.P,D2,2,A*%
%TO.N,/VIN 5V*%
X69822556Y-46209858D03*
%TD*%
D30*
%TO.P,D1,1,K*%
%TO.N,/GND*%
X53421214Y-99755519D03*
D27*
%TO.P,D1,2,A*%
%TO.N,/VIN 5V*%
X51625163Y-101551570D03*
%TD*%
D31*
%TO.N,/SDA*%
X50000000Y-120000000D03*
X27500000Y-117500000D03*
%TO.N,/SCL*%
X35000000Y-122500000D03*
%TO.N,/GND*%
X122500000Y-22500000D03*
%TO.N,/SCL*%
X126932035Y-130189395D03*
X82737861Y-103672891D03*
%TO.N,/SDA*%
X84505628Y-101905124D03*
%TO.N,/SD4*%
X54453590Y-71853086D03*
X49150289Y-66549785D03*
%TO.N,/SC4*%
X56221357Y-70085319D03*
X49150289Y-63014251D03*
%TO.N,/VIN 5V*%
X52685823Y-73620853D03*
X56221357Y-77156386D03*
%TO.N,/SC6*%
X70363493Y-63014251D03*
%TO.N,/GND*%
X93698016Y-91298522D03*
%TD*%
D32*
%TO.N,/SDA*%
X27500000Y-117500000D02*
X28256448Y-118256448D01*
X48256448Y-118256448D02*
X50000000Y-120000000D01*
X28256448Y-118256448D02*
X48256448Y-118256448D01*
%TO.N,/SCL*%
X65000000Y-122500000D02*
X72500000Y-115000000D01*
X35000000Y-122500000D02*
X65000000Y-122500000D01*
X82737861Y-103672891D02*
X90000000Y-103672891D01*
X90000000Y-103672891D02*
X93344463Y-103672891D01*
X78672891Y-115000000D02*
X90000000Y-103672891D01*
X72500000Y-115000000D02*
X78672891Y-115000000D01*
%TO.N,/VIN 5V*%
X23004379Y-121995621D02*
X24726821Y-123718063D01*
X20866018Y-119857260D02*
X23004379Y-121995621D01*
X23004379Y-121995621D02*
X23203949Y-122195191D01*
X23203949Y-122195191D02*
X23203949Y-133203949D01*
%TO.N,/GND*%
X122500000Y-22500000D02*
X131092102Y-22500000D01*
X131092102Y-22500000D02*
X134296051Y-19296051D01*
%TO.N,/SCL*%
X96879997Y-100137357D02*
X126932035Y-130189395D01*
X93344463Y-103672891D02*
X96879997Y-100137357D01*
%TO.N,/SDA*%
X84505628Y-101905124D02*
X84505628Y-99642382D01*
X84505628Y-99642382D02*
X93449489Y-90698521D01*
X93449489Y-90698521D02*
X96056696Y-90698521D01*
X96056696Y-90698521D02*
X134356656Y-128998482D01*
%TO.N,/SD4*%
X54453590Y-71853086D02*
X66601684Y-84001180D01*
X66601684Y-84001180D02*
X74238438Y-84001180D01*
X39194226Y-76505848D02*
X49150289Y-66549785D01*
X39194226Y-113162264D02*
X39194226Y-76505848D01*
%TO.N,/SC4*%
X56221357Y-70085319D02*
X56221357Y-70651004D01*
X56221357Y-70651004D02*
X67775482Y-82205129D01*
X67775482Y-82205129D02*
X72442387Y-82205129D01*
X37398174Y-74766365D02*
X49150289Y-63014251D01*
X37398174Y-111366212D02*
X37398174Y-74766365D01*
%TO.N,/SD3*%
X118036632Y-34319858D02*
X118036632Y-47387191D01*
X118036632Y-47387191D02*
X77830540Y-87593283D01*
%TO.N,/SC3*%
X116240581Y-32523806D02*
X116240581Y-45591140D01*
X116240581Y-45591140D02*
X76034489Y-85797231D01*
%TO.N,/SC7*%
X85304659Y-41666697D02*
X85304659Y-63784997D01*
X69326629Y-79763027D02*
X65899065Y-79763027D01*
X85304659Y-63784997D02*
X69326629Y-79763027D01*
X65899065Y-79763027D02*
X61666079Y-75530041D01*
X61666079Y-75530041D02*
X61666079Y-71428821D01*
%TO.N,/SD7*%
X83508608Y-43462748D02*
X83508608Y-61988946D01*
X83508608Y-61988946D02*
X67530578Y-77966975D01*
X67530578Y-77966975D02*
X66577888Y-77966975D01*
X66577888Y-77966975D02*
X63462130Y-74851218D01*
X63462130Y-74851218D02*
X63462130Y-73224873D01*
%TO.N,/VIN 5V*%
X56221357Y-77156386D02*
X52685823Y-73620853D01*
%TO.N,/SC2*%
X89455376Y-88470095D02*
X80545830Y-88470095D01*
X80545830Y-88470095D02*
X79626591Y-89389334D01*
%TO.N,/SC6*%
X70363493Y-62137438D02*
X70363493Y-63014251D01*
X67598705Y-59372651D02*
X70363493Y-62137438D01*
%TO.N,/SD6*%
X65802654Y-61168702D02*
X67054233Y-62420281D01*
X67054233Y-62420281D02*
X67054233Y-76816975D01*
%TO.N,/SC0*%
X46873405Y-83647627D02*
X51596879Y-78924153D01*
X51596879Y-78924153D02*
X54453590Y-78924153D01*
X54453590Y-78924153D02*
X68708863Y-93179426D01*
X68708863Y-93179426D02*
X68708863Y-96714960D01*
%TO.N,/SD0*%
X50366513Y-85443678D02*
X63292425Y-98369590D01*
X48669457Y-85443678D02*
X50366513Y-85443678D01*
X63292425Y-98369590D02*
X65060192Y-96601823D01*
X65060192Y-96601823D02*
X65229897Y-96601823D01*
X65229897Y-96601823D02*
X66912811Y-94918909D01*
%TO.N,/SD1*%
X66969380Y-103743601D02*
X70490772Y-103743601D01*
X73899026Y-100278778D02*
X72131260Y-98511011D01*
X70490772Y-103743601D02*
X73899026Y-100335347D01*
X73899026Y-100335347D02*
X73899026Y-100278778D01*
X72131260Y-98511011D02*
X70504914Y-98511011D01*
%TO.N,SC1*%
X65173329Y-101947550D02*
X66813817Y-100307062D01*
X66813817Y-100307062D02*
X72300965Y-100307062D01*
%TO.N,/VIN 5V*%
X24726821Y-123718063D02*
X24726821Y-126272023D01*
%TO.N,3.3*%
X60817551Y-102258677D02*
X66474405Y-107915531D01*
X48089629Y-89530755D02*
X60817551Y-102258677D01*
X60817551Y-102258677D02*
X48117913Y-114958315D01*
X48117913Y-114958315D02*
X40990277Y-114958315D01*
%TO.N,/VIN 5V*%
X49723046Y-109548948D02*
X51625163Y-107646831D01*
X51625163Y-107646831D02*
X51625163Y-101551570D01*
X66340055Y-42727357D02*
X69822556Y-46209858D01*
X124131892Y-27630627D02*
X127773492Y-31272227D01*
X127773492Y-31272227D02*
X127773492Y-31328796D01*
%TO.N,3.3*%
X124810715Y-64428464D02*
X124810715Y-45336581D01*
X116678987Y-72560192D02*
X124810715Y-64428464D01*
X124810715Y-45336581D02*
X119832683Y-40358550D01*
X119832683Y-40358550D02*
X119832683Y-36115909D01*
%TO.N,/GND*%
X93698016Y-91298522D02*
X93698016Y-93419842D01*
X93698016Y-93419842D02*
X134356656Y-134078482D01*
%TO.N,3.3*%
X134356656Y-126458482D02*
X95465783Y-87567609D01*
X95465783Y-87567609D02*
X95465783Y-87409435D01*
X99708424Y-89530755D02*
X116678987Y-72560192D01*
X96526443Y-86348775D02*
X99708424Y-89530755D01*
X116678987Y-72560192D02*
X111022132Y-66903338D01*
X95465783Y-87409435D02*
X96526443Y-86348775D01*
X70717046Y-112158172D02*
X95465783Y-87409435D01*
X93047478Y-84877992D02*
X95465783Y-87296298D01*
X95465783Y-87296298D02*
X95465783Y-87409435D01*
X41018561Y-82459687D02*
X48089629Y-89530755D01*
X50465508Y-87239729D02*
X48174482Y-89530755D01*
X48174482Y-89530755D02*
X48089629Y-89530755D01*
X66474405Y-107915531D02*
X70717046Y-112158172D01*
X68765431Y-105539653D02*
X66474405Y-107830679D01*
X66474405Y-107830679D02*
X66474405Y-107915531D01*
X59049784Y-64428464D02*
X43846988Y-79631260D01*
X43846988Y-79631260D02*
X41018561Y-82459687D01*
X79909434Y-43568814D02*
X61878211Y-61600037D01*
X61878211Y-61600037D02*
X59049784Y-64428464D01*
X64006603Y-62964753D02*
X62641887Y-61600037D01*
X62641887Y-61600037D02*
X61878211Y-61600037D01*
X81712556Y-45258800D02*
X80022571Y-43568814D01*
X79909434Y-43568814D02*
X80022571Y-43568814D01*
%TD*%
M02*
